SplineFontDB: 3.2
FontName: AltStandard-Regular
FullName: Alt Standard Regular
FamilyName: Alt Standard
Weight: Regular
Copyright: Copyright (c) 2006-2011 Alexey Kryukov <amkryukov@gmail.com>,\nwithout Reserved Font Names.\n\nCopyright (c) 2019-2023, Robert Alessi <alessi@robertalessi.net>,\nwithout Reserved Font Names.\n\nCopyright (c) 2023, Antonis Tsolomitis <atsol@aegean.gr>,\nwithout Reserved Font Names.\n\nThis Font Software is licensed under the SIL Open Font License, Version 1.1.\nThis license is copied below, and is also available with a FAQ at:\nhttp://scripts.sil.org/OFL\n\nCopyright (c) 2025, Ioannes Bracmanus, without Reserved Font Names.
Version: 2.7a
ItalicAngle: 0
UnderlinePosition: -158
UnderlineWidth: 40
Ascent: 762
Descent: 238
InvalidEm: 0
sfntRevision: 0x0002b333
LayerCount: 2
Layer: 0 0 "Atr+AOEA-s" 1
Layer: 1 0 "Fore" 0
XUID: [1021 149 -1843968052 10136471]
StyleMap: 0x0040
FSType: 0
OS2Version: 4
OS2_WeightWidthSlopeOnly: 0
OS2_UseTypoMetrics: 1
CreationTime: 1300584531
ModificationTime: 1775097809
PfmFamily: 17
TTFWeight: 400
TTFWidth: 5
LineGap: 236
VLineGap: 0
Panose: 2 4 5 3 5 5 5 2 3 3
OS2TypoAscent: 762
OS2TypoAOffset: 0
OS2TypoDescent: -238
OS2TypoDOffset: 0
OS2TypoLinegap: 236
OS2WinAscent: 952
OS2WinAOffset: 0
OS2WinDescent: 294
OS2WinDOffset: 0
HheadAscent: 952
HheadAOffset: 0
HheadDescent: -294
HheadDOffset: 0
OS2SubXSize: 640
OS2SubYSize: 660
OS2SubXOff: 0
OS2SubYOff: 480
OS2SupXSize: 640
OS2SupYSize: 660
OS2SupXOff: 0
OS2SupYOff: 0
OS2StrikeYSize: 40
OS2StrikeYPos: 212
OS2CapHeight: 712
OS2XHeight: 456
OS2FamilyClass: 768
OS2Vendor: 'PfEd'
OS2CodePages: 2000009f.00000000
OS2UnicodeRanges: e0000aff.5a0020ff.02000000.00000000

StartChar: .notdef
Encoding: 1114112 -1 0
Width: 500
GlyphClass: 1
Flags: MW
HStem: 0 32<124 376 376 390.5 124 458> 682 32<109.5 124 124 376>
VStem: 42 38<64 80 80 634> 420 38<80 634 634 650>
LayerCount: 2
Fore
SplineSet
42 0 m 1
 42 714 l 1
 458 714 l 1
 458 0 l 1
 42 0 l 1
80 80 m 2
 80 48 95 32 124 32 c 2
 376 32 l 2
 405 32 420 48 420 80 c 2
 420 634 l 2
 420 666 405 682 376 682 c 2
 124 682 l 2
 95 682 80 666 80 634 c 2
 80 80 l 2
EndSplineSet
EndChar

StartChar: exclam
Encoding: 33 33 2
Width: 280
GlyphClass: 2
Flags: MW
HStem: -12 124<122 158> 674 20G<121.5 158.5>
VStem: 78 124<32 68 578 644>
LayerCount: 2
Fore
SplineSet
78 50 m 0
 78 86 104 112 140 112 c 0
 176 112 202 86 202 50 c 0
 202 14 176 -12 140 -12 c 0
 104 -12 78 14 78 50 c 0
78 622 m 0
 78 666 103 694 140 694 c 0
 177 694 202 666 202 622 c 0
 202 534 176 452 168 356 c 2
 152 156 l 1
 128 156 l 1
 112 356 l 2
 104 452 78 534 78 622 c 0
EndSplineSet
EndChar

StartChar: quotedbl
Encoding: 34 34 3
Width: 394
GlyphClass: 2
Flags: MW
HStem: 520 210<110.5 129.5 110.5 132 108 129.5 264.5 283.5 110.5 286 110.5 262>
VStem: 86 68<682 700> 240 68<682 700>
LayerCount: 2
Fore
SplineSet
240 684 m 0
 240 716 255 730 274 730 c 0
 293 730 308 716 308 684 c 0
 308 680 307 673 306 666 c 2
 286 520 l 1
 262 520 l 1
 242 666 l 2
 241 673 240 680 240 684 c 0
86 684 m 0
 86 716 101 730 120 730 c 0
 139 730 154 716 154 684 c 0
 154 680 153 673 152 666 c 2
 132 520 l 1
 108 520 l 1
 88 666 l 2
 87 673 86 680 86 684 c 0
EndSplineSet
EndChar

StartChar: numbersign
Encoding: 35 35 4
Width: 684
GlyphClass: 2
Flags: MW
HStem: 0 21G<166 210 166 166 356 400 356 356> 196 40<81 202 81 197 81 241 246 386 438 607> 450 40<81 238 81 244 287 428 81 282 477 610> 664 20G<273 317 317 317 463 507 507 507>
LayerCount: 2
Fore
SplineSet
246 236 m 1
 394 236 l 1
 428 450 l 1
 282 450 l 1
 246 236 l 1
81 196 m 1
 81 236 l 1
 202 236 l 1
 238 450 l 1
 81 450 l 1
 81 490 l 1
 244 490 l 1
 273 684 l 1
 317 684 l 1
 287 490 l 1
 433 490 l 1
 463 684 l 1
 507 684 l 1
 477 490 l 1
 610 490 l 1
 610 450 l 1
 472 450 l 1
 438 236 l 1
 607 236 l 1
 607 196 l 1
 430 196 l 1
 400 0 l 1
 356 0 l 1
 386 196 l 1
 241 196 l 1
 210 0 l 1
 166 0 l 1
 197 196 l 1
 81 196 l 1
EndSplineSet
EndChar

StartChar: dollar
Encoding: 36 36 5
Width: 580
GlyphClass: 2
Flags: MW
HStem: -16 32<286.5 296> -15 32<260 260> 660 33<228 228> 668 32<286.5 296>
VStem: 62 62<82.5 185> 86 48<525 558> 228 32<-84 -15 -84 -11 -84 -11 21 320 427 660 660 660 698 758> 316 32<-84 -15 -15 -15 23 285 392 663 699 758> 449 53<555 571.5 511.5 594> 456 44<141 192.5>
LayerCount: 2
Fore
SplineSet
348 23 m 1x0340
 421 43 456 102 456 155 c 0
 456 230 422 255 368 277 c 2
 348 285 l 1
 348 23 l 1x0340
134 540 m 0x27
 134 510 134 458 228 427 c 1
 228 660 l 1
 160 640 134 587 134 540 c 0x27
260 414 m 1
 316 392 l 1
 316 667 l 1
 308 668 300 668 292 668 c 0x13
 281 668 270 667 260 666 c 1
 260 414 l 1
260 17 m 1x43
 270 16 281 16 292 16 c 0x83
 300 16 308 16 316 17 c 1
 316 298 l 1
 260 320 l 1
 260 17 l 1x43
399 481 m 0
 399 533 449 529 449 581 c 0x1780
 449 607 422 649 348 663 c 1
 348 379 l 1
 368 371 l 2
 455 337 500 264 500 187 c 0
 500 95 449 12 348 -10 c 1
 348 -84 l 1
 316 -84 l 1
 316 -15 l 1x5340
 308 -16 300 -16 292 -16 c 0x8340
 281 -16 270 -16 260 -15 c 1
 260 -84 l 1
 228 -84 l 1
 228 -11 l 1
 125 7 62 69 62 165 c 0
 62 205 89 242 130 242 c 0
 146 242 172 231 172 198 c 0
 172 176 166 164 136 132 c 0
 124 120 124 106 124 99 c 0x4b40
 124 66 158 33 228 21 c 1
 228 333 l 1
 192 345 86 391 86 518 c 0
 86 598 133 671 228 693 c 1x67
 228 758 l 1
 260 758 l 1
 260 698 l 1
 270 699 281 700 292 700 c 0
 300 700 308 700 316 699 c 1
 316 758 l 1
 348 758 l 1
 348 695 l 1
 450 677 502 607 502 536 c 0x1780
 502 487 489 442 441 442 c 0
 409 442 399 467 399 481 c 0
EndSplineSet
EndChar

StartChar: percent
Encoding: 37 37 6
Width: 860
GlyphClass: 2
Flags: MW
HStem: -16 20<596 660 596 667> 322 20<596 660> 342 20<198 262 198 269> 680 20<198 262>
VStem: 96 64<479 561 479 571> 302 64<479 561> 494 64<121 203 121 213> 700 64<121 203>
LayerCount: 2
Fore
SplineSet
96 520 m 0xbf
 96 622 152 700 230 700 c 0
 308 700 366 622 366 520 c 0
 366 418 308 342 230 342 c 0
 152 342 96 418 96 520 c 0xbf
160 520 m 0
 160 438 166 362 230 362 c 0
 294 362 302 438 302 520 c 0
 302 602 294 680 230 680 c 0
 166 680 160 602 160 520 c 0
494 162 m 0
 494 264 550 342 628 342 c 0xdf
 706 342 764 264 764 162 c 0
 764 60 706 -16 628 -16 c 0
 550 -16 494 60 494 162 c 0
558 162 m 0
 558 80 564 4 628 4 c 0
 692 4 700 80 700 162 c 0
 700 244 692 322 628 322 c 0
 564 322 558 244 558 162 c 0
198 -18 m 1
 624 702 l 1
 660 702 l 1
 234 -18 l 1
 198 -18 l 1
EndSplineSet
EndChar

StartChar: ampersand
Encoding: 38 38 7
Width: 786
GlyphClass: 2
Flags: MW
HStem: -18 30<238 288.5> -18 44<594 630> 366 32<484 529 484 732 687.5 701 701 732> 673 30<291 342>
VStem: 54 96<103 188.5> 164 64<535.5 581> 399 36<545 609>
LayerCount: 2
Fore
SplineSet
228 560 m 0x3e
 228 511 264 457 281 435 c 2
 291 422 l 1
 332 453 399 504 399 586 c 0
 399 632 365 673 319 673 c 0
 263 673 228 626 228 560 c 0x3e
150 153 m 0
 150 53 215 12 261 12 c 0xbe
 326 12 380 45 425 87 c 1
 363 169 306 257 246 341 c 1
 236 333 l 2
 196 301 150 249 150 153 c 0
483 149 m 1
 484 151 568 255 568 326 c 0
 568 351 549 366 529 366 c 2
 484 366 l 1
 484 398 l 1
 732 398 l 1
 732 366 l 1
 701 366 l 2
 674 366 642 364 615 309 c 0
 557 191 530 155 503 121 c 1
 545 63 577 26 611 26 c 0
 667 26 692 69 708 102 c 1
 724 94 l 1
 708 59 672 -18 588 -18 c 0x7e
 535 -18 487 17 446 63 c 1
 397 20 328 -18 249 -18 c 0
 132 -18 54 34 54 145 c 0
 54 232 145 307 196 346 c 2
 226 369 l 1
 216 384 l 2
 185 431 164 485 164 530 c 0
 164 632 237 703 318 703 c 0
 402 703 435 639 435 580 c 0
 435 497 371 441 311 393 c 1
 483 149 l 1
EndSplineSet
EndChar

StartChar: quotesingle
Encoding: 39 39 8
Width: 240
GlyphClass: 2
Flags: MW
HStem: 520 210<110.5 129.5 110.5 132 108 129.5>
VStem: 86 68<682 700>
LayerCount: 2
Fore
SplineSet
86 684 m 0
 86 716 101 730 120 730 c 0
 139 730 154 716 154 684 c 0
 154 680 153 673 152 666 c 2
 132 520 l 1
 108 520 l 1
 88 666 l 2
 87 673 86 680 86 684 c 0
EndSplineSet
EndChar

StartChar: parenleft
Encoding: 40 40 9
Width: 370
GlyphClass: 2
Flags: MW
HStem: 710 20G<294 294>
VStem: 98 50<180 352 180 364>
LayerCount: 2
Fore
SplineSet
98 266 m 0
 98 462 182 626 294 730 c 1
 324 706 l 1
 206 582 148 438 148 266 c 0
 148 94 206 -50 324 -174 c 1
 294 -198 l 1
 182 -94 98 70 98 266 c 0
EndSplineSet
Substitution2: "'sups' Superscript lookup 21 subtable" uni207D
Substitution2: "'subs' Subscript lookup 20 subtable" uni208D
EndChar

StartChar: parenright
Encoding: 41 41 10
Width: 370
GlyphClass: 2
Flags: MW
HStem: 710 20G<78 78>
VStem: 224 50<180 352>
LayerCount: 2
Fore
SplineSet
48 -174 m 1
 166 -50 224 94 224 266 c 0
 224 438 166 582 48 706 c 1
 78 730 l 1
 190 626 274 462 274 266 c 0
 274 70 190 -94 78 -198 c 1
 48 -174 l 1
EndSplineSet
Substitution2: "'sups' Superscript lookup 21 subtable" uni207E
Substitution2: "'subs' Subscript lookup 20 subtable" uni208E
EndChar

StartChar: asterisk
Encoding: 42 42 11
Width: 502
GlyphClass: 2
Flags: MW
HStem: 374 84 468 54<233 238 233 238 272 277> 532 84 680 20G<243 267>
VStem: 217 76<321 345.5 644.5 669> 243 24<421.5 459.5 530.5 568.5>
LayerCount: 2
Fore
SplineSet
217 333 m 0xf8
 217 358 243 390 243 453 c 0
 243 466 241 468 235 468 c 0
 227 468 188 442 165 413 c 0
 147 389 131 374 109 374 c 0
 85 374 72 394 72 411 c 0
 72 442 102 453 139 458 c 0
 160 461 188 470 213 484 c 1
 213 484 223 489 223 495 c 0
 223 501 213 506 213 506 c 1
 188 520 160 529 139 532 c 0
 102 537 72 548 72 579 c 0
 72 596 85 616 109 616 c 0
 152 616 151 571 221 528 c 0
 224 526 231 522 235 522 c 0
 241 522 243 524 243 537 c 0xf4
 243 600 217 632 217 657 c 0
 217 681 231 700 255 700 c 0
 279 700 293 681 293 657 c 0xf8
 293 632 267 600 267 537 c 0
 267 524 269 522 275 522 c 0
 283 522 322 548 345 577 c 0
 363 601 379 616 401 616 c 0
 425 616 438 596 438 579 c 0
 438 548 408 537 371 532 c 0
 350 529 322 520 297 506 c 1
 297 506 287 501 287 495 c 0
 287 489 297 484 297 484 c 1
 322 470 350 461 371 458 c 0
 408 453 438 442 438 411 c 0
 438 394 425 374 401 374 c 0
 358 374 359 419 289 462 c 0
 286 464 279 468 275 468 c 0
 269 468 267 466 267 453 c 0xf4
 267 390 293 358 293 333 c 0
 293 309 279 290 255 290 c 0
 231 290 217 309 217 333 c 0xf8
EndSplineSet
EndChar

StartChar: plus
Encoding: 43 43 12
Width: 940
GlyphClass: 2
Flags: MW
HStem: -156 21G<448 492 448 448> 244 40<48 448 48 448 492 892> 664 20G<448 492 492 492>
VStem: 448 44<-156 244 -156 244 284 684>
LayerCount: 2
Fore
SplineSet
48 244 m 1
 48 284 l 1
 448 284 l 1
 448 684 l 1
 492 684 l 1
 492 284 l 1
 892 284 l 1
 892 244 l 1
 492 244 l 1
 492 -156 l 1
 448 -156 l 1
 448 244 l 1
 48 244 l 1
EndSplineSet
Substitution2: "'sups' Superscript lookup 21 subtable" uni207A
Substitution2: "'subs' Subscript lookup 20 subtable" uni208A
EndChar

StartChar: comma
Encoding: 44 44 13
Width: 280
GlyphClass: 2
Flags: MW
HStem: -168 21G<104 104> 30 110<117 133>
VStem: 174 36<-6.5 13>
LayerCount: 2
Fore
SplineSet
174 -4 m 0
 174 30 144 30 122 30 c 0
 92 30 72 55 72 82 c 0
 72 120 104 140 130 140 c 0
 165 140 210 116 210 37 c 0
 210 -50 159 -128 104 -168 c 1
 90 -152 l 1
 138 -116 174 -58 174 -4 c 0
EndSplineSet
EndChar

StartChar: hyphen
Encoding: 45 45 14
Width: 370
GlyphClass: 2
Flags: MW
HStem: 224 56<60 310 60 310>
VStem: 60 250<224 280 224 280>
LayerCount: 2
Fore
SplineSet
60 224 m 1
 60 280 l 1
 310 280 l 1
 310 224 l 1
 60 224 l 1
EndSplineSet
EndChar

StartChar: period
Encoding: 46 46 15
Width: 280
GlyphClass: 2
Flags: MW
HStem: -12 124<122 158>
VStem: 78 124<32 68>
LayerCount: 2
Fore
SplineSet
78 50 m 0
 78 86 104 112 140 112 c 0
 176 112 202 86 202 50 c 0
 202 14 176 -12 140 -12 c 0
 104 -12 78 14 78 50 c 0
EndSplineSet
EndChar

StartChar: slash
Encoding: 47 47 16
Width: 450
GlyphClass: 2
Flags: MW
HStem: 710 20G<354 394 394 394>
LayerCount: 2
Fore
SplineSet
56 -198 m 1
 354 730 l 1
 394 730 l 1
 96 -198 l 1
 56 -198 l 1
EndSplineSet
Substitution2: "'frac' Diagonal Fractions lookup 30 subtable" uni2215.frac
EndChar

StartChar: zero
Encoding: 48 48 17
Width: 580
GlyphClass: 2
Flags: MW
HStem: -16 32<227 352.5 227 363> 668 32<227 352.5>
VStem: 48 106<276 408 276 432> 426 106<276 408>
LayerCount: 2
Fore
SplineSet
48 342 m 0
 48 522 143 700 290 700 c 0
 436 700 532 522 532 342 c 0
 532 163 436 -16 290 -16 c 0
 143 -16 48 163 48 342 c 0
154 342 m 0
 154 210 164 16 290 16 c 0
 415 16 426 210 426 342 c 0
 426 474 415 668 290 668 c 0
 164 668 154 474 154 342 c 0
EndSplineSet
Substitution2: "'lnum' Lining Figures lookup 51 subtable" zero
Substitution2: "'tnum' Tabular Numbers lookup 50 subtable" zero
Substitution2: "'pnum' Proportional Numbers lookup 49 subtable" zero.prop
Substitution2: "'onum' Oldstyle Figures lookup 48 subtable" zero.oldstyle
Substitution2: "'dnom' Denominators lookup 22 subtable" zero.dnom
Substitution2: "'sups' Superscript lookup 21 subtable" zerosuperior
Substitution2: "'subs' Subscript lookup 20 subtable" zeroinferior
AlternateSubs2: "'aalt' Access All Alternates lookup 2 subtable" zerosuperior zeroinferior
EndChar

StartChar: one
Encoding: 49 49 18
Width: 580
GlyphClass: 2
Flags: MW
HStem: 0 32<120 216 120 216 216 226 364 460> 549 36<120 175 175 214 120 175> 664 20G<304 336 336 336>
VStem: 244 92<58 549 549 549> 304 32<684 684>
LayerCount: 2
Fore
SplineSet
120 0 m 1xf0
 120 32 l 1
 216 32 l 2
 236 32 244 39 244 58 c 2
 244 549 l 1xf0
 120 549 l 1
 120 585 l 1
 175 585 l 2
 253 585 294 636 304 684 c 1
 336 684 l 1xe8
 336 58 l 2
 336 39 344 32 364 32 c 2
 460 32 l 1
 460 0 l 1
 120 0 l 1xf0
EndSplineSet
Substitution2: "'lnum' Lining Figures lookup 51 subtable" one
Substitution2: "'tnum' Tabular Numbers lookup 50 subtable" one
Substitution2: "'pnum' Proportional Numbers lookup 49 subtable" one.prop
Substitution2: "'onum' Oldstyle Figures lookup 48 subtable" one.oldstyle
Substitution2: "'dnom' Denominators lookup 22 subtable" one.dnom
Substitution2: "'sups' Superscript lookup 21 subtable" onesuperior
Substitution2: "'subs' Subscript lookup 20 subtable" oneinferior
AlternateSubs2: "'aalt' Access All Alternates lookup 2 subtable" onesuperior oneinferior
EndChar

StartChar: two
Encoding: 50 50 19
Width: 580
GlyphClass: 2
Flags: MW
HStem: 0 82<186 375 375 404 186 473> 403 106 664 36<215 290.5>
VStem: 74 42<541.5 572.5> 83 72<0 126> 390 106<458 553> 465 22<208 208>
LayerCount: 2
Fore
SplineSet
74 521 m 0xf4
 74 624 158 700 272 700 c 0
 400 700 496 626 496 501 c 0xf4
 496 408 405 339 340 292 c 2
 242 216 l 2
 192 181 155 146 155 106 c 0
 155 85 171 82 186 82 c 2
 375 82 l 2
 433 82 447 113 454 149 c 2
 465 208 l 1
 487 208 l 1
 473 0 l 1
 83 0 l 1xea
 83 50 87 131 198 225 c 2
 294 307 l 2
 352 356 390 415 390 501 c 0
 390 605 337 664 244 664 c 0
 179 664 116 613 116 559 c 0
 116 524 135 513 157 509 c 0
 202 502 220 476 220 448 c 0
 220 424 202 403 169 403 c 0
 115 403 74 449 74 521 c 0xf4
EndSplineSet
Substitution2: "'lnum' Lining Figures lookup 51 subtable" two
Substitution2: "'tnum' Tabular Numbers lookup 50 subtable" two
Substitution2: "'pnum' Proportional Numbers lookup 49 subtable" two.prop
Substitution2: "'onum' Oldstyle Figures lookup 48 subtable" two.oldstyle
Substitution2: "'dnom' Denominators lookup 22 subtable" two.dnom
Substitution2: "'sups' Superscript lookup 21 subtable" twosuperior
Substitution2: "'subs' Subscript lookup 20 subtable" twoinferior
AlternateSubs2: "'aalt' Access All Alternates lookup 2 subtable" twosuperior twoinferior
EndChar

StartChar: three
Encoding: 51 51 20
Width: 580
GlyphClass: 2
Flags: MW
HStem: -16 32<219 309 219 322> 96 110<157.5 167 125 179> 326 56<167 194.5 166.5 195> 346 28<251.5 305.5> 668 32<224.5 300>
VStem: 72 58<72.5 86.5 56 142.5> 88 64<601 603.5> 377 96<484 557.5> 394 106<146.5 237.5 122.5 243>
LayerCount: 2
Fore
SplineSet
176 382 m 0xec80
 213 382 210 374 278 374 c 0
 347 374 377 451 377 517 c 0
 377 598 340 668 260 668 c 0
 171 668 152 630 152 606 c 0
 152 596 160 580 178 572 c 0
 202 562 214 545 214 523 c 0
 214 497 196 475 160 475 c 0
 120 475 88 515 88 554 c 0
 88 653 178 700 271 700 c 0
 392 700 473 630 473 524 c 0xdb
 473 435 400 382 345 369 c 1
 345 361 l 1
 404 351 500 290 500 185 c 0
 500 60 388 -16 256 -16 c 0
 156 -16 72 26 72 119 c 0
 72 166 102 206 148 206 c 0
 186 206 210 185 210 148 c 0
 210 121 193 96 165 96 c 0
 150 96 130 94 130 79 c 0
 130 33 182 16 256 16 c 0
 362 16 394 107 394 186 c 0
 394 300 336 346 275 346 c 0xdc80
 228 346 214 326 176 326 c 0
 158 326 138 334 138 354 c 0
 138 374 157 382 176 382 c 0xec80
EndSplineSet
Substitution2: "'lnum' Lining Figures lookup 51 subtable" three
Substitution2: "'tnum' Tabular Numbers lookup 50 subtable" three
Substitution2: "'pnum' Proportional Numbers lookup 49 subtable" three.prop
Substitution2: "'onum' Oldstyle Figures lookup 48 subtable" three.oldstyle
Substitution2: "'dnom' Denominators lookup 22 subtable" three.dnom
Substitution2: "'sups' Superscript lookup 21 subtable" threesuperior
Substitution2: "'subs' Subscript lookup 20 subtable" threeinferior
AlternateSubs2: "'aalt' Access All Alternates lookup 2 subtable" threesuperior threeinferior
EndChar

StartChar: four
Encoding: 52 52 21
Width: 580
GlyphClass: 2
Flags: MW
HStem: 0 32<186 283 283 292.5 429 526 186 283> 192 36<56 56 102 310 402 523> 665 20G<366 402 402 402>
VStem: 310 92<58 192 228 534 534 534>
LayerCount: 2
Fore
SplineSet
56 192 m 1
 56 228 l 1
 366 685 l 1
 402 685 l 1
 402 228 l 1
 523 228 l 1
 523 192 l 1
 402 192 l 1
 402 58 l 2
 402 39 410 32 429 32 c 2
 526 32 l 1
 526 0 l 1
 186 0 l 1
 186 32 l 1
 283 32 l 2
 302 32 310 39 310 58 c 2
 310 192 l 1
 56 192 l 1
102 228 m 1
 310 228 l 1
 310 534 l 1
 102 228 l 1
EndSplineSet
Substitution2: "'lnum' Lining Figures lookup 51 subtable" four
Substitution2: "'tnum' Tabular Numbers lookup 50 subtable" four
Substitution2: "'pnum' Proportional Numbers lookup 49 subtable" four.prop
Substitution2: "'onum' Oldstyle Figures lookup 48 subtable" four.oldstyle
Substitution2: "'dnom' Denominators lookup 22 subtable" four.dnom
Substitution2: "'sups' Superscript lookup 21 subtable" foursuperior
Substitution2: "'subs' Subscript lookup 20 subtable" fourinferior
AlternateSubs2: "'aalt' Access All Alternates lookup 2 subtable" foursuperior fourinferior
EndChar

StartChar: five
Encoding: 53 53 22
Width: 580
GlyphClass: 2
Flags: MW
HStem: -16 32<226 321 226 335> 432 36<268 322> 582 76<256 299> 680 20G<142 142 446 446>
VStem: 86 72<90 93 64 164.5> 120 36<338 351.5 411 602> 408 106<184.5 300>
LayerCount: 2
Fore
SplineSet
272 432 m 0xfa
 183 432 156 365 156 338 c 0
 156 324 149 313 136 313 c 0
 127 313 120 318 120 338 c 2
 120 683 l 1
 142 700 l 1
 170 676 233 658 279 658 c 0
 338 658 388 666 446 700 c 1
 458 686 l 1
 412 627 340 582 258 582 c 0
 207 582 183 588 156 602 c 1
 156 411 l 1xf6
 162 409 l 1
 195 447 244 468 292 468 c 0
 435 468 514 374 514 242 c 0
 514 92 402 -16 268 -16 c 0
 154 -16 86 49 86 131 c 0
 86 198 128 228 166 228 c 0
 204 228 224 201 224 170 c 0
 224 146 208 126 188 117 c 0
 173 110 158 102 158 84 c 0
 158 44 184 16 268 16 c 0
 374 16 408 127 408 242 c 0
 408 358 372 432 272 432 c 0xfa
EndSplineSet
Substitution2: "'lnum' Lining Figures lookup 51 subtable" five
Substitution2: "'tnum' Tabular Numbers lookup 50 subtable" five
Substitution2: "'pnum' Proportional Numbers lookup 49 subtable" five.prop
Substitution2: "'onum' Oldstyle Figures lookup 48 subtable" five.oldstyle
Substitution2: "'dnom' Denominators lookup 22 subtable" five.dnom
Substitution2: "'sups' Superscript lookup 21 subtable" fivesuperior
Substitution2: "'subs' Subscript lookup 20 subtable" fiveinferior
AlternateSubs2: "'aalt' Access All Alternates lookup 2 subtable" fivesuperior fiveinferior
EndChar

StartChar: six
Encoding: 54 54 23
Width: 557
GlyphClass: 2
Flags: MW
HStem: -16 32<235 323 235 345> 392 37<265 330.5> 668 32<239.5 342>
VStem: 60 93<345 390 345 425.5> 394 62<552.5 633> 394 88<167.5 252.5>
LayerCount: 2
Fore
SplineSet
288 429 m 0xf8
 432 429 482 311 482 219 c 0xf4
 482 116 412 -16 278 -16 c 0
 148 -16 60 109 60 314 c 0
 60 537 166 700 313 700 c 0
 408 700 456 636 456 573 c 0
 456 532 428 501 390 501 c 0
 384 501 346 503 346 548 c 0
 346 570 368 588 378 595 c 0
 389 603 394 610 394 623 c 0
 394 643 373 668 311 668 c 0
 156 668 153 412 153 390 c 2
 153 345 l 1
 160 342 l 1
 185 394 242 429 288 429 c 0xf8
166 206 m 0
 166 108 192 16 278 16 c 0
 368 16 394 125 394 206 c 0
 394 299 371 392 290 392 c 0
 221 392 166 319 166 206 c 0
EndSplineSet
Substitution2: "'lnum' Lining Figures lookup 51 subtable" six
Substitution2: "'tnum' Tabular Numbers lookup 50 subtable" six
Substitution2: "'pnum' Proportional Numbers lookup 49 subtable" six.prop
Substitution2: "'dnom' Denominators lookup 22 subtable" six.dnom
Substitution2: "'sups' Superscript lookup 21 subtable" sixsuperior
Substitution2: "'subs' Subscript lookup 20 subtable" sixinferior
AlternateSubs2: "'aalt' Access All Alternates lookup 2 subtable" sixsuperior sixinferior
EndChar

StartChar: seven
Encoding: 55 55 24
Width: 580
GlyphClass: 2
Flags: MW
HStem: -16 21G<259.5 304.5> 602 82<173 202 202 409>
VStem: 90 22<476 476> 204 138<50 59 28 124.5> 440 48
LayerCount: 2
Fore
SplineSet
90 476 m 1
 104 684 l 1
 488 684 l 1
 488 632 475 526 420 443 c 2
 363 357 l 2
 344 329 322 283 322 227 c 0
 322 205 322 184 328 152 c 2
 334 117 l 2
 337 102 342 71 342 47 c 0
 342 9 326 -16 283 -16 c 0
 236 -16 204 20 204 80 c 0
 204 169 261 264 309 333 c 2
 389 448 l 2
 417 488 440 540 440 576 c 0
 440 598 428 602 409 602 c 2
 202 602 l 2
 144 602 130 571 123 535 c 2
 112 476 l 1
 90 476 l 1
EndSplineSet
Substitution2: "'lnum' Lining Figures lookup 51 subtable" seven
Substitution2: "'tnum' Tabular Numbers lookup 50 subtable" seven
Substitution2: "'pnum' Proportional Numbers lookup 49 subtable" seven.prop
Substitution2: "'onum' Oldstyle Figures lookup 48 subtable" seven.oldstyle
Substitution2: "'dnom' Denominators lookup 22 subtable" seven.dnom
Substitution2: "'sups' Superscript lookup 21 subtable" sevensuperior
Substitution2: "'subs' Subscript lookup 20 subtable" seveninferior
AlternateSubs2: "'aalt' Access All Alternates lookup 2 subtable" sevensuperior seveninferior
EndChar

StartChar: eight
Encoding: 56 56 25
Width: 614
GlyphClass: 2
Flags: MW
HStem: -16 32 668 32<246.795 326.295>
VStem: 90.2953 70 98.2953 74 466.295 64 478.295 78
LayerCount: 2
Fore
SplineSet
160.294921875 172 m 0xe4
 160.294921875 56 215.294921875 16 289.294921875 16 c 0
 407.294921875 16 465.294921875 106 465.294921875 156 c 0
 465.294921875 238 401.294921875 264 349.294921875 285 c 2
 247.294921875 334 l 1
 198.294921875 314 160.294921875 273 160.294921875 172 c 0xe4
90.294921875 174 m 0
 90.294921875 284 174.294921875 330 218.294921875 342 c 1
 218.294921875 346 l 1
 207.294921875 351 l 2
 135.294921875 381 98.294921875 441 98.294921875 516 c 0
 98.294921875 625 178.294921875 700 286.294921875 700 c 0
 429.294921875 700 497.294921875 612 497.294921875 528 c 0xd8
 497.294921875 448 432.294921875 397 382.294921875 374 c 1
 382.294921875 370 l 1
 405.294921875 361 l 2
 472.294921875 334 519.024414062 286.881835938 523.294921875 210 c 0
 530.294921875 84 447.294921875 -22 292.294921875 -16 c 0
 175.3828125 -11.474609375 90.294921875 55 90.294921875 174 c 0
163.294921875 524 m 0
 165.430664062 467.040039062 194.294921875 437 251.294921875 414 c 1
 353.294921875 381 l 1
 416.294921875 415 433.294921875 465 433.294921875 522 c 0
 433.294921875 606 366.294921875 668 286.294921875 668 c 0
 207.294921875 668 160.294921875 604 163.294921875 524 c 0
EndSplineSet
Substitution2: "'lnum' Lining Figures lookup 51 subtable" eight
Substitution2: "'tnum' Tabular Numbers lookup 50 subtable" eight
Substitution2: "'pnum' Proportional Numbers lookup 49 subtable" eight.prop
Substitution2: "'onum' Oldstyle Figures lookup 48 subtable" eight.oldstyle
Substitution2: "'dnom' Denominators lookup 22 subtable" eight.dnom
Substitution2: "'sups' Superscript lookup 21 subtable" eightsuperior
Substitution2: "'subs' Subscript lookup 20 subtable" eightinferior
AlternateSubs2: "'aalt' Access All Alternates lookup 2 subtable" eightsuperior eightinferior
EndChar

StartChar: nine
Encoding: 57 57 26
Width: 580
GlyphClass: 2
Flags: MW
HStem: -16 32<218 320.5> 255 37<229.5 295> 668 32<237 325>
VStem: 78 88<431.5 516.5> 104 62<51 131.5> 407 93<294 339 339 339>
LayerCount: 2
Fore
SplineSet
272 255 m 0xec
 128 255 78 373 78 465 c 0xf4
 78 568 148 700 282 700 c 0
 412 700 500 575 500 370 c 0
 500 147 394 -16 247 -16 c 0
 152 -16 104 48 104 111 c 0
 104 152 132 183 170 183 c 0
 176 183 214 181 214 136 c 0
 214 114 192 96 182 89 c 0
 171 81 166 74 166 61 c 0
 166 41 187 16 249 16 c 0
 404 16 407 272 407 294 c 2
 407 339 l 1
 400 342 l 1
 375 290 318 255 272 255 c 0xec
166 478 m 0
 166 385 189 292 270 292 c 0
 339 292 394 365 394 478 c 0
 394 576 368 668 282 668 c 0
 192 668 166 559 166 478 c 0
EndSplineSet
Substitution2: "'lnum' Lining Figures lookup 51 subtable" nine
Substitution2: "'tnum' Tabular Numbers lookup 50 subtable" nine
Substitution2: "'pnum' Proportional Numbers lookup 49 subtable" nine.prop
Substitution2: "'onum' Oldstyle Figures lookup 48 subtable" nine.oldstyle
Substitution2: "'dnom' Denominators lookup 22 subtable" nine.dnom
Substitution2: "'sups' Superscript lookup 21 subtable" ninesuperior
Substitution2: "'subs' Subscript lookup 20 subtable" nineinferior
AlternateSubs2: "'aalt' Access All Alternates lookup 2 subtable" ninesuperior nineinferior
EndChar

StartChar: colon
Encoding: 58 58 27
Width: 280
GlyphClass: 2
Flags: MW
HStem: -12 124<122 158> 344 124<122 158>
VStem: 78 124<32 68 388 424>
LayerCount: 2
Fore
SplineSet
78 50 m 0
 78 86 104 112 140 112 c 0
 176 112 202 86 202 50 c 0
 202 14 176 -12 140 -12 c 0
 104 -12 78 14 78 50 c 0
78 406 m 0
 78 442 104 468 140 468 c 0
 176 468 202 442 202 406 c 0
 202 370 176 344 140 344 c 0
 104 344 78 370 78 406 c 0
EndSplineSet
EndChar

StartChar: semicolon
Encoding: 59 59 28
AltUni2: 00037e.ffffffff.0 00037e.ffffffff.0
Width: 280
GlyphClass: 2
Flags: MW
HStem: -168 21G<104 104> 30 110<117 133> 344 124<122 158>
VStem: 78 124<388 424> 174 36<-6.5 13>
LayerCount: 2
Fore
SplineSet
174 -4 m 0xc8
 174 30 144 30 122 30 c 0
 92 30 72 55 72 82 c 0
 72 120 104 140 130 140 c 0
 165 140 210 116 210 37 c 0
 210 -50 159 -128 104 -168 c 1
 90 -152 l 1
 138 -116 174 -58 174 -4 c 0xc8
78 406 m 0x30
 78 442 104 468 140 468 c 0
 176 468 202 442 202 406 c 0
 202 370 176 344 140 344 c 0
 104 344 78 370 78 406 c 0x30
EndSplineSet
EndChar

StartChar: less
Encoding: 60 60 29
Width: 940
GlyphClass: 2
Flags: MW
HStem: -156 21G<840 840> 664 20G<840 840>
LayerCount: 2
Fore
SplineSet
84 250 m 1
 84 278 l 1
 840 684 l 1
 860 648 l 1
 146 264 l 1
 860 -120 l 1
 840 -156 l 1
 84 250 l 1
EndSplineSet
EndChar

StartChar: equal
Encoding: 61 61 30
Width: 940
GlyphClass: 2
Flags: MW
HStem: 148 40<48 892 48 892> 338 40<48 892 48 892>
LayerCount: 2
Fore
SplineSet
48 148 m 1
 48 188 l 1
 892 188 l 1
 892 148 l 1
 48 148 l 1
48 338 m 1
 48 378 l 1
 892 378 l 1
 892 338 l 1
 48 338 l 1
EndSplineSet
Substitution2: "'sups' Superscript lookup 21 subtable" uni207C
Substitution2: "'subs' Subscript lookup 20 subtable" uni208C
EndChar

StartChar: greater
Encoding: 62 62 31
Width: 940
GlyphClass: 2
Flags: MW
HStem: -156 21G<100 100> 664 20G<100 100>
LayerCount: 2
Fore
SplineSet
80 -120 m 1
 794 264 l 1
 80 648 l 1
 100 684 l 1
 856 278 l 1
 856 250 l 1
 100 -156 l 1
 80 -120 l 1
EndSplineSet
EndChar

StartChar: question
Encoding: 63 63 32
Width: 470
GlyphClass: 2
Flags: MW
HStem: -12 124<230 266> 154 30<233 265.5 233 267> 468 85<118 132 118 152> 664 30<194 265.5>
VStem: 64 44<574.5 596> 158 34<214 256.5> 186 124<32 68> 308 24<230 253> 340 88<515 574.5>
LayerCount: 2
Fore
SplineSet
186 50 m 0xfa80
 186 86 212 112 248 112 c 0
 284 112 310 86 310 50 c 0
 310 14 284 -12 248 -12 c 0
 212 -12 186 14 186 50 c 0xfa80
124 553 m 0
 140 553 130 556 152 556 c 0
 175 556 188 538 188 516 c 0
 188 490 171 468 133 468 c 0
 98 468 64 499 64 555 c 0
 64 637 152 694 232 694 c 0
 334 694 428 642 428 542 c 0
 428 385 192 349 192 232 c 0
 192 196 218 184 248 184 c 0
 283 184 308 210 308 250 c 0
 308 256 308 266 303 276 c 1
 321 284 l 1
 326 276 332 265 332 249 c 0
 332 192 286 154 248 154 c 0
 199 154 158 181 158 235 c 0xfd80
 158 278 176 302 206 334 c 2
 282 416 l 2
 317 454 340 488 340 542 c 0
 340 607 306 664 225 664 c 0
 163 664 108 626 108 586 c 0
 108 563 112 553 124 553 c 0
EndSplineSet
EndChar

StartChar: at
Encoding: 64 64 33
Width: 820
GlyphClass: 2
Flags: MW
HStem: -18 28<318 461 318 462> 131 24<311 348 545 617> 555 24<423 466> 702 28<324 503>
VStem: 48 48<244.5 439.5 235 458> 206 68<212.5 281.5 201 294> 718 48<349.5 474.5 327.5 493.5>
LayerCount: 2
Fore
SplineSet
449 555 m 0
 325 555 274 340 274 223 c 0
 274 179 300 155 322 155 c 0
 394 155 450 246 474 335 c 2
 497 420 l 2
 500 431 502 443 502 457 c 0
 502 504 483 555 449 555 c 0
48 355 m 0
 48 561 212 730 420 730 c 0
 645 730 766 572 766 377 c 0
 766 278 696 131 538 131 c 0
 488 131 449 159 443 206 c 1
 438 207 l 1
 423 184 378 131 318 131 c 0
 264 131 206 170 206 255 c 0
 206 333 227 426 273 481 c 0
 333 553 397 579 449 579 c 0
 487 579 516 543 520 524 c 1
 525 524 l 1
 536 567 l 1
 608 567 l 1
 524 257 l 2
 520 241 518 227 518 214 c 0
 518 176 536 155 554 155 c 0
 686 155 718 302 718 397 c 0
 718 590 595 702 411 702 c 0
 237 702 96 544 96 335 c 0
 96 135 216 10 420 10 c 0
 502 10 564 47 596 68 c 1
 612 45 l 1
 583 24 514 -18 410 -18 c 0
 183 -18 48 134 48 355 c 0
EndSplineSet
EndChar

StartChar: A
Encoding: 65 65 34
Width: 764
GlyphClass: 2
Flags: MW
HStem: 0 32<46 83 46 83 83 108.5 259 320 432 498 498 508 686 742> 212 32<259 471 259 482 248 471> 692 20G<384 409 409 409>
AnchorPoint: "Anchor-2" 396 0 basechar 0
AnchorPoint: "Anchor-1" 396 782 basechar 0
AnchorPoint: "Anchor-0" 396 762 basechar 0
LayerCount: 2
Fore
SplineSet
46 0 m 1
 46 32 l 1
 83 32 l 2
 134 32 157 73 169 105 c 2
 384 712 l 1
 409 712 l 1
 626 76 l 2
 640 41 659 32 686 32 c 2
 742 32 l 1
 742 0 l 1
 432 0 l 1
 432 32 l 1
 498 32 l 2
 518 32 533 44 533 57 c 0
 533 63 532 72 529 79 c 2
 482 212 l 1
 248 212 l 1
 224 145 l 2
 217 125 210 104 210 87 c 0
 210 65 218 32 259 32 c 2
 320 32 l 1
 320 0 l 1
 46 0 l 1
259 244 m 1
 471 244 l 1
 367 549 l 1
 259 244 l 1
EndSplineSet
Substitution2: "'c2sc' Capitals to Small Capitals lookup 1 subtable" a.sc
EndChar

StartChar: B
Encoding: 66 66 35
Width: 690
GlyphClass: 2
Flags: MW
HStem: 0 32<62 134 62 134 134 143.5 280 388 388 399> 356 32<253 384 384 388 253 384> 680 32<62 134 62 388 270.5 280 280 388 388 392>
VStem: 161 92<59 356 388 653> 524 88<501.5 582.5> 528 106<131 246 131 259>
AnchorPoint: "Anchor-2" 320 0 basechar 0
AnchorPoint: "Anchor-1" 320 782 basechar 0
AnchorPoint: "Anchor-0" 320 762 basechar 0
LayerCount: 2
Fore
SplineSet
253 388 m 1xf8
 384 388 l 2
 502 388 524 461 524 542 c 0
 524 623 465 680 392 680 c 2
 280 680 l 2
 261 680 253 672 253 653 c 2
 253 388 l 1xf8
62 0 m 1
 62 32 l 1
 134 32 l 2
 153 32 161 41 161 59 c 2
 161 653 l 2
 161 672 153 680 134 680 c 2
 62 680 l 1
 62 712 l 1
 388 712 l 2
 507 712 612 642 612 542 c 0xf8
 612 445 532 388 459 373 c 1
 459 369 l 1
 538 363 634 298 634 194 c 0xf4
 634 68 525 0 399 0 c 2
 62 0 l 1
253 59 m 2
 253 41 261 32 280 32 c 2
 388 32 l 2
 457 32 528 64 528 194 c 0xf4
 528 324 458 356 388 356 c 2
 253 356 l 1
 253 59 l 2
EndSplineSet
Substitution2: "'c2sc' Capitals to Small Capitals lookup 1 subtable" b.sc
EndChar

StartChar: C
Encoding: 67 67 36
Width: 670
GlyphClass: 2
Flags: MW
HStem: -18 32<289 435.5 289 462> 698 32<283.5 389.5> 702 20G<565 590 590 590>
VStem: 70 106<268 462> 566 28<412 412> 570 36<259 259>
AnchorPoint: "Anchor-2" 352 0 basechar 0
AnchorPoint: "Anchor-1" 348 782 basechar 0
AnchorPoint: "Anchor-0" 348 762 basechar 0
LayerCount: 2
Fore
SplineSet
348 730 m 0xd4
 447 730 510 645 527 645 c 0
 538 645 542 654 546 666 c 2
 565 722 l 1
 590 722 l 1
 594 412 l 1
 566 412 l 1xb8
 521 611 429 698 350 698 c 0
 217 698 176 566 176 362 c 0
 176 158 212 14 366 14 c 0
 505 14 562 139 570 259 c 1
 606 259 l 1
 602 165 558 -18 366 -18 c 0
 172 -18 70 174 70 362 c 0
 70 562 175 730 348 730 c 0xd4
EndSplineSet
Substitution2: "'c2sc' Capitals to Small Capitals lookup 1 subtable" c.sc
EndChar

StartChar: D
Encoding: 68 68 37
Width: 780
GlyphClass: 2
Flags: MW
HStem: 0 32<62 134 62 134 134 143.5 280 424 424 428> 680 32<62 134 62 428 270.5 280 280 424>
VStem: 161 92<59 653> 624 106<283 441>
AnchorPoint: "Anchor-2" 368 0 basechar 0
AnchorPoint: "Anchor-1" 368 782 basechar 0
AnchorPoint: "Anchor-0" 368 762 basechar 0
LayerCount: 2
Fore
SplineSet
253 59 m 2
 253 41 261 32 280 32 c 2
 424 32 l 2
 573 32 624 204 624 362 c 0
 624 520 573 680 424 680 c 2
 280 680 l 2
 261 680 253 672 253 653 c 2
 253 59 l 2
62 0 m 1
 62 32 l 1
 134 32 l 2
 153 32 161 41 161 59 c 2
 161 653 l 2
 161 672 153 680 134 680 c 2
 62 680 l 1
 62 712 l 1
 428 712 l 2
 594 712 730 570 730 362 c 0
 730 154 594 0 428 0 c 2
 62 0 l 1
EndSplineSet
Substitution2: "'c2sc' Capitals to Small Capitals lookup 1 subtable" d.sc
EndChar

StartChar: E
Encoding: 69 69 38
Width: 690
GlyphClass: 2
Flags: MW
HStem: 0 32<62 134 134 143.5 280 440 440 457.5 62 134> 352 32<253 330 253 330> 462 21G<599 599 599 624> 680 32<62 134 62 620 270.5 280 280 439>
VStem: 161 92<59 352 384 653> 426 26<189 218 518 547> 599 25<462 462>
AnchorPoint: "Anchor-2" 368 0 basechar 0
AnchorPoint: "Anchor-1" 368 782 basechar 0
AnchorPoint: "Anchor-0" 368 762 basechar 0
LayerCount: 2
Fore
SplineSet
599 462 m 1
 598 489 589 680 439 680 c 2
 280 680 l 2
 261 680 253 672 253 653 c 2
 253 384 l 1
 330 384 l 2
 407 384 426 489 426 547 c 1
 452 547 l 1
 452 189 l 1
 426 189 l 1
 426 247 407 352 330 352 c 2
 253 352 l 1
 253 59 l 2
 253 41 261 32 280 32 c 2
 440 32 l 2
 475 32 520 46 550 85 c 0
 596 147 607 276 607 276 c 1
 632 276 l 1
 620 0 l 1
 62 0 l 1
 62 32 l 1
 134 32 l 2
 153 32 161 41 161 59 c 2
 161 653 l 2
 161 672 153 680 134 680 c 2
 62 680 l 1
 62 712 l 1
 620 712 l 1
 624 462 l 1
 599 462 l 1
EndSplineSet
Substitution2: "'c2sc' Capitals to Small Capitals lookup 1 subtable" e.sc
EndChar

StartChar: F
Encoding: 70 70 39
Width: 676
GlyphClass: 2
Flags: MW
HStem: 0 32<62 134 134 143.5 280 368 62 134> 352 32<253 330 253 330> 462 21G<599 599 599 624> 680 32<62 134 62 620 270.5 280 280 439>
VStem: 161 92<59 65 65 352 384 653> 426 26<183 212 524 553> 599 25<462 462>
AnchorPoint: "Anchor-2" 240 0 basechar 0
AnchorPoint: "Anchor-1" 368 782 basechar 0
AnchorPoint: "Anchor-0" 368 762 basechar 0
LayerCount: 2
Fore
SplineSet
599 462 m 1
 598 489 589 680 439 680 c 2
 280 680 l 2
 261 680 253 672 253 653 c 2
 253 384 l 1
 330 384 l 2
 407 384 426 495 426 553 c 1
 452 553 l 1
 452 183 l 1
 426 183 l 1
 426 241 407 352 330 352 c 2
 253 352 l 1
 253 65 l 2
 253 47 261 32 280 32 c 2
 368 32 l 1
 368 0 l 1
 62 0 l 1
 62 32 l 1
 134 32 l 2
 153 32 161 41 161 59 c 2
 161 653 l 2
 161 672 153 680 134 680 c 2
 62 680 l 1
 62 712 l 1
 620 712 l 1
 624 462 l 1
 599 462 l 1
EndSplineSet
Substitution2: "'c2sc' Capitals to Small Capitals lookup 1 subtable" f.sc
EndChar

StartChar: G
Encoding: 71 71 40
Width: 720
GlyphClass: 2
Flags: MW
HStem: -18 32<278 386> 306 32<360 471 360 690 607.5 617 617 690> 698 32<278 389.5> 702 20G<565 590 590 590>
VStem: 70 106<257 458 254.5 462> 498 92<189 279 -13 288.5> 558 32<-13 78 78 89> 565 25<722 722>
AnchorPoint: "Anchor-2" 352 0 basechar 0
AnchorPoint: "Anchor-1" 348 782 basechar 0
AnchorPoint: "Anchor-0" 348 762 basechar 0
LayerCount: 2
Fore
SplineSet
348 730 m 0xea
 447 730 510 645 527 645 c 0
 538 645 542 654 546 666 c 2
 565 722 l 1
 590 722 l 1xd9
 594 412 l 1
 566 412 l 1
 521 611 429 698 350 698 c 0
 206 698 176 560 176 356 c 0
 176 153 206 14 350 14 c 0
 426 14 498 108 498 189 c 2
 498 279 l 2
 498 298 490 306 471 306 c 2
 360 306 l 1
 360 338 l 1
 690 338 l 1
 690 306 l 1
 617 306 l 2
 598 306 590 298 590 279 c 2xec
 590 -13 l 1
 558 -13 l 1
 558 78 l 2
 558 100 554 112 541 112 c 0
 525 112 514 95 506 82 c 0
 482 43 422 -18 350 -18 c 0
 174 -18 70 152 70 362 c 0
 70 562 175 730 348 730 c 0xea
EndSplineSet
Substitution2: "'salt' Stylistic Alternatives lookup 19 subtable" uniA77D
Substitution2: "'ss02' Style Set 2 lookup 12 subtable" uniA77D
AlternateSubs2: "'aalt' Access All Alternates lookup 2 subtable" uniA77D
Substitution2: "'c2sc' Capitals to Small Capitals lookup 1 subtable" g.sc
EndChar

StartChar: H
Encoding: 72 72 41
Width: 788
GlyphClass: 2
Flags: MW
HStem: 0 32<62 134 62 134 134 143.5 280 352 456 528 528 537.5 674 746> 358 32<253 555 253 555> 680 32<62 134 62 352 270.5 280 280 352 456 528 664.5 674 674 746>
VStem: 161 92<59 358 390 653> 555 92<59 358 358 358 390 653>
AnchorPoint: "Anchor-2" 404 0 basechar 0
AnchorPoint: "Anchor-1" 404 782 basechar 0
AnchorPoint: "Anchor-0" 404 762 basechar 0
LayerCount: 2
Fore
SplineSet
62 0 m 1
 62 32 l 1
 134 32 l 2
 153 32 161 41 161 59 c 2
 161 653 l 2
 161 671 153 680 134 680 c 2
 62 680 l 1
 62 712 l 1
 352 712 l 1
 352 680 l 1
 280 680 l 2
 261 680 253 671 253 653 c 2
 253 390 l 1
 555 390 l 1
 555 653 l 2
 555 671 547 680 528 680 c 2
 456 680 l 1
 456 712 l 1
 746 712 l 1
 746 680 l 1
 674 680 l 2
 655 680 647 671 647 653 c 2
 647 59 l 2
 647 41 655 32 674 32 c 2
 746 32 l 1
 746 0 l 1
 456 0 l 1
 456 32 l 1
 528 32 l 2
 547 32 555 41 555 59 c 2
 555 358 l 1
 253 358 l 1
 253 59 l 2
 253 41 261 32 280 32 c 2
 352 32 l 1
 352 0 l 1
 62 0 l 1
EndSplineSet
Substitution2: "'c2sc' Capitals to Small Capitals lookup 1 subtable" h.sc
EndChar

StartChar: I
Encoding: 73 73 42
Width: 394
GlyphClass: 2
Flags: MW
HStem: 0 32<62 134 62 134 134 143.5 280 352> 680 32<62 134 62 352 270.5 280 280 352>
VStem: 161 92<59 653>
AnchorPoint: "Anchor-2" 208 0 basechar 0
AnchorPoint: "Anchor-1" 207 782 basechar 0
AnchorPoint: "Anchor-0" 207 762 basechar 0
LayerCount: 2
Fore
SplineSet
62 0 m 1
 62 32 l 1
 134 32 l 2
 153 32 161 41 161 59 c 2
 161 653 l 2
 161 672 153 680 134 680 c 2
 62 680 l 1
 62 712 l 1
 352 712 l 1
 352 680 l 1
 280 680 l 2
 261 680 253 672 253 653 c 2
 253 59 l 2
 253 41 261 32 280 32 c 2
 352 32 l 1
 352 0 l 1
 62 0 l 1
EndSplineSet
Substitution2: "'c2sc' Capitals to Small Capitals lookup 1 subtable" i.sc
EndChar

StartChar: J
Encoding: 74 74 43
Width: 540
GlyphClass: 2
Flags: MW
HStem: -18 32<184.5 249 184.5 265> 680 32<218 290 218 508 426.5 436 436 508>
VStem: 44 60<79 107.5 60.5 157> 317 92<143 194 194 653>
AnchorPoint: "Anchor-2" 236 0 basechar 0
AnchorPoint: "Anchor-1" 362 782 basechar 0
AnchorPoint: "Anchor-0" 362 762 basechar 0
LayerCount: 2
Fore
SplineSet
184 168 m 0
 184 102 104 133 104 82 c 0
 104 39 155 14 214 14 c 0
 284 14 317 78 317 143 c 2
 317 653 l 2
 317 672 309 680 290 680 c 2
 218 680 l 1
 218 712 l 1
 508 712 l 1
 508 680 l 1
 436 680 l 2
 417 680 409 672 409 653 c 2
 409 194 l 2
 409 58 316 -18 214 -18 c 0
 118 -18 44 33 44 125 c 0
 44 189 94 218 127 218 c 0
 169 218 184 193 184 168 c 0
EndSplineSet
Substitution2: "'c2sc' Capitals to Small Capitals lookup 1 subtable" j.sc
EndChar

StartChar: K
Encoding: 75 75 44
Width: 756
GlyphClass: 2
Flags: MW
HStem: 0 32<62 134 62 134 134 143.5 280 347 412 479 479 486.5 681 714> 680 32<62 134 62 347 270.5 280 280 347 436 463 646 660 660 700>
VStem: 161 92<59 300 343 653>
AnchorPoint: "Anchor-2" 384 0 basechar 0
AnchorPoint: "Anchor-1" 384 782 basechar 0
AnchorPoint: "Anchor-0" 384 762 basechar 0
LayerCount: 2
Fore
SplineSet
62 0 m 1
 62 32 l 1
 134 32 l 2
 153 32 161 41 161 59 c 2
 161 653 l 2
 161 672 153 680 134 680 c 2
 62 680 l 1
 62 712 l 1
 347 712 l 1
 347 680 l 1
 280 680 l 2
 261 680 253 672 253 653 c 2
 253 343 l 1
 483 578 l 2
 500 596 508 613 508 638 c 0
 508 662 489 680 463 680 c 2
 436 680 l 1
 436 712 l 1
 700 712 l 1
 700 680 l 1
 660 680 l 2
 632 680 594 646 570 621 c 2
 402 451 l 1
 606 76 l 2
 623 44 640 32 681 32 c 2
 714 32 l 1
 714 0 l 1
 412 0 l 1
 412 32 l 1
 479 32 l 2
 494 32 506 42 506 53 c 0
 506 59 503 72 499 78 c 2
 336 384 l 1
 253 300 l 1
 253 59 l 2
 253 41 261 32 280 32 c 2
 347 32 l 1
 347 0 l 1
 62 0 l 1
EndSplineSet
Substitution2: "'c2sc' Capitals to Small Capitals lookup 1 subtable" k.sc
EndChar

StartChar: L
Encoding: 76 76 45
Width: 670
GlyphClass: 2
Flags: MW
HStem: 0 32<62 134 62 134 134 143.5 280 381 381 415> 680 32<62 134 62 368 270.5 280 280 368>
VStem: 161 92<59 653>
AnchorPoint: "Anchor-2" 368 0 basechar 0
AnchorPoint: "Anchor-1" 220 782 basechar 0
AnchorPoint: "Anchor-0" 220 762 basechar 0
LayerCount: 2
Fore
SplineSet
62 0 m 1
 62 32 l 1
 134 32 l 2
 153 32 161 41 161 59 c 2
 161 653 l 2
 161 672 153 680 134 680 c 2
 62 680 l 1
 62 712 l 1
 368 712 l 1
 368 680 l 1
 280 680 l 2
 261 680 253 672 253 653 c 2
 253 59 l 2
 253 41 261 32 280 32 c 2
 381 32 l 2
 449 32 510 63 539 126 c 0
 574 203 587 298 587 298 c 1
 612 298 l 1
 603 0 l 1
 62 0 l 1
EndSplineSet
Substitution2: "'c2sc' Capitals to Small Capitals lookup 1 subtable" l.sc
EndChar

StartChar: M
Encoding: 77 77 46
Width: 838
GlyphClass: 2
Flags: MW
HStem: -12 21G<398 422 398 398> 0 32<62 98 62 98 98 116.5 264 300 506 578 578 587.5 724 796> 680 32<62 134 62 274 714.5 724 724 796>
VStem: 161 40<112 622> 605 92<59 649 649 649>
AnchorPoint: "Anchor-2" 412 0 basechar 0
AnchorPoint: "Anchor-1" 436 782 basechar 0
AnchorPoint: "Anchor-0" 436 762 basechar 0
LayerCount: 2
Fore
SplineSet
62 0 m 1x78
 62 32 l 1
 98 32 l 2
 135 32 161 62 161 112 c 2
 161 653 l 2
 161 672 153 680 134 680 c 2
 62 680 l 1
 62 712 l 1
 274 712 l 1
 437 161 l 1
 589 712 l 1
 796 712 l 1
 796 680 l 1
 724 680 l 2
 705 680 697 672 697 653 c 2
 697 59 l 2
 697 41 705 32 724 32 c 2
 796 32 l 1
 796 0 l 1
 506 0 l 1
 506 32 l 1
 578 32 l 2x78
 597 32 605 41 605 59 c 2
 605 649 l 1
 422 -12 l 1
 398 -12 l 1xb8
 207 622 l 1
 201 622 l 1
 201 112 l 2
 201 62 227 32 264 32 c 2
 300 32 l 1
 300 0 l 1
 62 0 l 1x78
EndSplineSet
Substitution2: "'c2sc' Capitals to Small Capitals lookup 1 subtable" m.sc
EndChar

StartChar: N
Encoding: 78 78 47
Width: 770
GlyphClass: 2
Flags: MW
HStem: -18 21G<598 638 598 598> 0 32<62 98 62 98 98 117 264 300> 680 32<62 134 62 251 500 536 683.5 702 702 738>
VStem: 161 40<112 603> 598 40<-18 600 154 600 -18 625>
AnchorPoint: "Anchor-2" 416 0 basechar 0
AnchorPoint: "Anchor-1" 416 782 basechar 0
AnchorPoint: "Anchor-0" 416 762 basechar 0
LayerCount: 2
Fore
SplineSet
62 0 m 1x78
 62 32 l 1
 98 32 l 2x78
 136 32 161 62 161 112 c 2
 161 653 l 2
 160 672 153 680 134 680 c 2
 62 680 l 1
 62 712 l 1
 251 712 l 1
 598 154 l 1
 598 600 l 2
 598 650 573 680 536 680 c 2
 500 680 l 1
 500 712 l 1
 738 712 l 1
 738 680 l 1
 702 680 l 2
 665 680 638 650 638 600 c 2
 638 -18 l 1
 598 -18 l 1xb8
 205 603 l 1
 201 603 l 1
 201 112 l 2
 201 62 227 32 264 32 c 2
 300 32 l 1
 300 0 l 1
 62 0 l 1x78
EndSplineSet
Substitution2: "'c2sc' Capitals to Small Capitals lookup 1 subtable" n.sc
EndChar

StartChar: O
Encoding: 79 79 48
Width: 700
GlyphClass: 2
Flags: MW
HStem: -18 32<291 429 291 447> 698 32<291 429>
VStem: 70 106<261.5 450.5> 544 106<261.5 450.5 261.5 458>
AnchorPoint: "Anchor-2" 360 0 basechar 0
AnchorPoint: "Anchor-1" 360 782 basechar 0
AnchorPoint: "Anchor-0" 360 762 basechar 0
LayerCount: 2
Fore
SplineSet
70 356 m 0
 70 545 186 730 360 730 c 0
 534 730 650 545 650 356 c 0
 650 167 534 -18 360 -18 c 0
 186 -18 70 167 70 356 c 0
176 356 m 0
 176 152 222 14 360 14 c 0
 498 14 544 152 544 356 c 0
 544 560 498 698 360 698 c 0
 222 698 176 560 176 356 c 0
EndSplineSet
Substitution2: "'c2sc' Capitals to Small Capitals lookup 1 subtable" o.sc
EndChar

StartChar: P
Encoding: 80 80 49
Width: 680
GlyphClass: 2
Flags: MW
HStem: 0 32<62 134 62 134 134 143.5 280 368> 336 32<253 396 253 409> 680 32<62 134 62 396 270.5 280 280 396 396 409>
VStem: 161 92<59 336 368 653> 530 106<484.5 567.5>
AnchorPoint: "Anchor-1" 320 782 basechar 0
AnchorPoint: "Anchor-0" 320 762 basechar 0
LayerCount: 2
Fore
SplineSet
253 368 m 1
 409 368 l 2
 484 368 530 443 530 526 c 0
 530 609 484 680 409 680 c 2
 280 680 l 2
 261 680 253 672 253 653 c 2
 253 368 l 1
62 0 m 1
 62 32 l 1
 134 32 l 2
 153 32 161 41 161 59 c 2
 161 653 l 2
 161 672 153 680 134 680 c 2
 62 680 l 1
 62 712 l 1
 396 712 l 2
 538 712 636 636 636 526 c 0
 636 416 538 336 396 336 c 2
 253 336 l 1
 253 59 l 2
 253 41 259 32 280 32 c 2
 368 32 l 1
 368 0 l 1
 62 0 l 1
EndSplineSet
Substitution2: "'c2sc' Capitals to Small Capitals lookup 1 subtable" p.sc
EndChar

StartChar: Q
Encoding: 81 81 50
Width: 700
GlyphClass: 2
Flags: MW
HStem: -168 72<543.5 584.5> -18 32<331 369> 139 32<337 381> 698 32<291 429>
VStem: 70 106<307 454.5> 260 34<71 94.5 61 103.5> 544 106<290 454.5> 631 19<15.5 50>
AnchorPoint: "Anchor-2" 244 0 basechar 0
AnchorPoint: "Anchor-1" 360 782 basechar 0
AnchorPoint: "Anchor-0" 360 762 basechar 0
LayerCount: 2
Fore
SplineSet
176 360 m 0xfe
 176 254 186 113 264 46 c 1
 265 47 l 1
 262 54 260 67 260 75 c 0
 260 132 304 171 357 171 c 0
 425 171 458 119 473 63 c 1
 525 117 544 219 544 360 c 0
 544 564 498 698 360 698 c 0
 222 698 176 564 176 360 c 0xfe
294 74 m 0
 294 48 302 14 360 14 c 0
 379 14 402 18 419 25 c 1
 416 76 408 139 354 139 c 0
 320 139 294 115 294 74 c 0
70 360 m 0
 70 549 186 730 360 730 c 0
 534 730 650 549 650 360 c 0xfe
 650 220 595 85 485 19 c 1
 498 -40 520 -96 567 -96 c 0
 623 -96 631 -19 631 50 c 1
 650 50 l 1xfd
 650 -62 634 -168 535 -168 c 0
 446 -168 427 -83 422 -8 c 1
 404 -13 378 -18 360 -18 c 0
 185 -18 70 171 70 360 c 0
EndSplineSet
Substitution2: "'c2sc' Capitals to Small Capitals lookup 1 subtable" q.sc
EndChar

StartChar: R
Encoding: 82 82 51
Width: 716
GlyphClass: 2
Flags: MW
HStem: -12 64<570.5 631.5> 0 32<62 134 134 143.5 280 369 62 134> 368 32<253 350 350 362 253 350> 680 32<62 134 62 390 270.5 280 280 384>
VStem: 161 92<59 368 400 653> 505 106<508.5 593.5> 659 25<139 160>
AnchorPoint: "Anchor-2" 332 0 basechar 0
AnchorPoint: "Anchor-1" 332 782 basechar 0
AnchorPoint: "Anchor-0" 332 762 basechar 0
LayerCount: 2
Fore
SplineSet
422 376 m 1x7e
 626 338 525 52 616 52 c 0
 654 52 659 118 659 160 c 1
 684 160 l 1
 684 114 683 -12 580 -12 c 0xbe
 504 -12 463 24 460 212 c 0
 459 291 435 368 362 368 c 2
 253 368 l 1
 253 59 l 2
 253 41 259 32 280 32 c 2
 369 32 l 1
 369 0 l 1
 62 0 l 1
 62 32 l 1
 134 32 l 2
 153 32 161 41 161 59 c 2
 161 653 l 2
 161 672 153 680 134 680 c 2
 62 680 l 1
 62 712 l 1
 390 712 l 2
 503 712 611 677 611 552 c 0
 611 448 518 390 422 380 c 1
 422 376 l 1x7e
253 400 m 1
 350 400 l 2
 469 400 505 465 505 552 c 0
 505 635 457 680 384 680 c 2
 280 680 l 2
 261 680 253 672 253 653 c 2
 253 400 l 1
EndSplineSet
Substitution2: "'c2sc' Capitals to Small Capitals lookup 1 subtable" r.sc
EndChar

StartChar: S
Encoding: 83 83 52
Width: 620
GlyphClass: 2
Flags: MW
HStem: -18 32<299.5 411 294 427.5> -10 21G<95 118 95 95> 692 20G<494 518 518 518> 698 32<242.5 327>
VStem: 88 24<306 306> 90 60<528 605 528 611> 95 23<-10 -10> 494 24<712 712> 504 24<452 452> 508 60<138.5 186>
AnchorPoint: "Anchor-2" 324 0 basechar 0
AnchorPoint: "Anchor-1" 306 782 basechar 0
AnchorPoint: "Anchor-0" 292 762 basechar 0
LayerCount: 2
Fore
SplineSet
351 -18 m 0x9440
 248 -18 167 73 148 73 c 0
 131 73 125 52 122 30 c 2
 118 -10 l 1
 95 -10 l 1x4240
 88 306 l 1
 112 306 l 1x48
 125 156 237 14 351 14 c 0
 471 14 508 86 508 150 c 0
 508 222 458 252 396 277 c 2
 244 338 l 2
 136 381 90 450 90 542 c 0
 90 680 186 730 286 730 c 0x9440
 378 730 439 652 470 652 c 0
 483 652 488 662 490 676 c 2
 494 712 l 1
 518 712 l 1x25
 528 452 l 1
 504 452 l 1x2080
 472 598 376 698 278 698 c 0
 207 698 150 650 150 560 c 0
 150 496 188 468 241 447 c 2
 434 370 l 2
 529 332 568 255 568 188 c 0
 568 89 504 -18 351 -18 c 0x9440
EndSplineSet
Substitution2: "'c2sc' Capitals to Small Capitals lookup 1 subtable" s.sc
EndChar

StartChar: T
Encoding: 84 84 53
Width: 714
GlyphClass: 2
Flags: MW
HStem: 0 32<198 294 294 303 440 536 198 294> 683 29<232 258 258 294 430 440 440 476>
VStem: 72 28<426 426.5> 321 92<59 656> 634 28<426 426.5>
CounterMasks: 1 38
AnchorPoint: "Anchor-2" 368 0 basechar 0
AnchorPoint: "Anchor-1" 368 782 basechar 0
AnchorPoint: "Anchor-0" 368 762 basechar 0
LayerCount: 2
Fore
SplineSet
72 426 m 1
 80 712 l 1
 654 712 l 1
 662 426 l 1
 634 426 l 1
 634 427 632 554 585 619 c 0
 562 651 528 683 476 683 c 2
 440 683 l 2
 420 683 413 675 413 656 c 2
 413 59 l 2
 413 41 422 32 440 32 c 2
 536 32 l 1
 536 0 l 1
 198 0 l 1
 198 32 l 1
 294 32 l 2
 312 32 321 41 321 59 c 2
 321 656 l 2
 321 675 314 683 294 683 c 2
 258 683 l 2
 206 683 172 651 149 619 c 0
 102 554 100 427 100 426 c 1
 72 426 l 1
EndSplineSet
Substitution2: "'c2sc' Capitals to Small Capitals lookup 1 subtable" t.sc
EndChar

StartChar: U
Encoding: 85 85 54
Width: 780
GlyphClass: 2
Flags: MW
HStem: -18 32<359.5 479.5 359.5 489.5> 680 32<52 343 52 124 260.5 270 270 343 514 549 698.5 717 717 752>
VStem: 151 92<237 653> 613 40<198 208 208 599>
AnchorPoint: "Anchor-2" 412 0 basechar 0
AnchorPoint: "Anchor-1" 412 782 basechar 0
AnchorPoint: "Anchor-0" 412 762 basechar 0
LayerCount: 2
Fore
SplineSet
52 680 m 1
 52 712 l 1
 343 712 l 1
 343 680 l 1
 270 680 l 2
 251 680 243 672 243 653 c 2
 243 210 l 2
 243 87 305 14 414 14 c 0
 545 14 613 102 613 198 c 2
 613 599 l 2
 613 649 586 680 549 680 c 2
 514 680 l 1
 514 712 l 1
 752 712 l 1
 752 680 l 1
 717 680 l 2
 680 680 653 649 653 599 c 2
 653 208 l 2
 653 83 565 -18 414 -18 c 0
 224 -18 151 108 151 237 c 2
 151 653 l 2
 151 672 143 680 124 680 c 2
 52 680 l 1
EndSplineSet
Substitution2: "'c2sc' Capitals to Small Capitals lookup 1 subtable" u.sc
EndChar

StartChar: V
Encoding: 86 86 55
Width: 772
GlyphClass: 2
Flags: MW
HStem: -18 21G<399 424 399 399> 680 32<44 364 44 107 288.5 298 298 364 478 532 685.5 711 711 748>
AnchorPoint: "Anchor-2" 412 0 basechar 0
AnchorPoint: "Anchor-1" 420 782 basechar 0
AnchorPoint: "Anchor-0" 420 762 basechar 0
LayerCount: 2
Fore
SplineSet
44 680 m 1
 44 712 l 1
 364 712 l 1
 364 680 l 1
 298 680 l 2
 279 680 264 669 264 655 c 0
 264 649 265 641 268 633 c 2
 439 152 l 1
 571 558 l 2
 578 581 583 610 583 627 c 0
 583 649 573 680 532 680 c 2
 478 680 l 1
 478 712 l 1
 748 712 l 1
 748 680 l 1
 711 680 l 2
 660 680 639 642 627 607 c 2
 424 -18 l 1
 399 -18 l 1
 166 636 l 2
 153 672 134 680 107 680 c 2
 44 680 l 1
EndSplineSet
Substitution2: "'c2sc' Capitals to Small Capitals lookup 1 subtable" v.sc
EndChar

StartChar: W
Encoding: 87 87 56
Width: 1068
GlyphClass: 2
Flags: MW
HStem: -18 21G<349 374 349 349 696 721 696 696> 680 32<38 334 38 100 276.5 286 286 334 400 429 638 657 657 696 774 808 975.5 1001 1001 1044>
AnchorPoint: "Anchor-2" 546 0 basechar 0
AnchorPoint: "Anchor-1" 546 782 basechar 0
AnchorPoint: "Anchor-0" 546 762 basechar 0
LayerCount: 2
Fore
SplineSet
38 680 m 1
 38 712 l 1
 334 712 l 1
 334 680 l 1
 286 680 l 2
 267 680 252 669 252 655 c 0
 252 649 254 640 256 633 c 2
 389 173 l 1
 510 611 l 1
 500 643 l 2
 490 672 452 680 429 680 c 2
 400 680 l 1
 400 712 l 1
 696 712 l 1
 696 680 l 1
 657 680 l 2
 619 680 606 658 606 628 c 0
 606 614 608 608 612 597 c 2
 738 164 l 1
 862 558 l 2
 870 589 874 605 874 635 c 0
 874 660 850 680 808 680 c 2
 774 680 l 1
 774 712 l 1
 1044 712 l 1
 1044 680 l 1
 1001 680 l 2
 950 680 931 642 920 607 c 2
 721 -18 l 1
 696 -18 l 1
 532 538 l 1
 374 -18 l 1
 349 -18 l 1
 159 636 l 2
 146 672 127 680 100 680 c 2
 38 680 l 1
EndSplineSet
Substitution2: "'c2sc' Capitals to Small Capitals lookup 1 subtable" w.sc
EndChar

StartChar: X
Encoding: 88 88 57
Width: 750
GlyphClass: 2
Flags: MW
HStem: 0 32<46 77 46 77 77 101.5 262 316 414 474 474 484 662 724> 680 32<56 117 56 366 300.5 306 306 366 439 470 644 664 664 709>
AnchorPoint: "Anchor-2" 380 0 basechar 0
AnchorPoint: "Anchor-1" 396 782 basechar 0
AnchorPoint: "Anchor-0" 396 762 basechar 0
LayerCount: 2
Fore
SplineSet
46 0 m 1
 46 32 l 1
 77 32 l 2
 126 32 153 65 176 99 c 2
 345 352 l 1
 196 628 l 2
 179 659 165 680 117 680 c 2
 56 680 l 1
 56 712 l 1
 366 712 l 1
 366 680 l 1
 306 680 l 2
 295 680 288 675 288 665 c 0
 288 659 291 647 296 639 c 2
 404 439 l 1
 499 581 l 2
 511 599 519 620 519 638 c 0
 519 659 500 680 470 680 c 2
 439 680 l 1
 439 712 l 1
 709 712 l 1
 709 680 l 1
 664 680 l 2
 624 680 599 666 576 631 c 2
 423 401 l 1
 600 76 l 2
 619 43 635 32 662 32 c 2
 724 32 l 1
 724 0 l 1
 414 0 l 1
 414 32 l 1
 474 32 l 2
 494 32 501 42 501 53 c 0
 501 59 497 72 494 78 c 2
 366 314 l 1
 251 139 l 2
 236 116 226 94 226 76 c 0
 226 54 237 32 262 32 c 2
 316 32 l 1
 316 0 l 1
 46 0 l 1
EndSplineSet
Substitution2: "'c2sc' Capitals to Small Capitals lookup 1 subtable" x.sc
EndChar

StartChar: Y
Encoding: 89 89 58
Width: 728
GlyphClass: 2
Flags: MW
HStem: 0 32<224 320 320 329 466 562 224 320> 680 32<42 352 42 94 282 292 292 352 454 484 648.5 673 673 702>
VStem: 347 92<59 318 318 318>
AnchorPoint: "Anchor-2" 392 0 basechar 0
AnchorPoint: "Anchor-1" 392 782 basechar 0
AnchorPoint: "Anchor-0" 392 762 basechar 0
LayerCount: 2
Fore
SplineSet
42 680 m 1
 42 712 l 1
 352 712 l 1
 352 680 l 1
 292 680 l 2
 272 680 257 669 257 655 c 0
 257 649 257 640 262 633 c 2
 420 366 l 1
 522 562 l 2
 528 571 539 606 539 623 c 0
 539 651 524 680 484 680 c 2
 454 680 l 1
 454 712 l 1
 702 712 l 1
 702 680 l 1
 673 680 l 2
 624 680 600 639 582 607 c 2
 439 335 l 1
 439 59 l 2
 439 41 448 32 466 32 c 2
 562 32 l 1
 562 0 l 1
 224 0 l 1
 224 32 l 1
 320 32 l 2
 338 32 347 41 347 59 c 2
 347 318 l 1
 153 636 l 2
 133 669 121 680 94 680 c 2
 42 680 l 1
EndSplineSet
Substitution2: "'c2sc' Capitals to Small Capitals lookup 1 subtable" y.sc
EndChar

StartChar: Z
Encoding: 90 90 59
Width: 652
GlyphClass: 2
Flags: MW
HStem: 0 32<178 378 378 401 68 68> 456 21G<88 88 88 113> 680 32<269 294 294 482 112 588>
VStem: 88 25<456 456.5>
AnchorPoint: "Anchor-2" 360 0 basechar 0
AnchorPoint: "Anchor-1" 360 782 basechar 0
AnchorPoint: "Anchor-0" 360 762 basechar 0
LayerCount: 2
Fore
SplineSet
88 456 m 1
 112 712 l 1
 588 712 l 1
 588 680 l 1
 178 32 l 1
 378 32 l 2
 424 32 477 62 507 105 c 0
 563 185 581 302 581 302 c 1
 606 302 l 1
 590 0 l 1
 68 0 l 1
 68 32 l 1
 482 680 l 1
 294 680 l 2
 244 680 204 644 185 622 c 0
 132 560 113 457 113 456 c 1
 88 456 l 1
EndSplineSet
Substitution2: "'c2sc' Capitals to Small Capitals lookup 1 subtable" z.sc
EndChar

StartChar: bracketleft
Encoding: 91 91 60
Width: 380
GlyphClass: 2
Flags: MW
HStem: -198 26<306 310> 704 26<306 310>
VStem: 120 72<-132 -124 -124 656>
LayerCount: 2
Fore
SplineSet
120 -186 m 1
 120 718 l 1
 306 730 l 1
 310 704 l 1
 214 688 l 2
 199 686 192 672 192 656 c 2
 192 -124 l 2
 192 -140 199 -154 214 -156 c 2
 310 -172 l 1
 306 -198 l 1
 120 -186 l 1
EndSplineSet
EndChar

StartChar: backslash
Encoding: 92 92 61
Width: 450
GlyphClass: 2
Flags: MW
HStem: 710 20G<56 96 96 96>
LayerCount: 2
Fore
SplineSet
56 730 m 1
 96 730 l 1
 394 -198 l 1
 354 -198 l 1
 56 730 l 1
EndSplineSet
EndChar

StartChar: bracketright
Encoding: 93 93 62
Width: 380
GlyphClass: 2
Flags: MW
HStem: -198 26<70 74> 704 26<70 74>
VStem: 188 72<-124 656 656 664>
LayerCount: 2
Fore
SplineSet
70 -172 m 1
 166 -156 l 2
 181 -154 188 -140 188 -124 c 2
 188 656 l 2
 188 672 181 686 166 688 c 2
 70 704 l 1
 74 730 l 1
 260 718 l 1
 260 -186 l 1
 74 -198 l 1
 70 -172 l 1
EndSplineSet
EndChar

StartChar: asciicircum
Encoding: 94 94 63
Width: 580
GlyphClass: 2
Flags: MW
HStem: 680 20G<292 292>
LayerCount: 2
Fore
SplineSet
62 336 m 1
 292 700 l 1
 518 336 l 1
 470 336 l 1
 292 622 l 1
 110 336 l 1
 62 336 l 1
EndSplineSet
EndChar

StartChar: underscore
Encoding: 95 95 64
Width: 520
GlyphClass: 2
Flags: MW
HStem: -158 40<0 520 0 520>
LayerCount: 2
Fore
SplineSet
0 -118 m 1
 520 -118 l 1
 520 -158 l 1
 0 -158 l 1
 0 -118 l 1
EndSplineSet
EndChar

StartChar: grave
Encoding: 96 96 65
AltUni2: 0002cb.ffffffff.0 0002cb.ffffffff.0
Width: 440
GlyphClass: 2
Flags: MW
HStem: 508 176<95 232>
VStem: 76 169<519 662>
LayerCount: 2
Fore
SplineSet
76 653 m 0
 76 671 86 684 104 684 c 0
 122 684 135 677 153 652 c 2
 245 519 l 1
 232 508 l 1
 104 609 l 2
 88 621 76 635 76 653 c 0
EndSplineSet
EndChar

StartChar: a
Encoding: 97 97 66
Width: 494
GlyphClass: 2
Flags: MW
HStem: -12 36<180.5 209.5> 444 24<192.5 241.5>
VStem: 46 84<68 138.5 68 161> 78 47<381 389> 308 72<84 84 150 245 245 245 266 326> 458 18<105.5 130>
AnchorPoint: "Anchor-2" 228 0 basechar 0
AnchorPoint: "Anchor-1" 228 528 basechar 0
AnchorPoint: "Anchor-0" 228 508 basechar 0
LayerCount: 2
Fore
SplineSet
46 106 m 0xec
 46 216 148 236 216 249 c 2
 308 266 l 1
 308 351 l 2
 308 421 268 444 215 444 c 0
 170 444 125 417 125 387 c 0
 125 375 129 364 143 362 c 0
 166 356 180 346 180 323 c 0
 180 293 158 284 136 284 c 0
 110 284 78 304 78 350 c 0xdc
 78 428 152 468 218 468 c 0
 294 468 380 432 380 326 c 2
 380 80 l 2
 380 47 389 30 411 30 c 0
 447 30 458 81 458 130 c 1
 476 130 l 1
 476 66 463 -12 396 -12 c 0
 337 -12 310 26 308 84 c 1
 303 86 l 1
 288 50 243 -12 176 -12 c 0
 120 -12 46 8 46 106 c 0xec
130 103 m 0xec
 130 33 169 24 192 24 c 0
 260 24 290 101 308 150 c 1
 308 245 l 1
 221 226 l 2
 156 212 130 174 130 103 c 0xec
EndSplineSet
Substitution2: "'smcp' Lowercase to Small Capitals lookup 0 subtable" a.sc
EndChar

StartChar: b
Encoding: 98 98 67
Width: 512
GlyphClass: 2
Flags: MW
HStem: -12 28<261 310.5 246 336> 0 21G<96 114 96 96> 440 28<260 310.5> 688 24<22 168 22 74>
VStem: 96 72<136 182 182 274 382 666 666 674> 376 88<161 295>
AnchorPoint: "Anchor-2" 278 0 basechar 0
AnchorPoint: "Anchor-1" 308 528 basechar 0
LayerCount: 2
Fore
SplineSet
22 688 m 1x7c
 22 712 l 1
 168 712 l 1
 168 382 l 1
 172 381 l 1
 190 424 232 468 288 468 c 0
 384 468 464 364 464 228 c 0
 464 92 384 -12 288 -12 c 0xbc
 234 -12 186 28 160 86 c 1
 156 86 l 1
 114 0 l 1
 96 0 l 1
 96 666 l 2
 96 682 90 688 74 688 c 2
 22 688 l 1x7c
168 182 m 2
 168 90 215 16 277 16 c 0
 344 16 376 94 376 228 c 0
 376 362 344 440 277 440 c 0
 215 440 168 366 168 274 c 2
 168 182 l 2
EndSplineSet
Substitution2: "'smcp' Lowercase to Small Capitals lookup 0 subtable" b.sc
EndChar

StartChar: c
Encoding: 99 99 68
Width: 436
GlyphClass: 2
Flags: MW
HStem: -12 24<198 288.5 198 296.5> 444 24<198.5 280>
VStem: 48 88<164 292 164 294> 342 52<315 389> 378 24<156 156>
AnchorPoint: "Anchor-2" 230 0 basechar 0
AnchorPoint: "Anchor-1" 248 528 basechar 0
AnchorPoint: "Anchor-0" 248 508 basechar 0
LayerCount: 2
Fore
SplineSet
48 228 m 0xe8
 48 360 127 468 244 468 c 0
 341 468 394 397 394 337 c 0
 394 293 368 271 339 271 c 0
 312 271 292 291 292 315 c 0
 292 341 310 356 326 361 c 0
 338 365 342 371 342 379 c 0xf0
 342 399 316 444 244 444 c 0
 153 444 136 356 136 228 c 0
 136 100 152 12 244 12 c 0
 333 12 370 91 378 156 c 1
 402 156 l 1
 397 81 349 -12 244 -12 c 0
 126 -12 48 96 48 228 c 0xe8
EndSplineSet
Substitution2: "'smcp' Lowercase to Small Capitals lookup 0 subtable" c.sc
EndChar

StartChar: d
Encoding: 100 100 69
Width: 522
GlyphClass: 2
Flags: MW
HStem: -12 28<201.5 251> 0 24<438 490 438 490> 440 28<201.5 252 176 266> 688 24<250 322 250 416>
VStem: 48 88<161 295 161 296> 344 72<38 46 46 74 74 74 182 274 274 320 382 666 666 674>
AnchorPoint: "Anchor-2" 230 0 basechar 0
AnchorPoint: "Anchor-1" 204 528 basechar 0
LayerCount: 2
Fore
SplineSet
48 228 m 0xbc
 48 364 128 468 224 468 c 0
 280 468 322 424 340 381 c 1
 344 382 l 1
 344 666 l 2
 344 682 338 688 322 688 c 2
 250 688 l 1
 250 712 l 1
 416 712 l 1
 416 46 l 2
 416 30 422 24 438 24 c 2
 490 24 l 1
 490 0 l 1
 344 0 l 1x7c
 344 74 l 1
 340 75 l 1
 316 26 278 -12 224 -12 c 0
 128 -12 48 92 48 228 c 0xbc
136 228 m 0
 136 94 168 16 235 16 c 0xbc
 297 16 344 90 344 182 c 2
 344 274 l 2
 344 366 297 440 235 440 c 0
 168 440 136 362 136 228 c 0
EndSplineSet
Substitution2: "'smcp' Lowercase to Small Capitals lookup 0 subtable" d.sc
EndChar

StartChar: e
Encoding: 101 101 70
Width: 460
GlyphClass: 2
Flags: MW
HStem: -12 24<212 283.5 212 302.5> 230 24<136 330 136 385 136 330> 444 24<204 274.5>
VStem: 48 88<169 230 254 290> 330 86<254 296.5 240 300> 396 24<156 156>
AnchorPoint: "Anchor-2" 240 0 basechar 0
AnchorPoint: "Anchor-1" 240 528 basechar 0
AnchorPoint: "Anchor-0" 240 508 basechar 0
LayerCount: 2
Fore
SplineSet
48 226 m 0xf4
 48 354 128 468 242 468 c 0
 372 468 416 345 416 248 c 0xf8
 416 232 406 230 385 230 c 2
 136 230 l 1
 136 108 166 12 258 12 c 0
 309 12 380 48 396 156 c 1
 420 156 l 1
 412 62 351 -12 254 -12 c 0
 132 -12 48 74 48 226 c 0xf4
136 254 m 1
 330 254 l 1
 330 346 309 444 240 444 c 0
 168 444 136 350 136 254 c 1
EndSplineSet
Substitution2: "'smcp' Lowercase to Small Capitals lookup 0 subtable" e.sc
EndChar

StartChar: f
Encoding: 102 102 71
Width: 330
GlyphClass: 2
Flags: MW
HStem: 0 24<28 80 28 80 80 88 196 268> 428 28<28 102 28 102 174 268> 696 24<234.5 263>
VStem: 102 72<46 428 456 525 525 553> 304 54<601 677>
AnchorPoint: "Anchor-2" 152 0 basechar 0
AnchorPoint: "Anchor-1" 248 772 basechar 0
AnchorPoint: "Anchor-0" 248 752 basechar 0
LayerCount: 2
Fore
SplineSet
28 0 m 1
 28 24 l 1
 80 24 l 2
 96 24 102 30 102 46 c 2
 102 428 l 1
 28 428 l 1
 28 456 l 1
 102 456 l 1
 102 525 l 2
 102 667 184 720 255 720 c 0
 307 720 358 688 358 618 c 0
 358 584 340 562 311 562 c 0
 288 562 270 578 270 604 c 0
 270 616 276 632 288 640 c 0
 299 646 304 654 304 664 c 0
 304 690 273 696 253 696 c 0
 216 696 174 669 174 553 c 2
 174 456 l 1
 268 456 l 1
 268 428 l 1
 174 428 l 1
 174 46 l 2
 174 30 180 24 196 24 c 2
 268 24 l 1
 268 0 l 1
 28 0 l 1
EndSplineSet
Substitution2: "'smcp' Lowercase to Small Capitals lookup 0 subtable" f.sc
EndChar

StartChar: g
Encoding: 103 103 72
Width: 540
GlyphClass: 2
Flags: MW
HStem: -238 24<230 307 230 330> -26 68<231 254 254 334 334 365> 140 24<218 279 217 296> 444 24<217 279 438 453.5>
VStem: 52 44<-154 -97> 62 40<59 83.5> 70 80<260 348> 346 80<260 328 252 348> 448 36<-142 -85> 474 54<416.5 417.5 380.5 433.5>
AnchorPoint: "Anchor-1" 262 528 basechar 0
AnchorPoint: "Anchor-0" 262 508 basechar 0
LayerCount: 2
Fore
SplineSet
96 -120 m 0xf980
 96 -188 192 -214 268 -214 c 0
 346 -214 448 -192 448 -102 c 0
 448 -68 433 -26 365 -26 c 2
 254 -26 l 2
 184 -26 96 -45 96 -120 c 0xf980
150 304 m 0xf3
 150 216 186 164 248 164 c 0
 310 164 346 216 346 304 c 0
 346 392 310 444 248 444 c 0
 186 444 150 392 150 304 c 0xf3
166 40 m 0
 170 40 230 42 231 42 c 2
 334 42 l 2
 413 42 484 0 484 -94 c 0
 484 -190 392 -238 268 -238 c 0
 167 -238 52 -210 52 -122 c 0xf980
 52 -72 98 -31 150 -23 c 1
 150 -20 l 1xf3
 104 -10 62 11 62 54 c 0xf5
 62 113 117 141 171 150 c 1
 171 153 l 1
 126 172 70 216 70 304 c 0xf3
 70 410 157 468 248 468 c 0
 312 468 371 430 381 416 c 1
 394 453 426 468 450 468 c 0
 495 468 528 439 528 396 c 0
 528 365 512 342 486 342 c 0
 468 342 446 351 446 378 c 0
 446 412 474 405 474 428 c 0
 474 439 460 444 447 444 c 0
 422 444 401 420 398 396 c 1
 408 382 426 352 426 304 c 0
 426 200 344 140 248 140 c 0
 188 140 102 127 102 73 c 0xf540
 102 45 132 40 166 40 c 0
EndSplineSet
Substitution2: "'salt' Stylistic Alternatives lookup 19 subtable" uni1D79
Substitution2: "'ss02' Style Set 2 lookup 12 subtable" uni1D79
AlternateSubs2: "'aalt' Access All Alternates lookup 2 subtable" uni1D79
Substitution2: "'smcp' Lowercase to Small Capitals lookup 0 subtable" g.sc
EndChar

StartChar: h
Encoding: 104 104 73
Width: 544
GlyphClass: 2
Flags: MW
HStem: 0 24<28 84 28 84 84 92 200 242 312 354 354 362 470 512> 440 28<287.5 330> 688 24<28 84 28 178>
VStem: 106 72<46 254 374 666 666 674> 376 72<46 315>
AnchorPoint: "Anchor-2" 286 0 basechar 0
AnchorPoint: "Anchor-1" 264 772 basechar 0
AnchorPoint: "Anchor-0" 264 752 basechar 0
LayerCount: 2
Fore
SplineSet
28 0 m 1
 28 24 l 1
 84 24 l 2
 100 24 106 30 106 46 c 2
 106 666 l 2
 106 682 100 688 84 688 c 2
 28 688 l 1
 28 712 l 1
 178 712 l 1
 178 374 l 1
 182 373 l 1
 213 438 261 468 314 468 c 0
 421 468 448 385 448 315 c 2
 448 46 l 2
 448 30 454 24 470 24 c 2
 512 24 l 1
 512 0 l 1
 312 0 l 1
 312 24 l 1
 354 24 l 2
 370 24 376 30 376 46 c 2
 376 334 l 2
 376 382 361 440 299 440 c 0
 228 440 178 359 178 254 c 2
 178 46 l 2
 178 30 184 24 200 24 c 2
 242 24 l 1
 242 0 l 1
 28 0 l 1
EndSplineSet
Substitution2: "'smcp' Lowercase to Small Capitals lookup 0 subtable" h.sc
EndChar

StartChar: i
Encoding: 105 105 74
Width: 270
GlyphClass: 2
Flags: MW
HStem: 0 24<38 80 38 80 80 88 196 238> 432 24<38 80 38 174> 580 104<117 147>
VStem: 80 104<617 647> 102 72<46 410 410 418>
AnchorPoint: "Anchor-2" 138 0 basechar 0
LayerCount: 2
Fore
SplineSet
80 632 m 0x30
 80 662 102 684 132 684 c 0
 162 684 184 662 184 632 c 0
 184 602 162 580 132 580 c 0
 102 580 80 602 80 632 c 0x30
38 0 m 1xc8
 38 24 l 1
 80 24 l 2
 96 24 102 30 102 46 c 2
 102 410 l 2
 102 426 96 432 80 432 c 2
 38 432 l 1
 38 456 l 1
 174 456 l 1
 174 46 l 2
 174 30 180 24 196 24 c 2
 238 24 l 1
 238 0 l 1
 38 0 l 1xc8
EndSplineSet
Substitution2: "Single Substitution lookup 32 subtable" dotlessi
AlternateSubs2: "'aalt' Access All Alternates lookup 2 subtable" dotlessi
Substitution2: "'smcp' Lowercase to Small Capitals lookup 0 subtable" i.sc
EndChar

StartChar: j
Encoding: 106 106 75
Width: 320
GlyphClass: 2
Flags: MW
HStem: -238 24<57 85.5 57 100.5> 432 24<52 124 52 218> 580 104<161 191>
VStem: -38 54<-174 -166 -195 -126> 124 104<617 647> 146 72<-71 -43 -43 410 410 418>
LayerCount: 2
Fore
SplineSet
124 632 m 0x28
 124 662 146 684 176 684 c 0
 206 684 228 662 228 632 c 0
 228 602 206 580 176 580 c 0
 146 580 124 602 124 632 c 0x28
52 -114 m 0xd4
 52 -148 16 -150 16 -182 c 0
 16 -208 47 -214 67 -214 c 0
 104 -214 146 -187 146 -71 c 2
 146 410 l 2
 146 426 140 432 124 432 c 2
 52 432 l 1
 52 456 l 1
 218 456 l 1
 218 -43 l 2
 218 -185 136 -238 65 -238 c 0
 13 -238 -38 -204 -38 -144 c 0
 -38 -108 -14 -80 15 -80 c 0
 38 -80 52 -95 52 -114 c 0xd4
EndSplineSet
Substitution2: "Single Substitution lookup 32 subtable" dotlessj
AlternateSubs2: "'aalt' Access All Alternates lookup 2 subtable" dotlessj
Substitution2: "'smcp' Lowercase to Small Capitals lookup 0 subtable" j.sc
EndChar

StartChar: k
Encoding: 107 107 76
Width: 520
GlyphClass: 2
Flags: MW
HStem: 0 24<28 80 28 80 80 88 196 228 278 304 304 312 470 490> 432 24<268 294 268 472 421.5 440 440 472> 688 24<28 80 28 174>
VStem: 102 72<46 164 203 666 666 674>
AnchorPoint: "Anchor-2" 282 0 basechar 0
LayerCount: 2
Fore
SplineSet
28 0 m 1
 28 24 l 1
 80 24 l 2
 96 24 102 30 102 46 c 2
 102 666 l 2
 102 682 96 688 80 688 c 2
 28 688 l 1
 28 712 l 1
 174 712 l 1
 174 203 l 1
 310 369 l 2
 323 384 328 391 328 406 c 0
 328 424 313 432 294 432 c 2
 268 432 l 1
 268 456 l 1
 472 456 l 1
 472 432 l 1
 440 432 l 2
 403 432 379 414 344 371 c 2
 268 278 l 1
 424 56 l 2
 437 37 446 24 470 24 c 2
 490 24 l 1
 490 0 l 1
 278 0 l 1
 278 24 l 1
 304 24 l 2
 320 24 331 28 331 44 c 0
 331 60 326 68 318 80 c 2
 220 220 l 1
 174 164 l 1
 174 46 l 2
 174 30 180 24 196 24 c 2
 228 24 l 1
 228 0 l 1
 28 0 l 1
EndSplineSet
Substitution2: "'smcp' Lowercase to Small Capitals lookup 0 subtable" k.sc
EndChar

StartChar: l
Encoding: 108 108 77
Width: 270
GlyphClass: 2
Flags: MW
HStem: 0 24<28 80 28 80 80 88 196 248> 688 24<28 80 28 174>
VStem: 102 72<46 666 666 674>
AnchorPoint: "Anchor-2" 138 0 basechar 0
AnchorPoint: "Anchor-1" 152 772 basechar 0
AnchorPoint: "Anchor-0" 152 752 basechar 0
LayerCount: 2
Fore
SplineSet
28 0 m 1
 28 24 l 1
 80 24 l 2
 96 24 102 30 102 46 c 2
 102 666 l 2
 102 682 96 688 80 688 c 2
 28 688 l 1
 28 712 l 1
 174 712 l 1
 174 46 l 2
 174 30 180 24 196 24 c 2
 248 24 l 1
 248 0 l 1
 28 0 l 1
EndSplineSet
Substitution2: "'smcp' Lowercase to Small Capitals lookup 0 subtable" l.sc
EndChar

StartChar: m
Encoding: 109 109 78
Width: 794
GlyphClass: 2
Flags: MW
HStem: 0 24<38 80 38 80 80 88 196 238 300 342 342 350 458 500 562 604 604 612 720 762> 432 24<38 80 38 174> 440 28<279.5 316 529.5 578>
VStem: 102 72<46 260 376 410 410 418> 364 72<46 260> 626 72<46 304>
CounterMasks: 1 1c
AnchorPoint: "Anchor-2" 400 0 basechar 0
AnchorPoint: "Anchor-1" 400 528 basechar 0
AnchorPoint: "Anchor-0" 400 508 basechar 0
LayerCount: 2
Fore
SplineSet
38 0 m 1xbc
 38 24 l 1
 80 24 l 2
 96 24 102 30 102 46 c 2
 102 410 l 2
 102 426 96 432 80 432 c 2
 38 432 l 1
 38 456 l 1
 174 456 l 1xdc
 174 376 l 1
 178 375 l 1
 207 438 255 468 304 468 c 0
 392 468 420 403 430 360 c 1
 434 360 l 1
 448 405 495 468 564 468 c 0
 672 468 698 374 698 304 c 2
 698 46 l 2
 698 30 704 24 720 24 c 2
 762 24 l 1
 762 0 l 1
 562 0 l 1
 562 24 l 1
 604 24 l 2
 620 24 626 30 626 46 c 2
 626 339 l 2
 626 387 604 440 552 440 c 0
 492 440 436 365 436 260 c 2
 436 46 l 2
 436 30 442 24 458 24 c 2
 500 24 l 1
 500 0 l 1
 300 0 l 1
 300 24 l 1
 342 24 l 2
 358 24 364 30 364 46 c 2
 364 339 l 2
 364 387 342 440 290 440 c 0
 230 440 174 365 174 260 c 2
 174 46 l 2
 174 30 180 24 196 24 c 2
 238 24 l 1
 238 0 l 1
 38 0 l 1xbc
EndSplineSet
Substitution2: "'smcp' Lowercase to Small Capitals lookup 0 subtable" m.sc
EndChar

StartChar: n
Encoding: 110 110 79
Width: 540
GlyphClass: 2
Flags: MW
HStem: 0 24<38 80 38 80 80 88 196 238 308 350 350 358 466 508> 432 24<38 80 38 174> 440 28<283.5 326>
VStem: 102 72<46 254 374 410 410 418> 372 72<46 315>
AnchorPoint: "Anchor-2" 276 0 basechar 0
AnchorPoint: "Anchor-1" 276 528 basechar 0
AnchorPoint: "Anchor-0" 276 508 basechar 0
LayerCount: 2
Fore
SplineSet
38 0 m 1xb8
 38 24 l 1
 80 24 l 2
 96 24 102 30 102 46 c 2
 102 410 l 2
 102 426 96 432 80 432 c 2
 38 432 l 1
 38 456 l 1
 174 456 l 1xd8
 174 374 l 1
 178 373 l 1
 209 438 257 468 310 468 c 0
 417 468 444 385 444 315 c 2
 444 46 l 2
 444 30 450 24 466 24 c 2
 508 24 l 1
 508 0 l 1
 308 0 l 1
 308 24 l 1
 350 24 l 2
 366 24 372 30 372 46 c 2
 372 334 l 2
 372 382 357 440 295 440 c 0
 224 440 174 359 174 254 c 2
 174 46 l 2
 174 30 180 24 196 24 c 2
 238 24 l 1
 238 0 l 1
 38 0 l 1xb8
EndSplineSet
Substitution2: "'smcp' Lowercase to Small Capitals lookup 0 subtable" n.sc
EndChar

StartChar: o
Encoding: 111 111 80
Width: 496
GlyphClass: 2
Flags: MW
HStem: -12 24<206 290 206 304> 444 24<206 290>
VStem: 48 88<164 292 164 294> 360 88<164 292>
AnchorPoint: "Anchor-2" 248 0 basechar 0
AnchorPoint: "Anchor-1" 248 528 basechar 0
AnchorPoint: "Anchor-0" 248 508 basechar 0
LayerCount: 2
Fore
SplineSet
48 228 m 0
 48 360 136 468 248 468 c 0
 360 468 448 360 448 228 c 0
 448 96 360 -12 248 -12 c 0
 136 -12 48 96 48 228 c 0
136 228 m 0
 136 100 164 12 248 12 c 0
 332 12 360 100 360 228 c 0
 360 356 332 444 248 444 c 0
 164 444 136 356 136 228 c 0
EndSplineSet
Substitution2: "'smcp' Lowercase to Small Capitals lookup 0 subtable" o.sc
EndChar

StartChar: p
Encoding: 112 112 81
Width: 518
GlyphClass: 2
Flags: MW
HStem: -230 24<28 80 28 80 80 88 196 248> -12 28<266 316.5 252 342> 432 24<28 80 28 174> 440 28<267 316.5>
VStem: 102 72<-184 74 136 182 182 274 382 410 410 418> 382 88<161 295>
AnchorPoint: "Anchor-2" 288 456 basechar 0
AnchorPoint: "Anchor-1" 268 528 basechar 0
AnchorPoint: "Anchor-0" 268 508 basechar 0
LayerCount: 2
Fore
SplineSet
28 -230 m 1xdc
 28 -206 l 1
 80 -206 l 2
 96 -206 102 -200 102 -184 c 2
 102 410 l 2
 102 426 96 432 80 432 c 2
 28 432 l 1
 28 456 l 1
 174 456 l 1xec
 174 382 l 1
 178 381 l 1
 202 430 240 468 294 468 c 0
 390 468 470 364 470 228 c 0
 470 92 390 -12 294 -12 c 0
 238 -12 196 32 178 75 c 1
 174 74 l 1
 174 -184 l 2
 174 -200 180 -206 196 -206 c 2
 248 -206 l 1
 248 -230 l 1
 28 -230 l 1xdc
174 182 m 2
 174 90 221 16 283 16 c 0
 350 16 382 94 382 228 c 0
 382 362 350 440 283 440 c 0xdc
 221 440 174 366 174 274 c 2
 174 182 l 2
EndSplineSet
Substitution2: "'smcp' Lowercase to Small Capitals lookup 0 subtable" p.sc
EndChar

StartChar: q
Encoding: 113 113 82
Width: 502
GlyphClass: 2
Flags: MW
HStem: -230 24<270 322 322 330 438 490 270 322> -12 28<201.5 252> 436 20G<398 416 416 416> 440 28<201.5 251 176 266>
VStem: 48 88<161 295 161 296> 344 72<-184 74 74 74 182 274 274 320>
AnchorPoint: "Anchor-1" 240 528 basechar 0
AnchorPoint: "Anchor-0" 240 508 basechar 0
LayerCount: 2
Fore
SplineSet
48 228 m 0xec
 48 364 128 468 224 468 c 0xdc
 278 468 326 428 352 370 c 1
 356 370 l 1
 398 456 l 1
 416 456 l 1
 416 -184 l 2
 416 -200 422 -206 438 -206 c 2
 490 -206 l 1
 490 -230 l 1
 270 -230 l 1
 270 -206 l 1
 322 -206 l 2
 338 -206 344 -200 344 -184 c 2
 344 74 l 1
 340 75 l 1
 322 32 280 -12 224 -12 c 0
 128 -12 48 92 48 228 c 0xec
136 228 m 0
 136 94 168 16 235 16 c 0
 297 16 344 90 344 182 c 2
 344 274 l 2
 344 366 297 440 235 440 c 0
 168 440 136 362 136 228 c 0
EndSplineSet
Substitution2: "'smcp' Lowercase to Small Capitals lookup 0 subtable" q.sc
EndChar

StartChar: r
Encoding: 114 114 83
Width: 410
GlyphClass: 2
Flags: MW
HStem: 0 24<38 80 80 88 196 238 38 80> 432 24<38 80 38 174> 440 28<278.5 306.5>
VStem: 102 72<46 232 356 410 410 418> 328 62<407.5 412 373 425.5>
AnchorPoint: "Anchor-2" 152 0 basechar 0
AnchorPoint: "Anchor-1" 236 528 basechar 0
AnchorPoint: "Anchor-0" 236 508 basechar 0
LayerCount: 2
Fore
SplineSet
290 360 m 0xb8
 290 398 328 395 328 420 c 0
 328 431 317 440 296 440 c 0xb8
 232 440 174 337 174 232 c 2
 174 46 l 2
 174 30 180 24 196 24 c 2
 238 24 l 1
 238 0 l 1
 38 0 l 1
 38 24 l 1
 80 24 l 2
 96 24 102 30 102 46 c 2
 102 410 l 2
 102 426 96 432 80 432 c 2
 38 432 l 1
 38 456 l 1
 174 456 l 1xd8
 174 356 l 1
 178 355 l 1
 206 424 253 468 304 468 c 0
 354 468 390 438 390 386 c 0
 390 360 370 322 335 322 c 0
 311 322 290 335 290 360 c 0xb8
EndSplineSet
Substitution2: "'smcp' Lowercase to Small Capitals lookup 0 subtable" r.sc
EndChar

StartChar: s
Encoding: 115 115 84
Width: 434
GlyphClass: 2
Flags: MW
HStem: -12 24<222.5 286.5 222.5 292> 438 20G<332 352> 444 24<161 204>
VStem: 52 48<352.5 387.5> 60 18<-12 186> 334 18<306 458 306 458> 346 46<71 112.5>
AnchorPoint: "Anchor-2" 224 0 basechar 0
AnchorPoint: "Anchor-1" 206 528 basechar 0
AnchorPoint: "Anchor-0" 206 508 basechar 0
LayerCount: 2
Fore
SplineSet
254 -12 m 0xb2
 165 -12 146 42 115 42 c 0
 96 42 87 28 82 8 c 2
 78 -12 l 1
 60 -12 l 1
 60 186 l 1
 78 186 l 1xaa
 115 107 l 1
 145 54 190 12 255 12 c 0
 318 12 346 46 346 96 c 0
 346 129 317 153 282 167 c 2
 168 213 l 2
 104 239 52 276 52 345 c 0
 52 430 114 468 186 468 c 0xb2
 259 468 293 420 316 420 c 0
 326 420 330 427 332 438 c 2
 334 458 l 1
 352 458 l 1
 352 306 l 1
 334 306 l 1xd4
 320 341 l 2
 286 426 223 444 185 444 c 0
 137 444 100 419 100 374 c 0
 100 331 144 309 188 291 c 2
 296 246 l 2
 354 222 392 190 392 118 c 0
 392 24 330 -12 254 -12 c 0xb2
EndSplineSet
Substitution2: "'smcp' Lowercase to Small Capitals lookup 0 subtable" s.sc
EndChar

StartChar: t
Encoding: 116 116 85
Width: 350
GlyphClass: 2
Flags: MW
HStem: -12 44<205.5 256.5 205.5 260.5> 428 28<28 50 28 50 50 82 174 298>
VStem: 102 72<107 428> 146 28<612 648> 298 18<125.5 152 125.5 152>
AnchorPoint: "Anchor-2" 206 0 basechar 0
AnchorPoint: "Anchor-1" 166 704 basechar 0
AnchorPoint: "Anchor-0" 166 684 basechar 0
LayerCount: 2
Fore
SplineSet
28 428 m 1xe8
 28 456 l 1
 50 456 l 2
 114 456 146 541 146 612 c 2
 146 648 l 1
 174 648 l 1
 174 456 l 1xd8
 298 456 l 1
 298 428 l 1
 174 428 l 1
 174 102 l 2
 174 69 184 32 227 32 c 0
 286 32 298 94 298 152 c 1
 316 152 l 1
 316 99 315 -12 206 -12 c 0
 148 -12 102 32 102 107 c 2
 102 428 l 1
 28 428 l 1xe8
EndSplineSet
Substitution2: "'smcp' Lowercase to Small Capitals lookup 0 subtable" t.sc
EndChar

StartChar: u
Encoding: 117 117 86
Width: 534
GlyphClass: 2
Flags: MW
HStem: -12 28<214 256.5> 0 24<460 502 460 502> 432 24<32 168 32 74 302 344>
VStem: 96 72<141 410 410 418> 366 72<38 46 46 82 82 82 202 410 410 418>
AnchorPoint: "Anchor-2" 282 0 basechar 0
AnchorPoint: "Anchor-1" 282 528 basechar 0
AnchorPoint: "Anchor-0" 282 508 basechar 0
LayerCount: 2
Fore
SplineSet
32 432 m 1xb8
 32 456 l 1
 168 456 l 1
 168 122 l 2
 168 74 183 16 245 16 c 0xb8
 316 16 366 97 366 202 c 2
 366 410 l 2
 366 426 360 432 344 432 c 2
 302 432 l 1
 302 456 l 1
 438 456 l 1
 438 46 l 2
 438 30 444 24 460 24 c 2
 502 24 l 1
 502 0 l 1
 366 0 l 1x78
 366 82 l 1
 362 83 l 1
 331 18 283 -12 230 -12 c 0
 123 -12 96 71 96 141 c 2
 96 410 l 2
 96 426 90 432 74 432 c 2
 32 432 l 1xb8
EndSplineSet
Substitution2: "'smcp' Lowercase to Small Capitals lookup 0 subtable" u.sc
EndChar

StartChar: v
Encoding: 118 118 87
Width: 530
GlyphClass: 2
Flags: MW
HStem: -12 21G<264 282 264 264> 432 24<18 234 18 47 199 206 206 234 324 348 469.5 483 483 506>
AnchorPoint: "Anchor-2" 268 0 basechar 0
AnchorPoint: "Anchor-1" 268 528 basechar 0
AnchorPoint: "Anchor-0" 268 508 basechar 0
LayerCount: 2
Fore
SplineSet
18 432 m 1
 18 456 l 1
 234 456 l 1
 234 432 l 1
 206 432 l 2
 192 432 174 424 174 408 c 0
 174 402 174 391 180 375 c 2
 292 105 l 1
 373 342 l 2
 379 359 384 385 384 393 c 0
 384 415 370 432 348 432 c 2
 324 432 l 1
 324 456 l 1
 506 456 l 1
 506 432 l 1
 483 432 l 2
 456 432 428 415 414 373 c 2
 282 -12 l 1
 264 -12 l 1
 99 382 l 2
 88 409 78 432 47 432 c 2
 18 432 l 1
EndSplineSet
Substitution2: "'smcp' Lowercase to Small Capitals lookup 0 subtable" v.sc
EndChar

StartChar: w
Encoding: 119 119 88
Width: 776
GlyphClass: 2
Flags: MW
HStem: -12 21G<264 282 264 264 506 524 506 506> 432 24<18 41 18 234 193.5 203 203 234 290 320 452.5 466 466 506 570 594 715.5 729 729 752>
VStem: 367 70<355 407.5>
AnchorPoint: "Anchor-2" 384 0 basechar 0
AnchorPoint: "Anchor-1" 408 528 basechar 0
AnchorPoint: "Anchor-0" 408 508 basechar 0
LayerCount: 2
Fore
SplineSet
367 358 m 0
 367 359 360 432 320 432 c 2
 290 432 l 1
 290 456 l 1
 506 456 l 1
 506 432 l 1
 466 432 l 2
 439 432 437 413 437 402 c 0
 437 396 440 383 445 370 c 2
 538 105 l 1
 619 342 l 2
 625 359 630 385 630 393 c 0
 630 415 621 432 594 432 c 2
 570 432 l 1
 570 456 l 1
 752 456 l 1
 752 432 l 1
 729 432 l 2
 702 432 674 415 660 373 c 2
 524 -12 l 1
 506 -12 l 1
 386 316 l 1
 282 -12 l 1
 264 -12 l 1
 103 373 l 2
 87 411 77 432 41 432 c 2
 18 432 l 1
 18 456 l 1
 234 456 l 1
 234 432 l 1
 203 432 l 2
 184 432 174 420 174 404 c 0
 174 398 174 391 180 375 c 2
 292 105 l 1
 360 322 l 2
 363 332 367 352 367 358 c 0
EndSplineSet
Substitution2: "'smcp' Lowercase to Small Capitals lookup 0 subtable" w.sc
EndChar

StartChar: x
Encoding: 120 120 89
Width: 520
GlyphClass: 2
Flags: MW
HStem: 0 24<34 60 34 60 60 78 182 200 274 304 304 311.5 459 482> 432 24<38 62 38 236 205 212 212 236 294 318 429.5 443 443 468>
AnchorPoint: "Anchor-2" 260 0 basechar 0
AnchorPoint: "Anchor-1" 260 528 basechar 0
AnchorPoint: "Anchor-0" 260 508 basechar 0
LayerCount: 2
Fore
SplineSet
34 0 m 1
 34 24 l 1
 60 24 l 2
 96 24 117 55 133 79 c 2
 224 215 l 1
 102 410 l 2
 93 424 86 432 62 432 c 2
 38 432 l 1
 38 456 l 1
 236 456 l 1
 236 432 l 1
 212 432 l 2
 198 432 192 424 192 412 c 0
 192 404 195 396 198 391 c 2
 267 279 l 1
 333 377 l 2
 340 387 342 401 342 409 c 0
 342 425 328 432 318 432 c 2
 294 432 l 1
 294 456 l 1
 468 456 l 1
 468 432 l 1
 443 432 l 2
 416 432 396 421 374 388 c 2
 283 254 l 1
 410 50 l 2
 420 34 427 24 459 24 c 2
 482 24 l 1
 482 0 l 1
 274 0 l 1
 274 24 l 1
 304 24 l 2
 319 24 327 31 327 41 c 0
 327 46 323 57 320 62 c 2
 240 190 l 1
 172 89 l 2
 167 81 157 64 157 54 c 0
 157 34 166 24 182 24 c 2
 200 24 l 1
 200 0 l 1
 34 0 l 1
EndSplineSet
Substitution2: "'smcp' Lowercase to Small Capitals lookup 0 subtable" x.sc
EndChar

StartChar: y
Encoding: 121 121 90
Width: 530
GlyphClass: 2
Flags: MW
HStem: -238 32<135.5 166 135.5 168> 432 24<18 51 18 244 205 212 212 244 324 348 469.5 483 483 506>
VStem: 42 82<-194 -132.5>
AnchorPoint: "Anchor-2" 388 0 basechar 0
AnchorPoint: "Anchor-1" 296 528 basechar 0
AnchorPoint: "Anchor-0" 296 508 basechar 0
LayerCount: 2
Fore
SplineSet
138 -144 m 0
 138 -162 124 -178 124 -191 c 0
 124 -197 127 -206 144 -206 c 0
 188 -206 214 -164 225 -127 c 2
 252 -40 l 1
 110 373 l 2
 97 409 87 432 51 432 c 2
 18 432 l 1
 18 456 l 1
 244 456 l 1
 244 432 l 1
 212 432 l 2
 198 432 180 424 180 408 c 0
 180 402 180 391 186 375 c 2
 290 68 l 1
 373 342 l 2
 379 359 384 385 384 393 c 0
 384 415 370 432 348 432 c 2
 324 432 l 1
 324 456 l 1
 506 456 l 1
 506 432 l 1
 483 432 l 2
 456 432 428 415 414 373 c 2
 253 -139 l 2
 241 -179 202 -238 134 -238 c 0
 68 -238 42 -183 42 -150 c 0
 42 -115 67 -93 92 -93 c 0
 125 -93 138 -118 138 -144 c 0
EndSplineSet
Substitution2: "'smcp' Lowercase to Small Capitals lookup 0 subtable" y.sc
EndChar

StartChar: z
Encoding: 122 122 91
Width: 440
GlyphClass: 2
Flags: MW
HStem: 0 24<123 250 250 272 123 382> 432 24<155.5 178 178 300>
AnchorPoint: "Anchor-2" 220 0 basechar 0
AnchorPoint: "Anchor-1" 220 528 basechar 0
AnchorPoint: "Anchor-0" 220 508 basechar 0
LayerCount: 2
Fore
SplineSet
40 0 m 1
 40 26 l 1
 300 432 l 1
 178 432 l 2
 133 432 105 411 90 382 c 0
 66 334 60 280 60 280 c 1
 40 280 l 1
 46 456 l 1
 382 456 l 1
 382 424 l 1
 123 24 l 1
 250 24 l 2
 294 24 323 45 338 74 c 0
 362 122 368 176 368 176 c 1
 388 176 l 1
 382 0 l 1
 40 0 l 1
EndSplineSet
Substitution2: "'smcp' Lowercase to Small Capitals lookup 0 subtable" z.sc
EndChar

StartChar: braceleft
Encoding: 123 123 92
Width: 420
GlyphClass: 2
Flags: MW
HStem: -196 24<324 336> 258 18<104 136> 706 24<324 336>
VStem: 174 60<-69.5 -42 -106 8 576 603.5> 210 60<142 168 86 210 360 386>
CounterMasks: 1 e0
LayerCount: 2
Fore
SplineSet
104 258 m 1xe8
 104 276 l 1
 168 276 210 282 210 354 c 0xe8
 210 418 174 490 174 562 c 0
 174 645 229 699 324 730 c 1
 336 706 l 1
 282 687 234 668 234 612 c 0xf0
 234 540 270 478 270 406 c 0
 270 314 220 282 176 268 c 1
 176 266 l 1
 220 252 270 214 270 122 c 0xe8
 270 50 234 -6 234 -78 c 0
 234 -134 282 -153 336 -172 c 1
 324 -196 l 1
 229 -165 174 -111 174 -28 c 0xf0
 174 44 210 110 210 174 c 0
 210 246 168 258 104 258 c 1xe8
EndSplineSet
EndChar

StartChar: bar
Encoding: 124 124 93
Width: 284
GlyphClass: 2
Flags: MW
HStem: 710 20G<120 164 164 164>
VStem: 120 44<-198 730 -198 730>
LayerCount: 2
Fore
SplineSet
120 -198 m 1
 120 730 l 1
 164 730 l 1
 164 -198 l 1
 120 -198 l 1
EndSplineSet
EndChar

StartChar: braceright
Encoding: 125 125 94
Width: 420
GlyphClass: 2
Flags: MW
HStem: -196 24<84 96> 258 18<284 316> 706 24<84 96>
VStem: 150 60<148 174 360 386> 186 60<-69.5 -42 576 603.5>
CounterMasks: 1 e0
LayerCount: 2
Fore
SplineSet
84 -172 m 1xe8
 138 -153 186 -134 186 -78 c 0xe8
 186 -6 150 56 150 128 c 0
 150 220 200 252 244 266 c 1
 244 268 l 1
 200 282 150 314 150 406 c 0xf0
 150 478 186 540 186 612 c 0
 186 668 138 687 84 706 c 1
 96 730 l 1
 191 699 246 645 246 562 c 0xe8
 246 490 210 418 210 354 c 0
 210 282 252 276 316 276 c 1
 316 258 l 1
 252 258 210 252 210 180 c 0xf0
 210 116 246 44 246 -28 c 0
 246 -111 191 -165 96 -196 c 1
 84 -172 l 1xe8
EndSplineSet
EndChar

StartChar: asciitilde
Encoding: 126 126 95
Width: 660
GlyphClass: 2
Flags: MW
HStem: 170 62<492 536.5> 290 62<123.5 168.5>
VStem: 48 34<234 258.5 229 277> 578 34<263.5 288 245 293>
LayerCount: 2
Fore
SplineSet
498 170 m 0
 374 170 215 290 122 290 c 0
 102 290 82 273 82 244 c 0
 82 214 99 197 124 184 c 1
 112 163 l 1
 70 182 48 215 48 253 c 0
 48 301 85 352 162 352 c 0
 283 352 446 232 538 232 c 0
 558 232 578 249 578 278 c 0
 578 308 561 325 536 338 c 1
 548 359 l 1
 590 340 612 307 612 269 c 0
 612 221 575 170 498 170 c 0
EndSplineSet
EndChar

StartChar: exclamdown
Encoding: 161 161 97
Width: 280
GlyphClass: 2
Flags: MW
HStem: -238 21G<121.5 158.5> 344 124<122 158>
VStem: 78 124<-188 -122 388 424>
LayerCount: 2
Fore
SplineSet
78 406 m 0
 78 442 104 468 140 468 c 0
 176 468 202 442 202 406 c 0
 202 370 176 344 140 344 c 0
 104 344 78 370 78 406 c 0
78 -166 m 0
 78 -78 104 4 112 100 c 2
 128 300 l 1
 152 300 l 1
 168 100 l 2
 176 4 202 -78 202 -166 c 0
 202 -210 177 -238 140 -238 c 0
 103 -238 78 -210 78 -166 c 0
EndSplineSet
EndChar

StartChar: cent
Encoding: 162 162 98
Width: 580
GlyphClass: 2
Flags: MW
HStem: -11 26<290 290> 442 25<290 290>
VStem: 112 88<186.5 270.5 186.5 290.5> 290 32<-120 -12 -120 -11 -120 -11 15 442 442 442 467 576> 406 52<315 388.5> 442 24<156 156>
LayerCount: 2
Fore
SplineSet
200 228 m 0xf0
 200 145 218 35 290 15 c 1
 290 442 l 1
 221 425 200 313 200 228 c 0xf0
112 228 m 0
 112 353 187 456 290 467 c 1
 290 576 l 1
 322 576 l 1
 322 467 l 1
 410 461 458 394 458 337 c 0
 458 293 432 271 403 271 c 0
 376 271 356 291 356 315 c 0
 356 341 374 356 390 361 c 0
 402 365 406 371 406 379 c 0xf8
 406 398 383 438 322 443 c 1
 322 12 l 1
 405 17 434 93 442 156 c 1
 466 156 l 1xf4
 461 83 421 -7 322 -12 c 1
 322 -120 l 1
 290 -120 l 1
 290 -11 l 1
 174 2 112 104 112 228 c 0
EndSplineSet
EndChar

StartChar: sterling
Encoding: 163 163 99
Width: 720
GlyphClass: 2
Flags: MW
HStem: -18 66<470 522> -12 24<148 178.5 148 184> 122 24<136 169> 328 28<419 437 412 448> 362 28<185 202.5 174 209.5> 674 26<456 515>
VStem: 64 28<42 81 42 91> 266 91<419.5 502> 276 81<232 235.5> 565 62<556 633> 620 18<161 168>
LayerCount: 2
Fore
SplineSet
92 66 m 0x7e
 92 18 134 12 162 12 c 0
 195 12 231 41 251 79 c 1
 219 102 188 122 150 122 c 0
 116 122 92 96 92 66 c 0x7e
517 549 m 0
 517 602 565 588 565 623 c 0
 565 643 546 674 484 674 c 0
 428 674 357 626 357 502 c 2x7f40
 357 364 l 1x7e80
 383 359 406 356 418 356 c 0
 456 356 474 366 494 378 c 1
 508 356 l 1
 495 343 470 328 426 328 c 0
 412 328 386 332 357 337 c 1
 357 272 l 2
 357 192 339 138 309 95 c 1
 362 63 441 48 499 48 c 0
 564 48 608 117 620 168 c 1
 638 161 l 1
 623 85 585 -18 459 -18 c 0xbf20
 403 -18 332 24 279 57 c 1
 256 30 206 -12 162 -12 c 0
 112 -12 64 10 64 66 c 0
 64 116 116 146 156 146 c 0
 196 146 234 133 267 117 c 1
 275 152 276 171 276 216 c 0x7ea0
 276 255 272 326 269 353 c 1
 240 358 215 362 204 362 c 0
 166 362 152 354 128 340 c 1
 114 362 l 1
 130 376 152 390 196 390 c 0
 209 390 236 386 267 380 c 1
 266 394 266 409 266 430 c 0
 266 582 366 700 484 700 c 0
 597 700 627 612 627 577 c 0x7f40
 627 535 609 502 567 502 c 0
 540 502 517 521 517 549 c 0
EndSplineSet
EndChar

StartChar: currency
Encoding: 164 164 100
Width: 580
GlyphClass: 2
Flags: MW
HStem: 122 40<263.5 316.5> 524 40<263.5 316.5 263.5 342>
VStem: 70 40<315.5 368.5> 470 40<315.5 368.5 315.5 394>
LayerCount: 2
Fore
SplineSet
52 136 m 1
 119 203 l 1
 88 241 70 289 70 342 c 0
 70 395 89 444 120 482 c 1
 52 550 l 1
 83 581 l 1
 150 514 l 1
 188 545 237 564 290 564 c 0
 343 564 392 545 430 514 c 1
 497 581 l 1
 528 550 l 1
 460 482 l 1
 491 444 510 395 510 342 c 0
 510 289 492 241 461 203 c 1
 528 136 l 1
 497 105 l 1
 430 172 l 1
 392 141 343 122 290 122 c 0
 237 122 188 141 150 172 c 1
 83 105 l 1
 52 136 l 1
110 342 m 0
 110 238 186 162 290 162 c 0
 394 162 470 238 470 342 c 0
 470 446 394 524 290 524 c 0
 186 524 110 446 110 342 c 0
EndSplineSet
EndChar

StartChar: yen
Encoding: 165 165 101
Width: 580
GlyphClass: 2
Flags: MW
HStem: 0 32<136 210 210 219.5 354 428 136 210> 194 32<98 238 98 238 326 466> 298 32<98 232 98 238 98 232 326 466> 652 32<14 242 14 49 198 209 209 242 364 406 525 542 542 564>
VStem: 238 88<60 194 226 298>
LayerCount: 2
Fore
SplineSet
14 652 m 1
 14 684 l 1
 242 684 l 1
 242 652 l 1
 209 652 l 2
 187 652 182 644 182 635 c 0
 182 629 186 619 190 610 c 2
 311 364 l 1
 420 562 l 2
 425 571 440 599 440 617 c 0
 440 629 434 652 406 652 c 2
 364 652 l 1
 364 684 l 1
 564 684 l 1
 564 652 l 1
 542 652 l 2
 508 652 482 609 463 577 c 2
 326 330 l 1
 466 330 l 1
 466 298 l 1
 326 298 l 1
 326 226 l 1
 466 226 l 1
 466 194 l 1
 326 194 l 1
 326 60 l 2
 326 41 334 32 354 32 c 2
 428 32 l 1
 428 0 l 1
 136 0 l 1
 136 32 l 1
 210 32 l 2
 229 32 238 41 238 60 c 2
 238 194 l 1
 98 194 l 1
 98 226 l 1
 238 226 l 1
 238 298 l 1
 98 298 l 1
 98 330 l 1
 232 330 l 1
 93 613 l 2
 83 634 73 652 49 652 c 2
 14 652 l 1
EndSplineSet
EndChar

StartChar: brokenbar
Encoding: 166 166 102
Width: 284
GlyphClass: 2
Flags: MW
HStem: -168 21G<120 120 120 164> 710 20G<120 164 164 164>
VStem: 120 44<-168 192 -168 192 370 730>
LayerCount: 2
Fore
SplineSet
120 370 m 1
 120 730 l 1
 164 730 l 1
 164 370 l 1
 120 370 l 1
120 -168 m 1
 120 192 l 1
 164 192 l 1
 164 -168 l 1
 120 -168 l 1
EndSplineSet
EndChar

StartChar: section
Encoding: 167 167 103
Width: 640
GlyphClass: 2
Flags: MW
HStem: -186 24<256 292 256 308> 676 24<276 313>
VStem: 100 38<313 319> 150 58<566 605> 152 66<-142 -66> 350 66<582 656> 360 58<-95 -57> 432 38<193 207>
LayerCount: 2
Fore
SplineSet
138 326 m 0xe1
 138 300 144 266 180 234 c 2
 320 116 l 2
 330 107 336 101 342 94 c 1
 374 112 432 154 432 186 c 0
 432 228 418 256 388 280 c 2
 248 400 l 2
 240 406 234 413 228 420 c 1
 196 400 138 360 138 326 c 0xe1
254 -72 m 0
 254 -117 218 -105 218 -132 c 0
 218 -152 242 -162 270 -162 c 0
 314 -162 360 -134 360 -84 c 0xeb
 360 -30 338 4 294 42 c 2
 166 150 l 2
 124 188 100 224 100 286 c 0
 100 352 160 402 210 434 c 1
 172 468 150 512 150 562 c 0
 150 648 224 700 298 700 c 0
 358 700 416 656 416 600 c 0
 416 564 392 544 364 544 c 0
 336 544 314 564 314 588 c 0
 314 629 350 619 350 646 c 0
 350 666 328 676 298 676 c 0
 254 676 208 650 208 598 c 0xf5
 208 534 236 508 276 472 c 2
 404 362 l 2
 452 322 470 290 470 226 c 0
 470 160 410 112 360 80 c 1
 392 46 418 0 418 -52 c 0
 418 -138 346 -186 270 -186 c 0
 212 -186 152 -142 152 -84 c 0xeb
 152 -48 176 -30 206 -30 c 0
 232 -30 254 -50 254 -72 c 0
EndSplineSet
EndChar

StartChar: dieresis
Encoding: 168 168 104
Width: 440
GlyphClass: 2
Flags: MW
HStem: 548 96<113 139 301 327>
VStem: 78 96<583 609> 266 96<583 609>
LayerCount: 2
Fore
SplineSet
78 596 m 0
 78 622 100 644 126 644 c 0
 152 644 174 622 174 596 c 0
 174 570 152 548 126 548 c 0
 100 548 78 570 78 596 c 0
266 596 m 0
 266 622 288 644 314 644 c 0
 340 644 362 622 362 596 c 0
 362 570 340 548 314 548 c 0
 288 548 266 570 266 596 c 0
EndSplineSet
EndChar

StartChar: copyright
Encoding: 169 169 105
Width: 820
GlyphClass: 2
Flags: MW
HStem: -18 28<316 504 316 513> 110 24<377.5 467 377.5 474> 566 24<377.5 443 359.5 448> 702 28<316 504>
VStem: 48 28<262 450 262 459> 220 88<299 396 299 411> 548 18<420 584 576 584> 550 24<278 278> 744 28<262 450>
LayerCount: 2
Fore
SplineSet
220 338 m 0xfd80
 220 484 295 590 424 590 c 0
 462 590 497 564 506 557 c 0
 514 551 516 550 526 550 c 0
 538 550 548 568 548 584 c 1
 566 584 l 1
 566 420 l 1
 548 420 l 1xfe80
 540 500 472 566 424 566 c 0
 331 566 308 454 308 338 c 0
 308 260 333 134 422 134 c 0
 512 134 542 213 550 278 c 1
 574 278 l 1
 569 203 526 110 422 110 c 0
 287 110 220 228 220 338 c 0xfd80
48 356 m 0
 48 562 204 730 410 730 c 0
 616 730 772 562 772 356 c 0
 772 150 616 -18 410 -18 c 0
 204 -18 48 150 48 356 c 0
76 356 m 0
 76 168 222 10 410 10 c 0
 598 10 744 168 744 356 c 0
 744 544 598 702 410 702 c 0
 222 702 76 544 76 356 c 0
EndSplineSet
EndChar

StartChar: ordfeminine
Encoding: 170 170 106
Width: 380
GlyphClass: 2
Flags: MW
HStem: 362 24<70 310 70 310> 412 29<144 150.5> 590 49<109.5 112.5> 682 18<143 169.5>
VStem: 62 56<464.5 492.5 464.5 498> 68 34<645 650.5> 208 48<480 573 573 573 592 615> 306 14<484 497>
LayerCount: 2
Fore
SplineSet
102 651 m 0xf7
 102 639 107 639 112 639 c 0
 127 639 134 626 134 615 c 0
 134 598 119 590 106 590 c 0
 88 590 68 599 68 627 c 0xf7
 68 674 116 700 156 700 c 0
 202 700 256 681 256 615 c 2
 256 474 l 2
 256 454 261 437 279 437 c 0
 304 437 306 471 306 497 c 1
 320 497 l 1
 320 465 314 412 268 412 c 0
 230 412 211 435 209 462 c 1
 207 463 l 1
 196 446 169 412 132 412 c 0
 96 412 62 424 62 472 c 0xfb
 62 524 126 555 159 570 c 2
 208 592 l 1
 208 630 l 2
 208 671 182 682 157 682 c 0
 129 682 102 669 102 651 c 0xf7
118 478 m 0xfb
 118 451 137 441 151 441 c 0
 181 441 196 457 208 480 c 1
 208 573 l 1
 169 554 l 2
 132 536 118 507 118 478 c 0xfb
70 362 m 1
 70 386 l 1
 310 386 l 1
 310 362 l 1
 70 362 l 1
EndSplineSet
EndChar

StartChar: guillemotleft
Encoding: 171 171 107
Width: 480
GlyphClass: 2
Flags: MW
VStem: 108 56<192 264 192 276> 265 48<192 264 192 274>
LayerCount: 2
Fore
SplineSet
108 228 m 0
 108 324 174 396 224 428 c 1
 239 413 l 1
 190 369 164 300 164 228 c 0
 164 156 190 87 239 43 c 1
 224 28 l 1
 174 60 108 132 108 228 c 0
265 228 m 0
 265 320 322 385 352 410 c 1
 366 396 l 1
 331 352 313 300 313 228 c 0
 313 156 331 104 366 60 c 1
 352 46 l 1
 322 71 265 136 265 228 c 0
EndSplineSet
EndChar

StartChar: logicalnot
Encoding: 172 172 108
Width: 580
GlyphClass: 2
Flags: MW
HStem: 326 40<48 532 48 488>
VStem: 488 44<160 326 326 326>
LayerCount: 2
Fore
SplineSet
48 326 m 1
 48 366 l 1
 532 366 l 1
 532 160 l 1
 488 160 l 1
 488 326 l 1
 48 326 l 1
EndSplineSet
EndChar

StartChar: softhyphen
Encoding: 173 173 109
Width: 370
GlyphClass: 2
Flags: MW
HStem: 224 56<60 310 60 310>
VStem: 60 250<224 280 224 280>
LayerCount: 2
Fore
SplineSet
60 224 m 1
 60 280 l 1
 310 280 l 1
 310 224 l 1
 60 224 l 1
EndSplineSet
EndChar

StartChar: registered
Encoding: 174 174 110
Width: 820
GlyphClass: 2
Flags: MW
HStem: -18 28<316 504 316 513> 118 32<562.5 607.5> 130 24<200 242 242 250 358 402 200 242> 358 24<336 410 336 413> 562 24<200 242 200 428 350 358 358 412> 702 28<316 504>
VStem: 48 28<262 450 262 459> 264 72<176 358 382 540> 486 88<441.5 496.5> 636 18<231.5 244> 744 28<262 450>
LayerCount: 2
Fore
SplineSet
336 382 m 1x19c0
 413 382 l 2
 456 382 486 413 486 470 c 0
 486 523 466 562 412 562 c 2
 358 562 l 2
 342 562 336 556 336 540 c 2
 336 382 l 1x19c0
569 118 m 0x59c0
 421 118 534 358 410 358 c 2
 336 358 l 1
 336 176 l 2
 336 160 342 154 358 154 c 2
 402 154 l 1
 402 130 l 1
 200 130 l 1
 200 154 l 1
 242 154 l 2x39c0
 258 154 264 160 264 176 c 2
 264 540 l 2
 264 556 258 562 242 562 c 2
 200 562 l 1
 200 586 l 1
 428 586 l 2
 507 586 574 550 574 476 c 0
 574 397 494 372 462 368 c 1
 462 364 l 1
 597 328 531 150 594 150 c 0
 631 150 636 219 636 244 c 1
 654 244 l 1
 654 204 646 118 569 118 c 0x59c0
48 356 m 0x8620
 48 562 204 730 410 730 c 0
 616 730 772 562 772 356 c 0
 772 150 616 -18 410 -18 c 0
 204 -18 48 150 48 356 c 0x8620
76 356 m 0
 76 168 222 10 410 10 c 0
 598 10 744 168 744 356 c 0
 744 544 598 702 410 702 c 0
 222 702 76 544 76 356 c 0
EndSplineSet
EndChar

StartChar: macron
Encoding: 175 175 111
AltUni2: 0002c9.ffffffff.0 0002c9.ffffffff.0
Width: 440
GlyphClass: 2
Flags: MW
HStem: 572 40<90 350 90 350>
VStem: 90 260<572 612 572 612>
LayerCount: 2
Fore
SplineSet
90 572 m 1
 90 612 l 1
 350 612 l 1
 350 572 l 1
 90 572 l 1
EndSplineSet
EndChar

StartChar: degree
Encoding: 176 176 112
Width: 580
GlyphClass: 2
Flags: MW
HStem: 428 32<260 320 260 328> 668 32<260 320>
VStem: 154 32<534 594 534 602> 394 32<534 594>
LayerCount: 2
Fore
SplineSet
186 564 m 0
 186 504 230 460 290 460 c 0
 350 460 394 504 394 564 c 0
 394 624 350 668 290 668 c 0
 230 668 186 624 186 564 c 0
154 564 m 0
 154 640 214 700 290 700 c 0
 366 700 426 640 426 564 c 0
 426 488 366 428 290 428 c 0
 214 428 154 488 154 564 c 0
EndSplineSet
EndChar

StartChar: plusminus
Encoding: 177 177 113
Width: 940
GlyphClass: 2
Flags: MW
HStem: -40 40<48 884 48 884> 338 40<48 448 48 448 492 892>
VStem: 448 44<64 338 64 338 378 652>
LayerCount: 2
Fore
SplineSet
48 0 m 1
 884 0 l 1
 884 -40 l 1
 48 -40 l 1
 48 0 l 1
48 338 m 1
 48 378 l 1
 448 378 l 1
 448 652 l 1
 492 652 l 1
 492 378 l 1
 892 378 l 1
 892 338 l 1
 492 338 l 1
 492 64 l 1
 448 64 l 1
 448 338 l 1
 48 338 l 1
EndSplineSet
EndChar

StartChar: twosuperior
Encoding: 178 178 114
Width: 380
GlyphClass: 2
Flags: MW
HStem: 280 56<128 250 250 269.5 128 315> 676 24<144.5 194.5>
VStem: 52 32<591 623.5> 60 48 256 72<555 607> 310 14<405 405>
LayerCount: 2
Fore
SplineSet
84 615 m 0xe8
 84 567 148 601 148 549 c 0
 148 534 136 522 114 522 c 0
 79 522 52 549 52 593 c 0
 52 654 107 700 182 700 c 0
 267 700 328 657 328 583 c 0xe8
 328 527 272 483 227 453 c 2
 163 410 l 2
 132 389 108 370 108 350 c 0
 108 338 118 336 128 336 c 2
 250 336 l 2
 289 336 295 346 301 369 c 2
 310 405 l 1
 324 405 l 1
 315 280 l 1
 60 280 l 1xd4
 60 310 61 358 134 415 c 2
 197 464 l 2
 235 494 256 529 256 581 c 0
 256 633 225 676 164 676 c 0
 121 676 84 648 84 615 c 0xe8
EndSplineSet
Substitution2: "Single Substitution lookup 47 subtable" two.dnom
EndChar

StartChar: threesuperior
Encoding: 179 179 115
Width: 380
GlyphClass: 2
Flags: MW
HStem: 270 24<160.5 220 160.5 228.5> 342 66<124 130.5 103 138.5> 474 40<126.5 145> 488 18<182.5 218> 675 25<164.5 214.5>
VStem: 68 36<328 336.5 318.5 370> 78 44<624.5 636> 264 64<570 614.5> 274 72<367.5 422.5 353.5 425.5>
LayerCount: 2
Fore
SplineSet
122 636 m 0xdb
 122 613 161 620 161 588 c 0
 161 572 150 559 126 559 c 0
 99 559 78 583 78 606 c 0
 78 666 134 700 195 700 c 0
 275 700 328 658 328 594 c 0xdb
 328 541 280 509 244 501 c 1
 244 496 l 1
 283 490 346 454 346 391 c 0
 346 316 272 270 185 270 c 0
 119 270 68 300 68 356 c 0
 68 384 88 408 118 408 c 0
 143 408 159 396 159 374 c 0
 159 357 148 342 129 342 c 0
 119 342 104 341 104 332 c 0
 104 305 136 294 185 294 c 0
 255 294 274 344 274 391 c 0
 274 460 238 488 198 488 c 0xdc80
 167 488 158 474 132 474 c 0
 121 474 107 480 107 494 c 0
 107 508 120 514 132 514 c 0xec80
 161 514 154 506 200 506 c 0
 245 506 264 550 264 590 c 0
 264 639 241 675 188 675 c 0
 129 675 122 651 122 636 c 0xdb
EndSplineSet
Substitution2: "Single Substitution lookup 47 subtable" three.dnom
EndChar

StartChar: acute
Encoding: 180 180 116
AltUni2: 0002ca.ffffffff.0 0002ca.ffffffff.0
Width: 440
GlyphClass: 2
Flags: MW
HStem: 508 176<208 345>
VStem: 195 169<519 662>
LayerCount: 2
Fore
SplineSet
195 519 m 1
 287 652 l 2
 305 677 318 684 336 684 c 0
 354 684 364 671 364 653 c 0
 364 635 352 621 336 609 c 2
 208 508 l 1
 195 519 l 1
EndSplineSet
EndChar

StartChar: mu1
Encoding: 181 181 117
Width: 606
GlyphClass: 2
Flags: MW
HStem: -282 21G<106 139> -12 64<484 505.5 471.5 534> -10 44<225 294 211.5 303> 444 20G<92 136>
VStem: 62 96<352 381> 88 16 350 108<319 381.5 316 393> 556 22
LayerCount: 2
Fore
SplineSet
66 -183 m 0xb7
 66 -73 88 38 88 132 c 1xb7
 78 166 62 254 62 354 c 0
 62 408 70 464 114 464 c 0
 158 464 158 394 158 376 c 0
 158 328 124 162 120 125 c 1
 133 73 180 34 243 34 c 0xbb
 345 34 370 119 370 144 c 0
 370 188 350 282 350 356 c 0
 350 430 368 466 402 466 c 0
 442 466 458 415 458 348 c 0
 458 284 440 154 415 89 c 1
 431 64 460 52 483 52 c 0
 528 52 550 88 556 117 c 1
 565 106 578 86 578 62 c 0
 578 20 555 -12 513 -12 c 0xdb
 455 -12 424 39 410 67 c 1
 403 66 l 1
 384 34 342 -10 264 -10 c 0
 186 -10 133 41 109 89 c 1
 106 70 104 52 104 30 c 0
 104 -170 168 -173 168 -236 c 0
 168 -267 150 -282 128 -282 c 0
 84 -282 66 -222 66 -183 c 0xb7
EndSplineSet
EndChar

StartChar: paragraph
Encoding: 182 182 118
Width: 540
GlyphClass: 2
Flags: MW
HStem: -156 21G<232 270 232 232 370 408 370 370> 678 34<270 370 270 270 408 476 408 408>
VStem: 64 206<496 592> 232 38<-156 386 386 386 -156 712> 370 38<-156 678 -156 678>
LayerCount: 2
Fore
SplineSet
64 544 m 0xe8
 64 640 136 712 232 712 c 2
 476 712 l 1
 476 678 l 1
 408 678 l 1
 408 -156 l 1
 370 -156 l 1
 370 678 l 1
 270 678 l 1
 270 -156 l 1
 232 -156 l 1
 232 386 l 1xd8
 136 386 64 448 64 544 c 0xe8
EndSplineSet
EndChar

StartChar: periodcentered
Encoding: 183 183 119
Width: 280
GlyphClass: 2
Flags: MW
HStem: 254 124<122 158>
VStem: 78 124<298 334>
LayerCount: 2
Fore
SplineSet
78 316 m 0
 78 352 104 378 140 378 c 0
 176 378 202 352 202 316 c 0
 202 280 176 254 140 254 c 0
 104 254 78 280 78 316 c 0
EndSplineSet
Substitution2: "'locl' Localized Forms in Greek lookup 9 subtable" anoteleia
EndChar

StartChar: cedilla
Encoding: 184 184 120
Width: 440
GlyphClass: 2
Flags: MW
HStem: -212 18<204 249.5 204 263> -98 48<220 230 189 246> -20 20G<205 228 228 228>
VStem: 288 38<-143 -130>
LayerCount: 2
Fore
SplineSet
164 -122 m 0
 205 -122 177 -194 231 -194 c 0
 268 -194 288 -176 288 -146 c 0
 288 -114 269 -98 230 -98 c 2
 189 -98 l 1
 205 0 l 1
 228 0 l 1
 220 -50 l 1
 246 -50 l 2
 286 -50 326 -72 326 -122 c 0
 326 -164 302 -212 224 -212 c 0
 184 -212 140 -191 140 -149 c 0
 140 -135 150 -122 164 -122 c 0
EndSplineSet
EndChar

StartChar: onesuperior
Encoding: 185 185 121
Width: 380
GlyphClass: 2
Flags: MW
HStem: 278 24<84 147 84 147 147 153 245 308> 594 28<84 124 124 149.5 84 164 84 124> 670 20G<206 228 228 228>
VStem: 164 64<317 594 594 594> 206 22<690 690>
LayerCount: 2
Fore
SplineSet
84 278 m 1xf0
 84 302 l 1
 147 302 l 2
 159 302 164 306 164 317 c 2
 164 594 l 1xf0
 84 594 l 1
 84 622 l 1
 124 622 l 2
 175 622 199 661 206 690 c 1
 228 690 l 1xe8
 228 317 l 2
 228 306 233 302 245 302 c 2
 308 302 l 1
 308 278 l 1
 84 278 l 1xf0
EndSplineSet
Substitution2: "Single Substitution lookup 47 subtable" one.dnom
EndChar

StartChar: ordmasculine
Encoding: 186 186 122
Width: 380
GlyphClass: 2
Flags: MW
HStem: 362 24<70 310 70 310> 412 18<164 214.5 164 223> 682 18<164 214.5>
VStem: 70 56<528.5 583.5 528.5 595.5> 254 56<528.5 583.5>
LayerCount: 2
Fore
SplineSet
70 556 m 0
 70 635 122 700 189 700 c 0
 257 700 310 635 310 556 c 0
 310 477 257 412 189 412 c 0
 122 412 70 477 70 556 c 0
126 556 m 0
 126 501 139 430 189 430 c 0
 240 430 254 501 254 556 c 0
 254 611 240 682 189 682 c 0
 139 682 126 611 126 556 c 0
70 362 m 1
 70 386 l 1
 310 386 l 1
 310 362 l 1
 70 362 l 1
EndSplineSet
EndChar

StartChar: guillemotright
Encoding: 187 187 123
Width: 480
GlyphClass: 2
Flags: MW
VStem: 167 48<192 264> 316 56<192 264>
LayerCount: 2
Fore
SplineSet
114 60 m 1
 149 104 167 156 167 228 c 0
 167 300 149 352 114 396 c 1
 128 410 l 1
 158 385 215 320 215 228 c 0
 215 136 158 71 128 46 c 1
 114 60 l 1
241 43 m 1
 290 87 316 156 316 228 c 0
 316 300 290 369 241 413 c 1
 256 428 l 1
 306 396 372 324 372 228 c 0
 372 132 306 60 256 28 c 1
 241 43 l 1
EndSplineSet
EndChar

StartChar: onequarter
Encoding: 188 188 124
Width: 820
GlyphClass: 2
Flags: MW
HStem: -18 21G<178 178 178 214> -2 24<566 621 621 627 719 774 566 621> 118 28<484 484 512 638 702 774> 278 24<84 147 84 147 147 153 245 308> 390 20G<650 702 702 702> 594 28<84 124 124 149.5 84 164 84 124> 670 20G<206 228 228 228> 680 20G<606 642 642 642>
VStem: 164 64<317 594 594 594> 206 22<690 690> 638 64<37 118 146 349 349 349>
LayerCount: 2
Fore
SplineSet
484 118 m 1x6820
 484 146 l 1
 650 410 l 1
 702 410 l 1
 702 146 l 1
 774 146 l 1
 774 118 l 1
 702 118 l 1
 702 37 l 2
 702 26 707 22 719 22 c 2
 774 22 l 1
 774 -2 l 1
 566 -2 l 1
 566 22 l 1
 621 22 l 2
 633 22 638 26 638 37 c 2
 638 118 l 1
 484 118 l 1x6820
512 146 m 1
 638 146 l 1
 638 349 l 1
 512 146 l 1
84 278 m 1x1680
 84 302 l 1
 147 302 l 2
 159 302 164 306 164 317 c 2
 164 594 l 1x1680
 84 594 l 1
 84 622 l 1
 124 622 l 2
 175 622 199 661 206 690 c 1
 228 690 l 1x1640
 228 317 l 2
 228 306 233 302 245 302 c 2
 308 302 l 1
 308 278 l 1
 84 278 l 1x1680
178 -18 m 1x81
 606 700 l 1
 642 700 l 1
 214 -18 l 1
 178 -18 l 1x81
EndSplineSet
EndChar

StartChar: onehalf
Encoding: 189 189 125
Width: 820
GlyphClass: 2
Flags: MW
HStem: -18 21G<178 178 178 214> 0 56<568 690 690 709.5 568 755> 278 24<84 147 84 147 147 153 245 308> 396 24<584.5 634.5> 594 28<84 124 124 149.5 84 164 84 124> 670 20G<206 228 228 228> 680 20G<606 642 642 642>
VStem: 164 64<317 594 594 594> 206 22<690 690> 492 32<311 343.5> 500 48 696 72<275 327> 750 14<125 125>
LayerCount: 2
Fore
SplineSet
524 335 m 0x5050
 524 287 588 321 588 269 c 0
 588 254 576 242 554 242 c 0
 519 242 492 269 492 313 c 0
 492 374 547 420 622 420 c 0
 707 420 768 377 768 303 c 0x5050
 768 247 712 203 667 173 c 2
 603 130 l 2
 572 109 548 90 548 70 c 0
 548 58 558 56 568 56 c 2
 690 56 l 2
 729 56 735 66 741 89 c 2
 750 125 l 1
 764 125 l 1
 755 0 l 1
 500 0 l 1x5028
 500 30 501 78 574 135 c 2
 637 184 l 2
 675 214 696 249 696 301 c 0
 696 353 665 396 604 396 c 0
 561 396 524 368 524 335 c 0x5050
84 278 m 1x2d
 84 302 l 1
 147 302 l 2
 159 302 164 306 164 317 c 2
 164 594 l 1x2d
 84 594 l 1
 84 622 l 1
 124 622 l 2
 175 622 199 661 206 690 c 1
 228 690 l 1x2c80
 228 317 l 2
 228 306 233 302 245 302 c 2
 308 302 l 1
 308 278 l 1
 84 278 l 1x2d
178 -18 m 1x82
 606 700 l 1
 642 700 l 1
 214 -18 l 1
 178 -18 l 1x82
EndSplineSet
EndChar

StartChar: threequarters
Encoding: 190 190 126
Width: 820
GlyphClass: 2
Flags: MW
HStem: -18 21G<178 178 178 214> -2 24<566 621 621 627 719 774 566 621> 118 28<484 484 512 638 702 774> 270 24<160.5 220 160.5 228.5> 342 66<124 130.5 103 138.5> 390 20G<650 702 702 702> 474 40<126.5 145> 488 18<182.5 218> 675 25<164.5 214.5> 680 20G<164.5 235 606 642 642 642>
VStem: 68 36<328 336.5 318.5 370> 78 44<624.5 636> 264 64<570 614.5> 274 72<367.5 422.5 353.5 425.5> 638 64<37 118 146 349 349 349>
LayerCount: 2
Fore
SplineSet
484 118 m 1x6402
 484 146 l 1
 650 410 l 1
 702 410 l 1
 702 146 l 1
 774 146 l 1
 774 118 l 1
 702 118 l 1
 702 37 l 2
 702 26 707 22 719 22 c 2
 774 22 l 1
 774 -2 l 1
 566 -2 l 1
 566 22 l 1
 621 22 l 2
 633 22 638 26 638 37 c 2
 638 118 l 1
 484 118 l 1x6402
512 146 m 1
 638 146 l 1
 638 349 l 1
 512 146 l 1
122 636 m 0x1998
 122 613 161 620 161 588 c 0
 161 572 150 559 126 559 c 0
 99 559 78 583 78 606 c 0
 78 666 134 700 195 700 c 0
 275 700 328 658 328 594 c 0x1998
 328 541 280 509 244 501 c 1
 244 496 l 1
 283 490 346 454 346 391 c 0
 346 316 272 270 185 270 c 0
 119 270 68 300 68 356 c 0
 68 384 88 408 118 408 c 0
 143 408 159 396 159 374 c 0
 159 357 148 342 129 342 c 0
 119 342 104 341 104 332 c 0
 104 305 136 294 185 294 c 0
 255 294 274 344 274 391 c 0
 274 460 238 488 198 488 c 0x19a4
 167 488 158 474 132 474 c 0
 121 474 107 480 107 494 c 0
 107 508 120 514 132 514 c 0x1aa4
 161 514 154 506 200 506 c 0
 245 506 264 550 264 590 c 0
 264 639 241 675 188 675 c 0
 129 675 122 651 122 636 c 0x1998
178 -18 m 1x8040
 606 700 l 1
 642 700 l 1
 214 -18 l 1
 178 -18 l 1x8040
EndSplineSet
EndChar

StartChar: questiondown
Encoding: 191 191 127
Width: 470
GlyphClass: 2
Flags: MW
HStem: -238 30<196.5 268 196.5 270> -97 85<330 344> 272 30<196.5 229> 344 124<196 232>
VStem: 34 88<-118.5 -59 -118.5 -7.5> 130 24<203 226 203 235.5> 152 124<388 424> 270 34<199.5 242> 354 44<-140 -118.5>
LayerCount: 2
Fore
SplineSet
152 406 m 0xfa80
 152 442 178 468 214 468 c 0
 250 468 276 442 276 406 c 0
 276 370 250 344 214 344 c 0
 178 344 152 370 152 406 c 0xfa80
338 -97 m 0
 322 -97 332 -100 310 -100 c 0
 287 -100 274 -82 274 -60 c 0
 274 -34 291 -12 329 -12 c 0
 364 -12 398 -43 398 -99 c 0
 398 -181 310 -238 230 -238 c 0
 128 -238 34 -186 34 -86 c 0
 34 71 270 107 270 224 c 0
 270 260 244 272 214 272 c 0
 179 272 154 246 154 206 c 0
 154 200 154 190 159 180 c 1
 141 172 l 1
 136 180 130 191 130 207 c 0
 130 264 176 302 214 302 c 0
 263 302 304 275 304 221 c 0xfd80
 304 178 286 154 256 122 c 2
 180 40 l 2
 145 2 122 -32 122 -86 c 0
 122 -151 156 -208 237 -208 c 0
 299 -208 354 -170 354 -130 c 0
 354 -107 350 -97 338 -97 c 0
EndSplineSet
EndChar

StartChar: Agrave
Encoding: 192 192 128
Width: 764
GlyphClass: 2
Flags: MW
HStem: 0 32<46 83 46 83 83 108.5 259 320 432 498 498 508 686 742> 212 32<259 471 259 482 248 471> 692 20G<384 409 409 409> 762 176<271 408>
VStem: 252 169<773 916>
LayerCount: 2
Fore
SplineSet
252 907 m 0
 252 925 262 938 280 938 c 0
 298 938 311 931 329 906 c 2
 421 773 l 1
 408 762 l 1
 280 863 l 2
 264 875 252 889 252 907 c 0
46 0 m 1
 46 32 l 1
 83 32 l 2
 134 32 157 73 169 105 c 2
 384 712 l 1
 409 712 l 1
 626 76 l 2
 640 41 659 32 686 32 c 2
 742 32 l 1
 742 0 l 1
 432 0 l 1
 432 32 l 1
 498 32 l 2
 518 32 533 44 533 57 c 0
 533 63 532 72 529 79 c 2
 482 212 l 1
 248 212 l 1
 224 145 l 2
 217 125 210 104 210 87 c 0
 210 65 218 32 259 32 c 2
 320 32 l 1
 320 0 l 1
 46 0 l 1
259 244 m 1
 471 244 l 1
 367 549 l 1
 259 244 l 1
EndSplineSet
Substitution2: "'c2sc' Capitals to Small Capitals lookup 1 subtable" agrave.sc
EndChar

StartChar: Aacute
Encoding: 193 193 129
Width: 764
GlyphClass: 2
Flags: MW
HStem: 0 32<46 83 46 83 83 108.5 259 320 432 498 498 508 686 742> 212 32<259 471 259 482 248 471> 692 20G<384 409 409 409> 762 176<384 521>
VStem: 371 169<773 916>
LayerCount: 2
Fore
SplineSet
371 773 m 1
 463 906 l 2
 481 931 494 938 512 938 c 0
 530 938 540 925 540 907 c 0
 540 889 528 875 512 863 c 2
 384 762 l 1
 371 773 l 1
46 0 m 1
 46 32 l 1
 83 32 l 2
 134 32 157 73 169 105 c 2
 384 712 l 1
 409 712 l 1
 626 76 l 2
 640 41 659 32 686 32 c 2
 742 32 l 1
 742 0 l 1
 432 0 l 1
 432 32 l 1
 498 32 l 2
 518 32 533 44 533 57 c 0
 533 63 532 72 529 79 c 2
 482 212 l 1
 248 212 l 1
 224 145 l 2
 217 125 210 104 210 87 c 0
 210 65 218 32 259 32 c 2
 320 32 l 1
 320 0 l 1
 46 0 l 1
259 244 m 1
 471 244 l 1
 367 549 l 1
 259 244 l 1
EndSplineSet
Substitution2: "'c2sc' Capitals to Small Capitals lookup 1 subtable" aacute.sc
EndChar

StartChar: Acircumflex
Encoding: 194 194 130
Width: 764
GlyphClass: 2
Flags: MW
HStem: 0 32<46 83 46 83 83 108.5 259 320 432 498 498 508 686 742> 212 32<259 471 259 482 248 471> 692 20G<384 409 409 409> 762 158<248 416 376 544>
VStem: 238 316<778 778>
LayerCount: 2
Fore
SplineSet
238 778 m 1
 308 818 350 870 376 920 c 1
 416 920 l 1
 442 870 484 818 554 778 c 1
 544 762 l 1
 510 774 438 820 396 858 c 1
 354 820 282 774 248 762 c 1
 238 778 l 1
46 0 m 1
 46 32 l 1
 83 32 l 2
 134 32 157 73 169 105 c 2
 384 712 l 1
 409 712 l 1
 626 76 l 2
 640 41 659 32 686 32 c 2
 742 32 l 1
 742 0 l 1
 432 0 l 1
 432 32 l 1
 498 32 l 2
 518 32 533 44 533 57 c 0
 533 63 532 72 529 79 c 2
 482 212 l 1
 248 212 l 1
 224 145 l 2
 217 125 210 104 210 87 c 0
 210 65 218 32 259 32 c 2
 320 32 l 1
 320 0 l 1
 46 0 l 1
259 244 m 1
 471 244 l 1
 367 549 l 1
 259 244 l 1
EndSplineSet
Substitution2: "'c2sc' Capitals to Small Capitals lookup 1 subtable" acircumflex.sc
EndChar

StartChar: Atilde
Encoding: 195 195 131
Width: 764
GlyphClass: 2
Flags: MW
HStem: 0 32<46 83 46 83 83 108.5 259 320 432 498 498 508 686 742> 212 32<259 471 259 482 248 471> 692 20G<384 409 409 409> 812 52<465 493> 850 52<299 327>
VStem: 240 20<808 810> 532 20<904 906>
LayerCount: 2
Fore
SplineSet
466 812 m 0x16
 412 812 350 850 304 850 c 0
 280 850 265 834 260 808 c 1
 240 810 l 1
 244 857 272 902 326 902 c 0x0e
 380 902 442 864 488 864 c 0
 512 864 527 880 532 906 c 1
 552 904 l 1
 548 857 520 812 466 812 c 0x16
46 0 m 1xe0
 46 32 l 1
 83 32 l 2
 134 32 157 73 169 105 c 2
 384 712 l 1
 409 712 l 1
 626 76 l 2
 640 41 659 32 686 32 c 2
 742 32 l 1
 742 0 l 1
 432 0 l 1
 432 32 l 1
 498 32 l 2
 518 32 533 44 533 57 c 0
 533 63 532 72 529 79 c 2
 482 212 l 1
 248 212 l 1
 224 145 l 2
 217 125 210 104 210 87 c 0
 210 65 218 32 259 32 c 2
 320 32 l 1
 320 0 l 1
 46 0 l 1xe0
259 244 m 1
 471 244 l 1
 367 549 l 1
 259 244 l 1
EndSplineSet
MultipleSubs2: "Multiple Substitution lookup 33 subtable" A tildecomb
Substitution2: "'c2sc' Capitals to Small Capitals lookup 1 subtable" atilde.sc
EndChar

StartChar: Adieresis
Encoding: 196 196 132
Width: 764
GlyphClass: 2
Flags: MW
HStem: 0 32<46 83 46 83 83 108.5 259 320 432 498 498 508 686 742> 212 32<259 471 259 482 248 471> 692 20G<384 409 409 409> 798 104<279 309 483 513>
VStem: 242 104<835 865> 446 104<835 865>
LayerCount: 2
Fore
SplineSet
242 850 m 0
 242 880 264 902 294 902 c 0
 324 902 346 880 346 850 c 0
 346 820 324 798 294 798 c 0
 264 798 242 820 242 850 c 0
446 850 m 0
 446 880 468 902 498 902 c 0
 528 902 550 880 550 850 c 0
 550 820 528 798 498 798 c 0
 468 798 446 820 446 850 c 0
46 0 m 1
 46 32 l 1
 83 32 l 2
 134 32 157 73 169 105 c 2
 384 712 l 1
 409 712 l 1
 626 76 l 2
 640 41 659 32 686 32 c 2
 742 32 l 1
 742 0 l 1
 432 0 l 1
 432 32 l 1
 498 32 l 2
 518 32 533 44 533 57 c 0
 533 63 532 72 529 79 c 2
 482 212 l 1
 248 212 l 1
 224 145 l 2
 217 125 210 104 210 87 c 0
 210 65 218 32 259 32 c 2
 320 32 l 1
 320 0 l 1
 46 0 l 1
259 244 m 1
 471 244 l 1
 367 549 l 1
 259 244 l 1
EndSplineSet
MultipleSubs2: "Multiple Substitution lookup 33 subtable" A uni0308
Substitution2: "'c2sc' Capitals to Small Capitals lookup 1 subtable" adieresis.sc
EndChar

StartChar: Aring
Encoding: 197 197 133
Width: 764
GlyphClass: 2
Flags: MW
HStem: 0 32<46 83 46 83 83 108.5 259 320 432 498 498 508 686 742> 212 32<259 471 259 482 248 471> 692 20G<384 409 409 409> 752 24<375.5 416.5 375.5 423> 924 24<375.5 416.5>
VStem: 298 24<829.5 870.5 829.5 877> 470 24<829.5 870.5>
LayerCount: 2
Fore
SplineSet
322 850 m 0
 322 809 355 776 396 776 c 0
 437 776 470 809 470 850 c 0
 470 891 437 924 396 924 c 0
 355 924 322 891 322 850 c 0
298 850 m 0
 298 904 342 948 396 948 c 0
 450 948 494 904 494 850 c 0
 494 796 450 752 396 752 c 0
 342 752 298 796 298 850 c 0
46 0 m 1
 46 32 l 1
 83 32 l 2
 134 32 157 73 169 105 c 2
 384 712 l 1
 409 712 l 1
 626 76 l 2
 640 41 659 32 686 32 c 2
 742 32 l 1
 742 0 l 1
 432 0 l 1
 432 32 l 1
 498 32 l 2
 518 32 533 44 533 57 c 0
 533 63 532 72 529 79 c 2
 482 212 l 1
 248 212 l 1
 224 145 l 2
 217 125 210 104 210 87 c 0
 210 65 218 32 259 32 c 2
 320 32 l 1
 320 0 l 1
 46 0 l 1
259 244 m 1
 471 244 l 1
 367 549 l 1
 259 244 l 1
EndSplineSet
MultipleSubs2: "Multiple Substitution lookup 33 subtable" A uni030A
EndChar

StartChar: AE
Encoding: 198 198 134
Width: 1004
GlyphClass: 2
LigCaretCntFixed: 1
Flags: MW
HStem: 0 32<26 58 58 86 249 296 26 58 381 448 448 457 594 754 754 771.5> 212 32<276 475 276 475 259 475> 352 32<567 644 567 644> 462 21G<913 913 913 938> 680 32<376 417 376 934 584.5 594 594 753>
VStem: 475 92<59 212 212 212 244 352 384 620 620 620> 740 26<189 218 518 547> 913 25<462 462>
AnchorPoint: "Anchor-2" 550 0 basechar 0
AnchorPoint: "Anchor-1" 550 782 basechar 0
AnchorPoint: "Anchor-0" 550 762 basechar 0
LayerCount: 2
Fore
SplineSet
276 244 m 1
 475 244 l 1
 475 620 l 1
 276 244 l 1
913 462 m 1
 912 489 903 680 753 680 c 2
 594 680 l 2
 575 680 567 672 567 653 c 2
 567 384 l 1
 644 384 l 2
 721 384 740 489 740 547 c 1
 766 547 l 1
 766 189 l 1
 740 189 l 1
 740 247 721 352 644 352 c 2
 567 352 l 1
 567 59 l 2
 567 41 575 32 594 32 c 2
 754 32 l 2
 789 32 834 46 864 85 c 0
 910 147 921 276 921 276 c 1
 946 276 l 1
 934 0 l 1
 381 0 l 1
 381 32 l 1
 448 32 l 2
 466 32 475 41 475 59 c 2
 475 212 l 1
 259 212 l 1
 223 145 l 2
 213 126 205 102 205 85 c 0
 205 63 207 32 249 32 c 2
 296 32 l 1
 296 0 l 1
 26 0 l 1
 26 32 l 1
 58 32 l 2
 114 32 142 72 159 105 c 2
 425 608 l 2
 435 626 442 642 442 659 c 0
 442 673 436 680 417 680 c 2
 376 680 l 1
 376 712 l 1
 934 712 l 1
 938 462 l 1
 913 462 l 1
EndSplineSet
Ligature2: "'rlig' Required Ligatures lookup 24 subtable" A afii301 E
Ligature2: "'rlig' Required Ligatures lookup 24 subtable" A afii301 e
Substitution2: "'c2sc' Capitals to Small Capitals lookup 1 subtable" ae.sc
LCarets2: 1 520
EndChar

StartChar: Ccedilla
Encoding: 199 199 135
Width: 670
GlyphClass: 2
Flags: MW
HStem: -238 24<365 401 365 411.5> -112 56<359 372 323 390> -17 31<340 340> 698 32<283.5 389.5> 702 20G<565 590 590 590>
VStem: 70 106<272.5 462> 268 59 440 44<-160.5 -146.5> 566 28<412 412> 570 36<259 259>
AnchorPoint: "Anchor-1" 358 782 basechar 0
AnchorPoint: "Anchor-0" 358 762 basechar 0
LayerCount: 2
Fore
SplineSet
348 730 m 0xf740
 447 730 510 645 527 645 c 0
 538 645 542 654 546 666 c 2
 565 722 l 1
 590 722 l 1
 594 412 l 1
 566 412 l 1xef80
 521 611 429 698 350 698 c 0
 217 698 176 566 176 362 c 0
 176 158 212 14 366 14 c 0
 505 14 562 139 570 259 c 1
 606 259 l 1
 602 165 558 -18 366 -18 c 1
 359 -56 l 1
 390 -56 l 2
 437 -56 484 -81 484 -137 c 0
 484 -184 457 -238 366 -238 c 0
 320 -238 268 -215 268 -168 c 0
 268 -152 279 -138 295 -138 c 0
 316 -138 324 -155 327 -173 c 0
 331 -199 351 -214 379 -214 c 0
 423 -214 440 -192 440 -164 c 0
 440 -129 418 -112 372 -112 c 2
 323 -112 l 1
 340 -17 l 1
 163 -1 70 183 70 362 c 0
 70 562 175 730 348 730 c 0xf740
EndSplineSet
Ligature2: "'ccmp' Glyph Composition/Decomposition lookup 3 subtable" C uni0327
Substitution2: "'c2sc' Capitals to Small Capitals lookup 1 subtable" ccedilla.sc
EndChar

StartChar: Egrave
Encoding: 200 200 136
Width: 690
GlyphClass: 2
Flags: MW
HStem: 0 32<62 134 134 143.5 280 440 440 457.5 62 134> 352 32<253 330 253 330> 462 21G<599 599 599 624> 680 32<62 134 62 620 270.5 280 280 439> 762 176<243 380>
VStem: 161 92<59 352 384 653> 224 169<773 916> 426 26<189 218 518 547> 599 25<462 462>
LayerCount: 2
Fore
SplineSet
224 907 m 0x0a
 224 925 234 938 252 938 c 0
 270 938 283 931 301 906 c 2
 393 773 l 1
 380 762 l 1
 252 863 l 2
 236 875 224 889 224 907 c 0x0a
599 462 m 1xf580
 598 489 589 680 439 680 c 2
 280 680 l 2
 261 680 253 672 253 653 c 2
 253 384 l 1
 330 384 l 2
 407 384 426 489 426 547 c 1
 452 547 l 1
 452 189 l 1
 426 189 l 1
 426 247 407 352 330 352 c 2
 253 352 l 1
 253 59 l 2
 253 41 261 32 280 32 c 2
 440 32 l 2
 475 32 520 46 550 85 c 0
 596 147 607 276 607 276 c 1
 632 276 l 1
 620 0 l 1
 62 0 l 1
 62 32 l 1
 134 32 l 2
 153 32 161 41 161 59 c 2
 161 653 l 2
 161 672 153 680 134 680 c 2
 62 680 l 1
 62 712 l 1
 620 712 l 1
 624 462 l 1
 599 462 l 1xf580
EndSplineSet
Substitution2: "'c2sc' Capitals to Small Capitals lookup 1 subtable" egrave.sc
EndChar

StartChar: Eacute
Encoding: 201 201 137
Width: 690
GlyphClass: 2
Flags: MW
HStem: 0 32<62 134 134 143.5 280 440 440 457.5 62 134> 352 32<253 330 253 330> 462 21G<599 599 599 624> 680 32<62 134 62 620 270.5 280 280 439> 762 176<356 493>
VStem: 161 92<59 352 384 653> 343 169<773 916> 426 26<189 218 518 547> 599 25<462 462>
LayerCount: 2
Fore
SplineSet
343 773 m 1x0a
 435 906 l 2
 453 931 466 938 484 938 c 0
 502 938 512 925 512 907 c 0
 512 889 500 875 484 863 c 2
 356 762 l 1
 343 773 l 1x0a
599 462 m 1xf580
 598 489 589 680 439 680 c 2
 280 680 l 2
 261 680 253 672 253 653 c 2
 253 384 l 1
 330 384 l 2
 407 384 426 489 426 547 c 1
 452 547 l 1
 452 189 l 1
 426 189 l 1
 426 247 407 352 330 352 c 2
 253 352 l 1
 253 59 l 2
 253 41 261 32 280 32 c 2
 440 32 l 2
 475 32 520 46 550 85 c 0
 596 147 607 276 607 276 c 1
 632 276 l 1
 620 0 l 1
 62 0 l 1
 62 32 l 1
 134 32 l 2
 153 32 161 41 161 59 c 2
 161 653 l 2
 161 672 153 680 134 680 c 2
 62 680 l 1
 62 712 l 1
 620 712 l 1
 624 462 l 1
 599 462 l 1xf580
EndSplineSet
Substitution2: "'c2sc' Capitals to Small Capitals lookup 1 subtable" eacute.sc
EndChar

StartChar: Ecircumflex
Encoding: 202 202 138
Width: 690
GlyphClass: 2
Flags: MW
HStem: 0 32<62 134 134 143.5 280 440 440 457.5 62 134> 352 32<253 330 253 330> 462 21G<599 599 599 624> 680 32<62 134 62 620 270.5 280 280 439> 762 158<220 388 348 516>
VStem: 161 92<59 352 384 653> 210 316<778 778> 426 26<189 218 518 547> 599 25<462 462>
LayerCount: 2
Fore
SplineSet
210 778 m 1x0a
 280 818 322 870 348 920 c 1
 388 920 l 1
 414 870 456 818 526 778 c 1
 516 762 l 1
 482 774 410 820 368 858 c 1
 326 820 254 774 220 762 c 1
 210 778 l 1x0a
599 462 m 1xf580
 598 489 589 680 439 680 c 2
 280 680 l 2
 261 680 253 672 253 653 c 2
 253 384 l 1
 330 384 l 2
 407 384 426 489 426 547 c 1
 452 547 l 1
 452 189 l 1
 426 189 l 1
 426 247 407 352 330 352 c 2
 253 352 l 1
 253 59 l 2
 253 41 261 32 280 32 c 2
 440 32 l 2
 475 32 520 46 550 85 c 0
 596 147 607 276 607 276 c 1
 632 276 l 1
 620 0 l 1
 62 0 l 1
 62 32 l 1
 134 32 l 2
 153 32 161 41 161 59 c 2
 161 653 l 2
 161 672 153 680 134 680 c 2
 62 680 l 1
 62 712 l 1
 620 712 l 1
 624 462 l 1
 599 462 l 1xf580
EndSplineSet
Substitution2: "'c2sc' Capitals to Small Capitals lookup 1 subtable" ecircumflex.sc
EndChar

StartChar: Edieresis
Encoding: 203 203 139
Width: 690
GlyphClass: 2
Flags: MW
HStem: 0 32<62 134 134 143.5 280 440 440 457.5 62 134> 352 32<253 330 253 330> 462 21G<599 599 599 624> 680 32<62 134 62 620 270.5 280 280 439> 798 104<251 281 455 485>
VStem: 161 92<59 352 384 653> 214 104<835 865> 418 104<835 865> 426 26<189 218 518 547> 599 25<462 462>
LayerCount: 2
Fore
SplineSet
214 850 m 0x0b
 214 880 236 902 266 902 c 0
 296 902 318 880 318 850 c 0
 318 820 296 798 266 798 c 0
 236 798 214 820 214 850 c 0x0b
418 850 m 0
 418 880 440 902 470 902 c 0
 500 902 522 880 522 850 c 0
 522 820 500 798 470 798 c 0
 440 798 418 820 418 850 c 0
599 462 m 1xf4c0
 598 489 589 680 439 680 c 2
 280 680 l 2
 261 680 253 672 253 653 c 2
 253 384 l 1
 330 384 l 2
 407 384 426 489 426 547 c 1
 452 547 l 1
 452 189 l 1
 426 189 l 1
 426 247 407 352 330 352 c 2
 253 352 l 1
 253 59 l 2
 253 41 261 32 280 32 c 2
 440 32 l 2
 475 32 520 46 550 85 c 0
 596 147 607 276 607 276 c 1
 632 276 l 1
 620 0 l 1
 62 0 l 1
 62 32 l 1
 134 32 l 2
 153 32 161 41 161 59 c 2
 161 653 l 2
 161 672 153 680 134 680 c 2
 62 680 l 1
 62 712 l 1
 620 712 l 1
 624 462 l 1
 599 462 l 1xf4c0
EndSplineSet
MultipleSubs2: "Multiple Substitution lookup 33 subtable" E uni0308
Substitution2: "'c2sc' Capitals to Small Capitals lookup 1 subtable" edieresis.sc
EndChar

StartChar: Igrave
Encoding: 204 204 140
Width: 394
GlyphClass: 2
Flags: MW
HStem: 0 32<62 134 62 134 134 143.5 280 352> 680 32<62 134 62 352 270.5 280 280 352> 762 176<83 220>
VStem: 64 169<773 916> 161 92<59 653>
LayerCount: 2
Fore
SplineSet
64 907 m 0x30
 64 925 74 938 92 938 c 0
 110 938 123 931 141 906 c 2
 233 773 l 1
 220 762 l 1
 92 863 l 2
 76 875 64 889 64 907 c 0x30
62 0 m 1xc8
 62 32 l 1
 134 32 l 2
 153 32 161 41 161 59 c 2
 161 653 l 2
 161 672 153 680 134 680 c 2
 62 680 l 1
 62 712 l 1
 352 712 l 1
 352 680 l 1
 280 680 l 2
 261 680 253 672 253 653 c 2
 253 59 l 2
 253 41 261 32 280 32 c 2
 352 32 l 1
 352 0 l 1
 62 0 l 1xc8
EndSplineSet
Substitution2: "'c2sc' Capitals to Small Capitals lookup 1 subtable" igrave.sc
EndChar

StartChar: Iacute
Encoding: 205 205 141
Width: 394
GlyphClass: 2
Flags: MW
HStem: 0 32<62 134 62 134 134 143.5 280 352> 680 32<62 134 62 352 270.5 280 280 352> 762 176<196 333>
VStem: 161 92<59 653> 183 169
LayerCount: 2
Fore
SplineSet
183 773 m 1x28
 275 906 l 2
 293 931 306 938 324 938 c 0
 342 938 352 925 352 907 c 0
 352 889 340 875 324 863 c 2
 196 762 l 1
 183 773 l 1x28
62 0 m 1xd0
 62 32 l 1
 134 32 l 2
 153 32 161 41 161 59 c 2
 161 653 l 2
 161 672 153 680 134 680 c 2
 62 680 l 1
 62 712 l 1
 352 712 l 1
 352 680 l 1
 280 680 l 2
 261 680 253 672 253 653 c 2
 253 59 l 2
 253 41 261 32 280 32 c 2
 352 32 l 1
 352 0 l 1
 62 0 l 1xd0
EndSplineSet
Substitution2: "'c2sc' Capitals to Small Capitals lookup 1 subtable" iacute.sc
EndChar

StartChar: Icircumflex
Encoding: 206 206 142
Width: 394
GlyphClass: 2
Flags: MW
HStem: 0 32<62 134 62 134 134 143.5 280 352> 680 32<62 134 62 352 270.5 280 280 352> 762 158<60 228 188 356>
VStem: 50 316<778 778> 161 92<59 653>
LayerCount: 2
Fore
SplineSet
50 778 m 1x30
 120 818 162 870 188 920 c 1
 228 920 l 1
 254 870 296 818 366 778 c 1
 356 762 l 1
 322 774 250 820 208 858 c 1
 166 820 94 774 60 762 c 1
 50 778 l 1x30
62 0 m 1xc8
 62 32 l 1
 134 32 l 2
 153 32 161 41 161 59 c 2
 161 653 l 2
 161 672 153 680 134 680 c 2
 62 680 l 1
 62 712 l 1
 352 712 l 1
 352 680 l 1
 280 680 l 2
 261 680 253 672 253 653 c 2
 253 59 l 2
 253 41 261 32 280 32 c 2
 352 32 l 1
 352 0 l 1
 62 0 l 1xc8
EndSplineSet
Substitution2: "'c2sc' Capitals to Small Capitals lookup 1 subtable" icircumflex.sc
EndChar

StartChar: Idieresis
Encoding: 207 207 143
Width: 394
GlyphClass: 2
Flags: MW
HStem: 0 32<62 134 62 134 134 143.5 280 352> 680 32<62 134 62 352 270.5 280 280 352> 798 104<91 121 295 325>
VStem: 54 104<835 865> 161 92<59 653> 258 104<835 865>
LayerCount: 2
Fore
SplineSet
54 850 m 0
 54 880 76 902 106 902 c 0
 136 902 158 880 158 850 c 0
 158 820 136 798 106 798 c 0
 76 798 54 820 54 850 c 0
258 850 m 0
 258 880 280 902 310 902 c 0
 340 902 362 880 362 850 c 0
 362 820 340 798 310 798 c 0
 280 798 258 820 258 850 c 0
62 0 m 1
 62 32 l 1
 134 32 l 2
 153 32 161 41 161 59 c 2
 161 653 l 2
 161 672 153 680 134 680 c 2
 62 680 l 1
 62 712 l 1
 352 712 l 1
 352 680 l 1
 280 680 l 2
 261 680 253 672 253 653 c 2
 253 59 l 2
 253 41 261 32 280 32 c 2
 352 32 l 1
 352 0 l 1
 62 0 l 1
EndSplineSet
MultipleSubs2: "Multiple Substitution lookup 33 subtable" I uni0308
Substitution2: "'c2sc' Capitals to Small Capitals lookup 1 subtable" idieresis.sc
EndChar

StartChar: Eth
Encoding: 208 208 144
Width: 768
GlyphClass: 2
Flags: MW
HStem: 0 32<62 134 62 134 134 143.5 280 424 424 428> 356 36<68 161 68 161 253 368> 680 32<62 134 62 428 270.5 280 280 424>
VStem: 161 92<59 356 392 653> 624 106<283 441>
LayerCount: 2
Fore
SplineSet
253 59 m 2
 253 41 261 32 280 32 c 2
 424 32 l 2
 573 32 624 204 624 362 c 0
 624 520 573 680 424 680 c 2
 280 680 l 2
 261 680 253 672 253 653 c 2
 253 392 l 1
 368 392 l 1
 368 356 l 1
 253 356 l 1
 253 59 l 2
62 0 m 1
 62 32 l 1
 134 32 l 2
 153 32 161 41 161 59 c 2
 161 356 l 1
 68 356 l 1
 68 392 l 1
 161 392 l 1
 161 653 l 2
 161 672 153 680 134 680 c 2
 62 680 l 1
 62 712 l 1
 428 712 l 2
 594 712 730 570 730 362 c 0
 730 154 594 0 428 0 c 2
 62 0 l 1
EndSplineSet
EndChar

StartChar: Ntilde
Encoding: 209 209 145
Width: 770
GlyphClass: 2
Flags: MW
HStem: -18 21G<598 638 598 598> 0 32<62 98 62 98 98 117 264 300> 680 32<62 134 62 251 500 536 683.5 702 702 738> 812 52<485 513> 850 52<319 347>
VStem: 161 40<112 603> 260 20<808 810> 552 20<904 906> 598 40<-18 600 154 600 -18 625>
LayerCount: 2
Fore
SplineSet
486 812 m 0x13
 432 812 370 850 324 850 c 0
 300 850 285 834 280 808 c 1
 260 810 l 1
 264 857 292 902 346 902 c 0x0b
 400 902 462 864 508 864 c 0
 532 864 547 880 552 906 c 1
 572 904 l 1
 568 857 540 812 486 812 c 0x13
62 0 m 1x6480
 62 32 l 1
 98 32 l 2x6480
 136 32 161 62 161 112 c 2
 161 653 l 2
 160 672 153 680 134 680 c 2
 62 680 l 1
 62 712 l 1
 251 712 l 1
 598 154 l 1
 598 600 l 2
 598 650 573 680 536 680 c 2
 500 680 l 1
 500 712 l 1
 738 712 l 1
 738 680 l 1
 702 680 l 2
 665 680 638 650 638 600 c 2
 638 -18 l 1
 598 -18 l 1xa480
 205 603 l 1
 201 603 l 1
 201 112 l 2
 201 62 227 32 264 32 c 2
 300 32 l 1
 300 0 l 1
 62 0 l 1x6480
EndSplineSet
Substitution2: "'c2sc' Capitals to Small Capitals lookup 1 subtable" ntilde.sc
EndChar

StartChar: Ograve
Encoding: 210 210 146
Width: 700
GlyphClass: 2
Flags: MW
HStem: -18 32<291 429 291 447> 698 32<291 429> 762 176<235 372>
VStem: 70 106<261.5 450.5> 216 169<773 916> 544 106<261.5 450.5 261.5 458>
LayerCount: 2
Fore
SplineSet
216 907 m 0
 216 925 226 938 244 938 c 0
 262 938 275 931 293 906 c 2
 385 773 l 1
 372 762 l 1
 244 863 l 2
 228 875 216 889 216 907 c 0
70 356 m 0
 70 545 186 730 360 730 c 0
 534 730 650 545 650 356 c 0
 650 167 534 -18 360 -18 c 0
 186 -18 70 167 70 356 c 0
176 356 m 0
 176 152 222 14 360 14 c 0
 498 14 544 152 544 356 c 0
 544 560 498 698 360 698 c 0
 222 698 176 560 176 356 c 0
EndSplineSet
Substitution2: "'c2sc' Capitals to Small Capitals lookup 1 subtable" ograve.sc
EndChar

StartChar: Oacute
Encoding: 211 211 147
Width: 700
GlyphClass: 2
Flags: MW
HStem: -18 32<291 429 291 447> 698 32<291 429> 762 176<348 485>
VStem: 70 106<261.5 450.5> 335 169<773 916> 544 106<261.5 450.5 261.5 458>
LayerCount: 2
Fore
SplineSet
335 773 m 1
 427 906 l 2
 445 931 458 938 476 938 c 0
 494 938 504 925 504 907 c 0
 504 889 492 875 476 863 c 2
 348 762 l 1
 335 773 l 1
70 356 m 0
 70 545 186 730 360 730 c 0
 534 730 650 545 650 356 c 0
 650 167 534 -18 360 -18 c 0
 186 -18 70 167 70 356 c 0
176 356 m 0
 176 152 222 14 360 14 c 0
 498 14 544 152 544 356 c 0
 544 560 498 698 360 698 c 0
 222 698 176 560 176 356 c 0
EndSplineSet
Substitution2: "'c2sc' Capitals to Small Capitals lookup 1 subtable" oacute.sc
EndChar

StartChar: Ocircumflex
Encoding: 212 212 148
Width: 700
GlyphClass: 2
Flags: MW
HStem: -18 32<291 429 291 447> 698 32<291 429> 762 158<212 380 340 508>
VStem: 70 106<261.5 450.5> 202 316<778 778> 544 106<261.5 450.5 261.5 458>
CounterMasks: 1 1c
LayerCount: 2
Fore
SplineSet
202 778 m 1
 272 818 314 870 340 920 c 1
 380 920 l 1
 406 870 448 818 518 778 c 1
 508 762 l 1
 474 774 402 820 360 858 c 1
 318 820 246 774 212 762 c 1
 202 778 l 1
70 356 m 0
 70 545 186 730 360 730 c 0
 534 730 650 545 650 356 c 0
 650 167 534 -18 360 -18 c 0
 186 -18 70 167 70 356 c 0
176 356 m 0
 176 152 222 14 360 14 c 0
 498 14 544 152 544 356 c 0
 544 560 498 698 360 698 c 0
 222 698 176 560 176 356 c 0
EndSplineSet
Substitution2: "'c2sc' Capitals to Small Capitals lookup 1 subtable" ocircumflex.sc
EndChar

StartChar: Otilde
Encoding: 213 213 149
Width: 700
GlyphClass: 2
Flags: MW
HStem: -18 32<291 429 291 447> 698 32<291 429> 812 52<429 457> 850 52<263 291>
VStem: 70 106<261.5 450.5> 204 20<808 810> 496 20<904 906> 544 106<261.5 450.5 261.5 458>
LayerCount: 2
Fore
SplineSet
430 812 m 0x26
 376 812 314 850 268 850 c 0
 244 850 229 834 224 808 c 1
 204 810 l 1
 208 857 236 902 290 902 c 0x16
 344 902 406 864 452 864 c 0
 476 864 491 880 496 906 c 1
 516 904 l 1
 512 857 484 812 430 812 c 0x26
70 356 m 0xc9
 70 545 186 730 360 730 c 0
 534 730 650 545 650 356 c 0
 650 167 534 -18 360 -18 c 0
 186 -18 70 167 70 356 c 0xc9
176 356 m 0
 176 152 222 14 360 14 c 0
 498 14 544 152 544 356 c 0
 544 560 498 698 360 698 c 0
 222 698 176 560 176 356 c 0
EndSplineSet
MultipleSubs2: "Multiple Substitution lookup 33 subtable" O tildecomb
EndChar

StartChar: Odieresis
Encoding: 214 214 150
Width: 700
GlyphClass: 2
Flags: MW
HStem: -18 32<291 429 291 447> 698 32<291 429> 798 104<243 273 447 477>
VStem: 70 106<261.5 450.5> 206 104<835 865> 410 104<835 865> 544 106<261.5 450.5 261.5 458>
LayerCount: 2
Fore
SplineSet
206 850 m 0
 206 880 228 902 258 902 c 0
 288 902 310 880 310 850 c 0
 310 820 288 798 258 798 c 0
 228 798 206 820 206 850 c 0
410 850 m 0
 410 880 432 902 462 902 c 0
 492 902 514 880 514 850 c 0
 514 820 492 798 462 798 c 0
 432 798 410 820 410 850 c 0
70 356 m 0
 70 545 186 730 360 730 c 0
 534 730 650 545 650 356 c 0
 650 167 534 -18 360 -18 c 0
 186 -18 70 167 70 356 c 0
176 356 m 0
 176 152 222 14 360 14 c 0
 498 14 544 152 544 356 c 0
 544 560 498 698 360 698 c 0
 222 698 176 560 176 356 c 0
EndSplineSet
MultipleSubs2: "Multiple Substitution lookup 33 subtable" O uni0308
Substitution2: "'c2sc' Capitals to Small Capitals lookup 1 subtable" odieresis.sc
EndChar

StartChar: multiply
Encoding: 215 215 151
Width: 940
GlyphClass: 2
Flags: W
LayerCount: 2
Fore
SplineSet
156 -18 m 1
 439 264 l 1
 156 546 l 1
 188 578 l 1
 470 295 l 1
 752 578 l 1
 784 546 l 1
 501 264 l 1
 784 -18 l 1
 752 -50 l 1
 470 233 l 1
 188 -50 l 1
 156 -18 l 1
EndSplineSet
EndChar

StartChar: Oslash
Encoding: 216 216 152
Width: 700
GlyphClass: 2
Flags: MW
HStem: -18 32<322.5 429 322.5 447> 698 32<291 397>
VStem: 70 106<320.5 450.5> 544 106<261.5 391.5>
AnchorPoint: "Anchor-2" 360 0 basechar 0
AnchorPoint: "Anchor-1" 360 782 basechar 0
AnchorPoint: "Anchor-0" 360 762 basechar 0
LayerCount: 2
Fore
SplineSet
176 356 m 0
 176 285 182 223 194 171 c 1
 510 589 l 1
 482 658 434 698 360 698 c 0
 222 698 176 560 176 356 c 0
209 124 m 1
 237 55 285 14 360 14 c 0
 498 14 544 152 544 356 c 0
 544 427 538 491 525 543 c 1
 209 124 l 1
70 6 m 1
 145 105 l 1
 97 174 70 265 70 356 c 0
 70 545 185 730 360 730 c 0
 435 730 500 695 549 641 c 1
 616 730 l 1
 648 706 l 1
 574 608 l 1
 623 539 650 448 650 356 c 0
 650 167 534 -18 360 -18 c 0
 284 -18 219 17 170 72 c 1
 102 -18 l 1
 70 6 l 1
EndSplineSet
EndChar

StartChar: Ugrave
Encoding: 217 217 153
Width: 780
GlyphClass: 2
Flags: MW
HStem: -18 32<359.5 479.5 359.5 489.5> 680 32<52 343 52 124 260.5 270 270 343 514 549 698.5 717 717 752> 762 176<287 424>
VStem: 151 92<237 653> 268 169<773 916> 613 40<198 208 208 599>
LayerCount: 2
Fore
SplineSet
268 907 m 0
 268 925 278 938 296 938 c 0
 314 938 327 931 345 906 c 2
 437 773 l 1
 424 762 l 1
 296 863 l 2
 280 875 268 889 268 907 c 0
52 680 m 1
 52 712 l 1
 343 712 l 1
 343 680 l 1
 270 680 l 2
 251 680 243 672 243 653 c 2
 243 210 l 2
 243 87 305 14 414 14 c 0
 545 14 613 102 613 198 c 2
 613 599 l 2
 613 649 586 680 549 680 c 2
 514 680 l 1
 514 712 l 1
 752 712 l 1
 752 680 l 1
 717 680 l 2
 680 680 653 649 653 599 c 2
 653 208 l 2
 653 83 565 -18 414 -18 c 0
 224 -18 151 108 151 237 c 2
 151 653 l 2
 151 672 143 680 124 680 c 2
 52 680 l 1
EndSplineSet
Substitution2: "'c2sc' Capitals to Small Capitals lookup 1 subtable" ugrave.sc
EndChar

StartChar: Uacute
Encoding: 218 218 154
Width: 780
GlyphClass: 2
Flags: MW
HStem: -18 32<359.5 479.5 359.5 489.5> 680 32<52 343 52 124 260.5 270 270 343 514 549 698.5 717 717 752> 762 176<400 537>
VStem: 151 92<237 653> 387 169<773 916> 613 40<198 208 208 599>
LayerCount: 2
Fore
SplineSet
387 773 m 1
 479 906 l 2
 497 931 510 938 528 938 c 0
 546 938 556 925 556 907 c 0
 556 889 544 875 528 863 c 2
 400 762 l 1
 387 773 l 1
52 680 m 1
 52 712 l 1
 343 712 l 1
 343 680 l 1
 270 680 l 2
 251 680 243 672 243 653 c 2
 243 210 l 2
 243 87 305 14 414 14 c 0
 545 14 613 102 613 198 c 2
 613 599 l 2
 613 649 586 680 549 680 c 2
 514 680 l 1
 514 712 l 1
 752 712 l 1
 752 680 l 1
 717 680 l 2
 680 680 653 649 653 599 c 2
 653 208 l 2
 653 83 565 -18 414 -18 c 0
 224 -18 151 108 151 237 c 2
 151 653 l 2
 151 672 143 680 124 680 c 2
 52 680 l 1
EndSplineSet
Substitution2: "'c2sc' Capitals to Small Capitals lookup 1 subtable" uacute.sc
EndChar

StartChar: Ucircumflex
Encoding: 219 219 155
Width: 780
GlyphClass: 2
Flags: MW
HStem: -18 32<359.5 479.5 359.5 489.5> 680 32<52 343 52 124 260.5 270 270 343 514 549 698.5 717 717 752> 762 158<264 432 392 560>
VStem: 151 92<237 653> 254 316<778 778> 613 40<198 208 208 599>
LayerCount: 2
Fore
SplineSet
254 778 m 1
 324 818 366 870 392 920 c 1
 432 920 l 1
 458 870 500 818 570 778 c 1
 560 762 l 1
 526 774 454 820 412 858 c 1
 370 820 298 774 264 762 c 1
 254 778 l 1
52 680 m 1
 52 712 l 1
 343 712 l 1
 343 680 l 1
 270 680 l 2
 251 680 243 672 243 653 c 2
 243 210 l 2
 243 87 305 14 414 14 c 0
 545 14 613 102 613 198 c 2
 613 599 l 2
 613 649 586 680 549 680 c 2
 514 680 l 1
 514 712 l 1
 752 712 l 1
 752 680 l 1
 717 680 l 2
 680 680 653 649 653 599 c 2
 653 208 l 2
 653 83 565 -18 414 -18 c 0
 224 -18 151 108 151 237 c 2
 151 653 l 2
 151 672 143 680 124 680 c 2
 52 680 l 1
EndSplineSet
Substitution2: "'c2sc' Capitals to Small Capitals lookup 1 subtable" ucircumflex.sc
EndChar

StartChar: Udieresis
Encoding: 220 220 156
Width: 780
GlyphClass: 2
Flags: MW
HStem: -18 32<359.5 479.5 359.5 489.5> 680 32<52 343 52 124 260.5 270 270 343 514 549 698.5 717 717 752> 798 104<295 325 499 529>
VStem: 151 92<237 653> 258 104<835 865> 462 104<835 865> 613 40<198 208 208 599>
LayerCount: 2
Fore
SplineSet
258 850 m 0
 258 880 280 902 310 902 c 0
 340 902 362 880 362 850 c 0
 362 820 340 798 310 798 c 0
 280 798 258 820 258 850 c 0
462 850 m 0
 462 880 484 902 514 902 c 0
 544 902 566 880 566 850 c 0
 566 820 544 798 514 798 c 0
 484 798 462 820 462 850 c 0
52 680 m 1
 52 712 l 1
 343 712 l 1
 343 680 l 1
 270 680 l 2
 251 680 243 672 243 653 c 2
 243 210 l 2
 243 87 305 14 414 14 c 0
 545 14 613 102 613 198 c 2
 613 599 l 2
 613 649 586 680 549 680 c 2
 514 680 l 1
 514 712 l 1
 752 712 l 1
 752 680 l 1
 717 680 l 2
 680 680 653 649 653 599 c 2
 653 208 l 2
 653 83 565 -18 414 -18 c 0
 224 -18 151 108 151 237 c 2
 151 653 l 2
 151 672 143 680 124 680 c 2
 52 680 l 1
EndSplineSet
MultipleSubs2: "Multiple Substitution lookup 33 subtable" U uni0308
Substitution2: "'c2sc' Capitals to Small Capitals lookup 1 subtable" udieresis.sc
EndChar

StartChar: Yacute
Encoding: 221 221 157
Width: 728
GlyphClass: 2
Flags: MW
HStem: 0 32<224 320 320 329 466 562 224 320> 680 32<42 352 42 94 282 292 292 352 454 484 648.5 673 673 702> 762 176<380 517>
VStem: 347 92<59 318 318 318> 367 169<773 916>
LayerCount: 2
Fore
SplineSet
367 773 m 1x28
 459 906 l 2
 477 931 490 938 508 938 c 0
 526 938 536 925 536 907 c 0
 536 889 524 875 508 863 c 2
 380 762 l 1
 367 773 l 1x28
42 680 m 1xd0
 42 712 l 1
 352 712 l 1
 352 680 l 1
 292 680 l 2
 272 680 257 669 257 655 c 0
 257 649 257 640 262 633 c 2
 420 366 l 1
 522 562 l 2
 528 571 539 606 539 623 c 0
 539 651 524 680 484 680 c 2
 454 680 l 1
 454 712 l 1
 702 712 l 1
 702 680 l 1
 673 680 l 2
 624 680 600 639 582 607 c 2
 439 335 l 1
 439 59 l 2
 439 41 448 32 466 32 c 2
 562 32 l 1
 562 0 l 1
 224 0 l 1
 224 32 l 1
 320 32 l 2
 338 32 347 41 347 59 c 2
 347 318 l 1
 153 636 l 2
 133 669 121 680 94 680 c 2
 42 680 l 1xd0
EndSplineSet
EndChar

StartChar: Thorn
Encoding: 222 222 158
Width: 680
GlyphClass: 2
Flags: MW
HStem: 0 32<62 134 62 134 134 143.5 280 368> 210 32<253 396 253 409> 554 32<270.5 280 280 396 396 409> 680 32<62 134 62 368 270.5 280 280 368>
VStem: 161 92<59 210 242 527 586 653> 530 106<358.5 441.5>
LayerCount: 2
Fore
SplineSet
253 242 m 1
 409 242 l 2
 484 242 530 317 530 400 c 0
 530 483 484 554 409 554 c 2
 280 554 l 2
 261 554 253 546 253 527 c 2
 253 242 l 1
62 0 m 1
 62 32 l 1
 134 32 l 2
 153 32 161 41 161 59 c 2
 161 653 l 2
 161 672 153 680 134 680 c 2
 62 680 l 1
 62 712 l 1
 368 712 l 1
 368 680 l 1
 280 680 l 2
 261 680 253 672 253 653 c 2
 253 586 l 1
 396 586 l 2
 538 586 636 510 636 400 c 0
 636 290 538 210 396 210 c 2
 253 210 l 1
 253 59 l 2
 253 41 261 32 280 32 c 2
 368 32 l 1
 368 0 l 1
 62 0 l 1
EndSplineSet
EndChar

StartChar: germandbls
Encoding: 223 223 159
Width: 526
GlyphClass: 2
Flags: MW
HStem: -12 24<298 335.5 298 358> 0 24<28 80 80 88 28 174 28 80> 416 28<222 260 222 260> 694 24<257 314.5>
VStem: 102 72<46 509 509 528 0 581.5> 202 54<55.5 58 36 104> 366 76<548.5 612> 390 88<119 245>
LayerCount: 2
Fore
SplineSet
298 102 m 0xbd
 298 66 256 68 256 48 c 0
 256 24 283 12 313 12 c 0
 358 12 390 48 390 178 c 0xbd
 390 312 346 416 260 416 c 2
 222 416 l 1
 222 444 l 1
 260 444 l 2
 339 444 366 517 366 580 c 0
 366 644 346 694 283 694 c 0
 231 694 174 644 174 528 c 2
 174 0 l 1
 28 0 l 1
 28 24 l 1
 80 24 l 2
 96 24 102 30 102 46 c 2
 102 509 l 2
 102 654 202 718 288 718 c 0
 383 718 442 663 442 585 c 0x7e
 442 497 356 446 299 432 c 1
 299 428 l 1
 377 405 478 334 478 178 c 0
 478 60 404 -12 312 -12 c 0
 252 -12 202 27 202 84 c 0
 202 124 227 144 254 144 c 0
 288 144 298 123 298 102 c 0xbd
EndSplineSet
Substitution2: "'smcp' Lowercase to Small Capitals lookup 0 subtable" germandbls.sc
EndChar

StartChar: agrave
Encoding: 224 224 160
Width: 494
GlyphClass: 2
Flags: MW
HStem: -12 36<180.5 209.5> 444 24<192.5 241.5> 508 176<103 240>
VStem: 46 84<68 138.5 68 161> 78 47<381 389> 84 169<519 662> 308 72<84 84 150 245 245 245 266 326> 458 18<105.5 130>
LayerCount: 2
Fore
SplineSet
84 653 m 0x24
 84 671 94 684 112 684 c 0
 130 684 143 677 161 652 c 2
 253 519 l 1
 240 508 l 1
 112 609 l 2
 96 621 84 635 84 653 c 0x24
46 106 m 0xd3
 46 216 148 236 216 249 c 2
 308 266 l 1
 308 351 l 2
 308 421 268 444 215 444 c 0
 170 444 125 417 125 387 c 0
 125 375 129 364 143 362 c 0
 166 356 180 346 180 323 c 0
 180 293 158 284 136 284 c 0
 110 284 78 304 78 350 c 0xcb
 78 428 152 468 218 468 c 0
 294 468 380 432 380 326 c 2
 380 80 l 2
 380 47 389 30 411 30 c 0
 447 30 458 81 458 130 c 1
 476 130 l 1
 476 66 463 -12 396 -12 c 0
 337 -12 310 26 308 84 c 1
 303 86 l 1
 288 50 243 -12 176 -12 c 0
 120 -12 46 8 46 106 c 0xd3
130 103 m 0xd3
 130 33 169 24 192 24 c 0
 260 24 290 101 308 150 c 1
 308 245 l 1
 221 226 l 2
 156 212 130 174 130 103 c 0xd3
EndSplineSet
Substitution2: "'smcp' Lowercase to Small Capitals lookup 0 subtable" agrave.sc
EndChar

StartChar: aacute
Encoding: 225 225 161
Width: 494
GlyphClass: 2
Flags: MW
HStem: -12 36<180.5 209.5> 444 24<192.5 241.5> 508 176<216 353>
VStem: 46 84<68 138.5 68 161> 78 47<381 389> 203 169<519 662> 308 72<84 84 150 245 245 245 266 326> 458 18<105.5 130>
LayerCount: 2
Fore
SplineSet
203 519 m 1x24
 295 652 l 2
 313 677 326 684 344 684 c 0
 362 684 372 671 372 653 c 0
 372 635 360 621 344 609 c 2
 216 508 l 1
 203 519 l 1x24
46 106 m 0xd3
 46 216 148 236 216 249 c 2
 308 266 l 1
 308 351 l 2
 308 421 268 444 215 444 c 0
 170 444 125 417 125 387 c 0
 125 375 129 364 143 362 c 0
 166 356 180 346 180 323 c 0
 180 293 158 284 136 284 c 0
 110 284 78 304 78 350 c 0xcb
 78 428 152 468 218 468 c 0
 294 468 380 432 380 326 c 2
 380 80 l 2
 380 47 389 30 411 30 c 0
 447 30 458 81 458 130 c 1
 476 130 l 1
 476 66 463 -12 396 -12 c 0
 337 -12 310 26 308 84 c 1
 303 86 l 1
 288 50 243 -12 176 -12 c 0
 120 -12 46 8 46 106 c 0xd3
130 103 m 0xd3
 130 33 169 24 192 24 c 0
 260 24 290 101 308 150 c 1
 308 245 l 1
 221 226 l 2
 156 212 130 174 130 103 c 0xd3
EndSplineSet
Substitution2: "'smcp' Lowercase to Small Capitals lookup 0 subtable" aacute.sc
EndChar

StartChar: acircumflex
Encoding: 226 226 162
Width: 494
GlyphClass: 2
Flags: MW
HStem: -12 36<180.5 209.5> 444 24<192.5 241.5> 508 164<106 248 208 350>
VStem: 46 84<68 138.5 68 161> 78 47<381 389> 97 262<521 521> 308 72<84 84 150 245 245 245 266 326> 458 18<105.5 130>
LayerCount: 2
Fore
SplineSet
97 521 m 1x24
 162 563 192 626 208 672 c 1
 248 672 l 1
 264 626 294 563 359 521 c 1
 350 508 l 1
 308 530 264 562 228 600 c 1
 192 562 148 530 106 508 c 1
 97 521 l 1x24
46 106 m 0xd3
 46 216 148 236 216 249 c 2
 308 266 l 1
 308 351 l 2
 308 421 268 444 215 444 c 0
 170 444 125 417 125 387 c 0
 125 375 129 364 143 362 c 0
 166 356 180 346 180 323 c 0
 180 293 158 284 136 284 c 0
 110 284 78 304 78 350 c 0xcb
 78 428 152 468 218 468 c 0
 294 468 380 432 380 326 c 2
 380 80 l 2
 380 47 389 30 411 30 c 0
 447 30 458 81 458 130 c 1
 476 130 l 1
 476 66 463 -12 396 -12 c 0
 337 -12 310 26 308 84 c 1
 303 86 l 1
 288 50 243 -12 176 -12 c 0
 120 -12 46 8 46 106 c 0xd3
130 103 m 0xd3
 130 33 169 24 192 24 c 0
 260 24 290 101 308 150 c 1
 308 245 l 1
 221 226 l 2
 156 212 130 174 130 103 c 0xd3
EndSplineSet
Substitution2: "'smcp' Lowercase to Small Capitals lookup 0 subtable" acircumflex.sc
EndChar

StartChar: atilde
Encoding: 227 227 163
Width: 494
GlyphClass: 2
Flags: MW
HStem: -12 36<180.5 209.5> 444 24<192.5 241.5> 560 50<284 310> 596 50<146 172>
VStem: 46 84<68 138.5 68 161> 78 47<381 389> 86 17<554 558> 308 72<84 84 150 245 245 245 266 326> 353 17<648 652> 458 18<105.5 130>
LayerCount: 2
Fore
SplineSet
284 560 m 0x2280
 231 560 195 596 149 596 c 0
 125 596 111 581 103 554 c 1
 86 558 l 1
 93 601 120 646 172 646 c 0x1280
 225 646 261 610 307 610 c 0
 331 610 345 625 353 652 c 1
 370 648 l 1
 363 605 336 560 284 560 c 0x2280
46 106 m 0xc940
 46 216 148 236 216 249 c 2
 308 266 l 1
 308 351 l 2
 308 421 268 444 215 444 c 0
 170 444 125 417 125 387 c 0
 125 375 129 364 143 362 c 0
 166 356 180 346 180 323 c 0
 180 293 158 284 136 284 c 0
 110 284 78 304 78 350 c 0xc540
 78 428 152 468 218 468 c 0
 294 468 380 432 380 326 c 2
 380 80 l 2
 380 47 389 30 411 30 c 0
 447 30 458 81 458 130 c 1
 476 130 l 1
 476 66 463 -12 396 -12 c 0
 337 -12 310 26 308 84 c 1
 303 86 l 1
 288 50 243 -12 176 -12 c 0
 120 -12 46 8 46 106 c 0xc940
130 103 m 0xc940
 130 33 169 24 192 24 c 0
 260 24 290 101 308 150 c 1
 308 245 l 1
 221 226 l 2
 156 212 130 174 130 103 c 0xc940
EndSplineSet
MultipleSubs2: "Multiple Substitution lookup 33 subtable" a tildecomb
Substitution2: "'smcp' Lowercase to Small Capitals lookup 0 subtable" atilde.sc
EndChar

StartChar: adieresis
Encoding: 228 228 164
Width: 494
GlyphClass: 2
Flags: MW
HStem: -12 36<180.5 209.5> 444 24<192.5 241.5> 548 96<121 147 309 335>
VStem: 46 84<68 138.5 68 161> 78 47<381 389> 86 96<583 609> 274 96<583 609> 308 72<84 84 150 245 245 245 266 326> 458 18<105.5 130>
LayerCount: 2
Fore
SplineSet
86 596 m 0x26
 86 622 108 644 134 644 c 0
 160 644 182 622 182 596 c 0
 182 570 160 548 134 548 c 0
 108 548 86 570 86 596 c 0x26
274 596 m 0
 274 622 296 644 322 644 c 0
 348 644 370 622 370 596 c 0
 370 570 348 548 322 548 c 0
 296 548 274 570 274 596 c 0
46 106 m 0xd180
 46 216 148 236 216 249 c 2
 308 266 l 1
 308 351 l 2
 308 421 268 444 215 444 c 0
 170 444 125 417 125 387 c 0
 125 375 129 364 143 362 c 0
 166 356 180 346 180 323 c 0
 180 293 158 284 136 284 c 0
 110 284 78 304 78 350 c 0xc980
 78 428 152 468 218 468 c 0
 294 468 380 432 380 326 c 2
 380 80 l 2
 380 47 389 30 411 30 c 0
 447 30 458 81 458 130 c 1
 476 130 l 1
 476 66 463 -12 396 -12 c 0
 337 -12 310 26 308 84 c 1
 303 86 l 1
 288 50 243 -12 176 -12 c 0
 120 -12 46 8 46 106 c 0xd180
130 103 m 0xd180
 130 33 169 24 192 24 c 0
 260 24 290 101 308 150 c 1
 308 245 l 1
 221 226 l 2
 156 212 130 174 130 103 c 0xd180
EndSplineSet
MultipleSubs2: "Multiple Substitution lookup 33 subtable" a uni0308
Substitution2: "'smcp' Lowercase to Small Capitals lookup 0 subtable" adieresis.sc
EndChar

StartChar: aring
Encoding: 229 229 165
Width: 494
GlyphClass: 2
Flags: MW
HStem: -12 36<180.5 209.5> 444 24<192.5 241.5> 500 24<207.5 248.5 207.5 255> 672 24<207.5 248.5>
VStem: 46 84<68 138.5 68 161> 78 47<381 389> 130 24<577.5 618.5 577.5 625> 302 24<577.5 618.5> 308 72<84 84 150 245 245 245 266 326> 458 18<105.5 130>
LayerCount: 2
Fore
SplineSet
154 598 m 0x33
 154 557 187 524 228 524 c 0
 269 524 302 557 302 598 c 0
 302 639 269 672 228 672 c 0
 187 672 154 639 154 598 c 0x33
130 598 m 0
 130 652 174 696 228 696 c 0
 282 696 326 652 326 598 c 0
 326 544 282 500 228 500 c 0
 174 500 130 544 130 598 c 0
46 106 m 0xc8c0
 46 216 148 236 216 249 c 2
 308 266 l 1
 308 351 l 2
 308 421 268 444 215 444 c 0
 170 444 125 417 125 387 c 0
 125 375 129 364 143 362 c 0
 166 356 180 346 180 323 c 0
 180 293 158 284 136 284 c 0
 110 284 78 304 78 350 c 0xc4c0
 78 428 152 468 218 468 c 0
 294 468 380 432 380 326 c 2
 380 80 l 2
 380 47 389 30 411 30 c 0
 447 30 458 81 458 130 c 1
 476 130 l 1
 476 66 463 -12 396 -12 c 0
 337 -12 310 26 308 84 c 1
 303 86 l 1
 288 50 243 -12 176 -12 c 0
 120 -12 46 8 46 106 c 0xc8c0
130 103 m 0xc8c0
 130 33 169 24 192 24 c 0
 260 24 290 101 308 150 c 1
 308 245 l 1
 221 226 l 2
 156 212 130 174 130 103 c 0xc8c0
EndSplineSet
MultipleSubs2: "Multiple Substitution lookup 33 subtable" a uni030A
EndChar

StartChar: ae
Encoding: 230 230 166
Width: 700
GlyphClass: 2
LigCaretCntFixed: 1
Flags: MW
HStem: -12 24<452 523.5 452 542.5> -12 36<180.5 209.5> 230 24<380 570 380 625 380 570> 444 24<192.5 241.5 456.5 514.5>
VStem: 46 84<68 138.5 68 161> 78 47<381 389> 308 72<169 242 266 301.5 169 351> 570 86<254 296.5 240 300> 636 24<156 156>
AnchorPoint: "Anchor-2" 356 0 basechar 0
AnchorPoint: "Anchor-1" 356 528 basechar 0
AnchorPoint: "Anchor-0" 356 508 basechar 0
LayerCount: 2
Fore
SplineSet
46 106 m 0x7a80
 46 216 148 236 216 249 c 2
 308 266 l 1
 308 351 l 2
 308 421 268 444 215 444 c 0
 170 444 125 417 125 387 c 0
 125 375 129 364 143 362 c 0
 166 356 180 346 180 323 c 0
 180 293 158 284 136 284 c 0
 110 284 78 304 78 350 c 0
 78 428 152 468 218 468 c 0
 270 468 326 452 357 408 c 1
 390 448 431 468 482 468 c 0
 612 468 656 345 656 248 c 0x77
 656 232 646 230 625 230 c 2
 380 230 l 1
 380 108 406 12 498 12 c 0
 549 12 620 48 636 156 c 1
 660 156 l 1
 652 62 591 -12 494 -12 c 0xb280
 398 -12 348 41 323 92 c 1
 319 92 l 1
 301 50 243 -12 176 -12 c 0
 120 -12 46 8 46 106 c 0x7a80
130 103 m 0x7a
 130 33 169 24 192 24 c 0
 260 24 299 77 314 114 c 1
 308 158 308 218 308 242 c 1
 221 226 l 2
 156 214 130 174 130 103 c 0x7a
380 254 m 1
 570 254 l 1x33
 570 346 549 444 480 444 c 0
 408 444 380 349 380 254 c 1
EndSplineSet
Ligature2: "'rlig' Required Ligatures lookup 24 subtable" a afii301 e
Substitution2: "'smcp' Lowercase to Small Capitals lookup 0 subtable" ae.sc
LCarets2: 1 344
EndChar

StartChar: ccedilla
Encoding: 231 231 167
Width: 436
GlyphClass: 2
Flags: MW
HStem: -212 18<224 269.5 224 283> -98 48<240 250 209 266> -11 23<223 223> 444 24<198.5 280>
VStem: 48 88<166 292 164 294> 308 38<-143 -130> 342 52<315 389> 378 24<156 156>
LayerCount: 2
Fore
SplineSet
184 -122 m 0xfd
 225 -122 197 -194 251 -194 c 0
 288 -194 308 -176 308 -146 c 0xfd
 308 -114 289 -98 250 -98 c 2
 209 -98 l 1
 223 -11 l 1
 115 1 48 104 48 228 c 0
 48 360 127 468 244 468 c 0
 341 468 394 397 394 337 c 0
 394 293 368 271 339 271 c 0
 312 271 292 291 292 315 c 0
 292 341 310 356 326 361 c 0
 338 365 342 371 342 379 c 0xfa
 342 399 316 444 244 444 c 0
 153 444 136 356 136 228 c 0
 136 100 152 12 244 12 c 0
 333 12 370 91 378 156 c 1
 402 156 l 1
 397 81 349 -12 246 -12 c 1
 240 -50 l 1
 266 -50 l 2
 306 -50 346 -72 346 -122 c 0
 346 -164 322 -212 244 -212 c 0
 204 -212 160 -191 160 -149 c 0
 160 -135 170 -122 184 -122 c 0xfd
EndSplineSet
Ligature2: "'ccmp' Glyph Composition/Decomposition lookup 3 subtable" c uni0327
Substitution2: "'smcp' Lowercase to Small Capitals lookup 0 subtable" ccedilla.sc
EndChar

StartChar: egrave
Encoding: 232 232 168
Width: 460
GlyphClass: 2
Flags: MW
HStem: -12 24<212 283.5 212 302.5> 230 24<136 330 136 385 136 330> 444 24<204 274.5> 508 176<115 252>
VStem: 48 88<169 230 254 290> 96 169<519 662> 330 86<254 296.5 240 300> 396 24<156 156>
LayerCount: 2
Fore
SplineSet
96 653 m 0x14
 96 671 106 684 124 684 c 0
 142 684 155 677 173 652 c 2
 265 519 l 1
 252 508 l 1
 124 609 l 2
 108 621 96 635 96 653 c 0x14
48 226 m 0xe9
 48 354 128 468 242 468 c 0
 372 468 416 345 416 248 c 0xea
 416 232 406 230 385 230 c 2
 136 230 l 1
 136 108 166 12 258 12 c 0
 309 12 380 48 396 156 c 1
 420 156 l 1
 412 62 351 -12 254 -12 c 0
 132 -12 48 74 48 226 c 0xe9
136 254 m 1
 330 254 l 1
 330 346 309 444 240 444 c 0
 168 444 136 350 136 254 c 1
EndSplineSet
Substitution2: "'smcp' Lowercase to Small Capitals lookup 0 subtable" egrave.sc
EndChar

StartChar: eacute
Encoding: 233 233 169
Width: 460
GlyphClass: 2
Flags: MW
HStem: -12 24<212 283.5 212 302.5> 230 24<136 330 136 385 136 330> 444 24<204 274.5> 508 176<228 365>
VStem: 48 88<169 230 254 290> 215 169<519 662> 330 86<254 296.5 240 300> 396 24<156 156>
LayerCount: 2
Fore
SplineSet
215 519 m 1x14
 307 652 l 2
 325 677 338 684 356 684 c 0
 374 684 384 671 384 653 c 0
 384 635 372 621 356 609 c 2
 228 508 l 1
 215 519 l 1x14
48 226 m 0xe9
 48 354 128 468 242 468 c 0
 372 468 416 345 416 248 c 0xea
 416 232 406 230 385 230 c 2
 136 230 l 1
 136 108 166 12 258 12 c 0
 309 12 380 48 396 156 c 1
 420 156 l 1
 412 62 351 -12 254 -12 c 0
 132 -12 48 74 48 226 c 0xe9
136 254 m 1
 330 254 l 1
 330 346 309 444 240 444 c 0
 168 444 136 350 136 254 c 1
EndSplineSet
Substitution2: "'smcp' Lowercase to Small Capitals lookup 0 subtable" eacute.sc
EndChar

StartChar: ecircumflex
Encoding: 234 234 170
Width: 460
GlyphClass: 2
Flags: MW
HStem: -12 24<212 283.5 212 302.5> 230 24<136 330 136 385 136 330> 444 24<204 274.5> 508 164<118 260 220 362>
VStem: 48 88<169 230 254 290> 109 262<521 521> 330 86<254 296.5 240 300> 396 24<156 156>
LayerCount: 2
Fore
SplineSet
109 521 m 1x14
 174 563 204 626 220 672 c 1
 260 672 l 1
 276 626 306 563 371 521 c 1
 362 508 l 1
 320 530 276 562 240 600 c 1
 204 562 160 530 118 508 c 1
 109 521 l 1x14
48 226 m 0xe9
 48 354 128 468 242 468 c 0
 372 468 416 345 416 248 c 0xea
 416 232 406 230 385 230 c 2
 136 230 l 1
 136 108 166 12 258 12 c 0
 309 12 380 48 396 156 c 1
 420 156 l 1
 412 62 351 -12 254 -12 c 0
 132 -12 48 74 48 226 c 0xe9
136 254 m 1
 330 254 l 1
 330 346 309 444 240 444 c 0
 168 444 136 350 136 254 c 1
EndSplineSet
Substitution2: "'smcp' Lowercase to Small Capitals lookup 0 subtable" ecircumflex.sc
EndChar

StartChar: edieresis
Encoding: 235 235 171
Width: 460
GlyphClass: 2
Flags: MW
HStem: -12 24<212 283.5 212 302.5> 230 24<136 330 136 385 136 330> 444 24<204 274.5> 548 96<133 159 321 347>
VStem: 48 88<169 230 254 290> 98 96<583 609> 286 96<583 609> 330 86<254 296.5 240 300> 396 24<156 156>
LayerCount: 2
Fore
SplineSet
98 596 m 0x16
 98 622 120 644 146 644 c 0
 172 644 194 622 194 596 c 0
 194 570 172 548 146 548 c 0
 120 548 98 570 98 596 c 0x16
286 596 m 0
 286 622 308 644 334 644 c 0
 360 644 382 622 382 596 c 0
 382 570 360 548 334 548 c 0
 308 548 286 570 286 596 c 0
48 226 m 0xe880
 48 354 128 468 242 468 c 0
 372 468 416 345 416 248 c 0xe9
 416 232 406 230 385 230 c 2
 136 230 l 1
 136 108 166 12 258 12 c 0
 309 12 380 48 396 156 c 1
 420 156 l 1
 412 62 351 -12 254 -12 c 0
 132 -12 48 74 48 226 c 0xe880
136 254 m 1
 330 254 l 1
 330 346 309 444 240 444 c 0
 168 444 136 350 136 254 c 1
EndSplineSet
MultipleSubs2: "Multiple Substitution lookup 33 subtable" e uni0308
Substitution2: "'smcp' Lowercase to Small Capitals lookup 0 subtable" edieresis.sc
EndChar

StartChar: igrave
Encoding: 236 236 172
Width: 270
GlyphClass: 2
Flags: MW
HStem: 0 24<38 80 38 80 80 88 196 238> 432 24<38 80 38 174> 508 176<7 144>
VStem: -12 169<519 662> 102 72<46 410 410 418>
LayerCount: 2
Fore
SplineSet
-12 653 m 0x30
 -12 671 -2 684 16 684 c 0
 34 684 47 677 65 652 c 2
 157 519 l 1
 144 508 l 1
 16 609 l 2
 0 621 -12 635 -12 653 c 0x30
38 0 m 1xc8
 38 24 l 1
 80 24 l 2
 96 24 102 30 102 46 c 2
 102 410 l 2
 102 426 96 432 80 432 c 2
 38 432 l 1
 38 456 l 1
 174 456 l 1
 174 46 l 2
 174 30 180 24 196 24 c 2
 238 24 l 1
 238 0 l 1
 38 0 l 1xc8
EndSplineSet
Substitution2: "'smcp' Lowercase to Small Capitals lookup 0 subtable" igrave.sc
EndChar

StartChar: iacute
Encoding: 237 237 173
Width: 270
GlyphClass: 2
Flags: MW
HStem: 0 24<38 80 38 80 80 88 196 238> 432 24<38 80 38 174> 508 176<120 257>
VStem: 102 72<46 410 410 418> 107 169<519 662>
LayerCount: 2
Fore
SplineSet
107 519 m 1x28
 199 652 l 2
 217 677 230 684 248 684 c 0
 266 684 276 671 276 653 c 0
 276 635 264 621 248 609 c 2
 120 508 l 1
 107 519 l 1x28
38 0 m 1xd0
 38 24 l 1
 80 24 l 2
 96 24 102 30 102 46 c 2
 102 410 l 2
 102 426 96 432 80 432 c 2
 38 432 l 1
 38 456 l 1
 174 456 l 1
 174 46 l 2
 174 30 180 24 196 24 c 2
 238 24 l 1
 238 0 l 1
 38 0 l 1xd0
EndSplineSet
Substitution2: "'smcp' Lowercase to Small Capitals lookup 0 subtable" iacute.sc
EndChar

StartChar: icircumflex
Encoding: 238 238 174
Width: 282
GlyphClass: 2
Flags: MW
HStem: 0 24<44 86 44 86 86 94 202 244> 432 24<44 86 44 180> 508 164<16 158 118 260>
VStem: 7 262<521 521> 108 72<46 410 410 418>
LayerCount: 2
Fore
SplineSet
7 521 m 1x30
 72 563 102 626 118 672 c 1
 158 672 l 1
 174 626 204 563 269 521 c 1
 260 508 l 1
 218 530 174 562 138 600 c 1
 102 562 58 530 16 508 c 1
 7 521 l 1x30
44 0 m 1xc8
 44 24 l 1
 86 24 l 2
 102 24 108 30 108 46 c 2
 108 410 l 2
 108 426 102 432 86 432 c 2
 44 432 l 1
 44 456 l 1
 180 456 l 1
 180 46 l 2
 180 30 186 24 202 24 c 2
 244 24 l 1
 244 0 l 1
 44 0 l 1xc8
EndSplineSet
Substitution2: "'smcp' Lowercase to Small Capitals lookup 0 subtable" icircumflex.sc
EndChar

StartChar: idieresis
Encoding: 239 239 175
Width: 282
GlyphClass: 2
Flags: MW
HStem: 0 24<50 92 50 92 92 100 208 250> 432 24<50 92 50 186> 548 96<46 72 214 240>
VStem: 11 96<583 609> 114 72<46 410 410 418> 179 96<583 609>
LayerCount: 2
Fore
SplineSet
11 596 m 0x34
 11 622 33 644 59 644 c 0
 85 644 107 622 107 596 c 0
 107 570 85 548 59 548 c 0
 33 548 11 570 11 596 c 0x34
179 596 m 0
 179 622 201 644 227 644 c 0
 253 644 275 622 275 596 c 0
 275 570 253 548 227 548 c 0
 201 548 179 570 179 596 c 0
50 0 m 1xc8
 50 24 l 1
 92 24 l 2
 108 24 114 30 114 46 c 2
 114 410 l 2
 114 426 108 432 92 432 c 2
 50 432 l 1
 50 456 l 1
 186 456 l 1
 186 46 l 2
 186 30 192 24 208 24 c 2
 250 24 l 1
 250 0 l 1
 50 0 l 1xc8
EndSplineSet
MultipleSubs2: "Multiple Substitution lookup 33 subtable" dotlessi uni0308
Substitution2: "'smcp' Lowercase to Small Capitals lookup 0 subtable" idieresis.sc
EndChar

StartChar: eth
Encoding: 240 240 176
Width: 500
GlyphClass: 2
Flags: MW
HStem: -12 24<206 290 206 302> 444 24<206 259.5 192 290> 692 20G<108 204 204 204>
VStem: 48 88<164 292 164 294> 360 88<170 292>
LayerCount: 2
Fore
SplineSet
289 617 m 1
 425 449 448 332 448 258 c 0
 448 82 356 -12 248 -12 c 0
 136 -12 48 96 48 228 c 0
 48 360 136 468 248 468 c 0
 271 468 293 463 311 456 c 1
 314 460 l 1
 296 493 263 538 230 580 c 1
 122 513 l 1
 107 536 l 1
 211 601 l 1
 184 635 155 668 108 712 c 1
 204 712 l 1
 225 693 249 665 271 638 c 1
 379 706 l 1
 394 683 l 1
 289 617 l 1
136 228 m 0
 136 100 164 12 248 12 c 0
 332 12 360 100 360 228 c 0
 360 356 332 444 248 444 c 0
 164 444 136 356 136 228 c 0
EndSplineSet
EndChar

StartChar: ntilde
Encoding: 241 241 177
Width: 540
GlyphClass: 2
Flags: MW
HStem: 0 24<38 80 38 80 80 88 196 238 308 350 350 358 466 508> 432 24<38 80 38 174> 440 28<283.5 326> 560 50<332 358> 596 50<194 220>
VStem: 102 72<46 254 374 410 410 418> 134 17<554 558> 372 72<46 315> 401 17<648 652>
LayerCount: 2
Fore
SplineSet
332 560 m 0x1280
 279 560 243 596 197 596 c 0
 173 596 159 581 151 554 c 1
 134 558 l 1
 141 601 168 646 220 646 c 0x0a80
 273 646 309 610 355 610 c 0
 379 610 393 625 401 652 c 1
 418 648 l 1
 411 605 384 560 332 560 c 0x1280
38 0 m 1xa5
 38 24 l 1
 80 24 l 2
 96 24 102 30 102 46 c 2
 102 410 l 2
 102 426 96 432 80 432 c 2
 38 432 l 1
 38 456 l 1
 174 456 l 1xc5
 174 374 l 1
 178 373 l 1
 209 438 257 468 310 468 c 0
 417 468 444 385 444 315 c 2
 444 46 l 2
 444 30 450 24 466 24 c 2
 508 24 l 1
 508 0 l 1
 308 0 l 1
 308 24 l 1
 350 24 l 2
 366 24 372 30 372 46 c 2
 372 334 l 2
 372 382 357 440 295 440 c 0
 224 440 174 359 174 254 c 2
 174 46 l 2
 174 30 180 24 196 24 c 2
 238 24 l 1
 238 0 l 1
 38 0 l 1xa5
EndSplineSet
Substitution2: "'smcp' Lowercase to Small Capitals lookup 0 subtable" ntilde.sc
EndChar

StartChar: ograve
Encoding: 242 242 178
Width: 496
GlyphClass: 2
Flags: MW
HStem: -12 24<206 290 206 304> 444 24<206 290> 508 176<123 260>
VStem: 48 88<164 292 164 294> 104 169<519 662> 360 88<164 292>
LayerCount: 2
Fore
SplineSet
104 653 m 0x28
 104 671 114 684 132 684 c 0
 150 684 163 677 181 652 c 2
 273 519 l 1
 260 508 l 1
 132 609 l 2
 116 621 104 635 104 653 c 0x28
48 228 m 0xd4
 48 360 136 468 248 468 c 0
 360 468 448 360 448 228 c 0
 448 96 360 -12 248 -12 c 0
 136 -12 48 96 48 228 c 0xd4
136 228 m 0
 136 100 164 12 248 12 c 0
 332 12 360 100 360 228 c 0
 360 356 332 444 248 444 c 0
 164 444 136 356 136 228 c 0
EndSplineSet
Substitution2: "'smcp' Lowercase to Small Capitals lookup 0 subtable" ograve.sc
EndChar

StartChar: oacute
Encoding: 243 243 179
Width: 496
GlyphClass: 2
Flags: MW
HStem: -12 24<206 290 206 304> 444 24<206 290> 508 176<236 373>
VStem: 48 88<164 292 164 294> 223 169<519 662> 360 88<164 292>
LayerCount: 2
Fore
SplineSet
223 519 m 1x28
 315 652 l 2
 333 677 346 684 364 684 c 0
 382 684 392 671 392 653 c 0
 392 635 380 621 364 609 c 2
 236 508 l 1
 223 519 l 1x28
48 228 m 0xd4
 48 360 136 468 248 468 c 0
 360 468 448 360 448 228 c 0
 448 96 360 -12 248 -12 c 0
 136 -12 48 96 48 228 c 0xd4
136 228 m 0
 136 100 164 12 248 12 c 0
 332 12 360 100 360 228 c 0
 360 356 332 444 248 444 c 0
 164 444 136 356 136 228 c 0
EndSplineSet
Substitution2: "'smcp' Lowercase to Small Capitals lookup 0 subtable" oacute.sc
EndChar

StartChar: ocircumflex
Encoding: 244 244 180
Width: 496
GlyphClass: 2
Flags: MW
HStem: -12 24<206 290 206 304> 444 24<206 290> 508 164<126 268 228 370>
VStem: 48 88<164 292 164 294> 117 262<521 521> 360 88<164 292>
LayerCount: 2
Fore
SplineSet
117 521 m 1x28
 182 563 212 626 228 672 c 1
 268 672 l 1
 284 626 314 563 379 521 c 1
 370 508 l 1
 328 530 284 562 248 600 c 1
 212 562 168 530 126 508 c 1
 117 521 l 1x28
48 228 m 0xd4
 48 360 136 468 248 468 c 0
 360 468 448 360 448 228 c 0
 448 96 360 -12 248 -12 c 0
 136 -12 48 96 48 228 c 0xd4
136 228 m 0
 136 100 164 12 248 12 c 0
 332 12 360 100 360 228 c 0
 360 356 332 444 248 444 c 0
 164 444 136 356 136 228 c 0
EndSplineSet
Substitution2: "'smcp' Lowercase to Small Capitals lookup 0 subtable" ocircumflex.sc
EndChar

StartChar: otilde
Encoding: 245 245 181
Width: 496
GlyphClass: 2
Flags: MW
HStem: -12 24<206 290 206 304> 444 24<206 290> 560 50<304 330> 596 50<166 192>
VStem: 48 88<164 292 164 294> 106 17<554 558> 360 88<164 292> 373 17<648 652>
LayerCount: 2
Fore
SplineSet
304 560 m 0x25
 251 560 215 596 169 596 c 0
 145 596 131 581 123 554 c 1
 106 558 l 1
 113 601 140 646 192 646 c 0x15
 245 646 281 610 327 610 c 0
 351 610 365 625 373 652 c 1
 390 648 l 1
 383 605 356 560 304 560 c 0x25
48 228 m 0xca
 48 360 136 468 248 468 c 0
 360 468 448 360 448 228 c 0
 448 96 360 -12 248 -12 c 0
 136 -12 48 96 48 228 c 0xca
136 228 m 0
 136 100 164 12 248 12 c 0
 332 12 360 100 360 228 c 0
 360 356 332 444 248 444 c 0
 164 444 136 356 136 228 c 0
EndSplineSet
MultipleSubs2: "Multiple Substitution lookup 33 subtable" o tildecomb
EndChar

StartChar: odieresis
Encoding: 246 246 182
Width: 496
GlyphClass: 2
Flags: MW
HStem: -12 24<206 290 206 304> 444 24<206 290> 548 96<141 167 329 355>
VStem: 48 88<164 292 164 294> 106 96<583 609> 294 96<583 609> 360 88<164 292>
LayerCount: 2
Fore
SplineSet
106 596 m 0x2c
 106 622 128 644 154 644 c 0
 180 644 202 622 202 596 c 0
 202 570 180 548 154 548 c 0
 128 548 106 570 106 596 c 0x2c
294 596 m 0
 294 622 316 644 342 644 c 0
 368 644 390 622 390 596 c 0
 390 570 368 548 342 548 c 0
 316 548 294 570 294 596 c 0
48 228 m 0xd2
 48 360 136 468 248 468 c 0
 360 468 448 360 448 228 c 0
 448 96 360 -12 248 -12 c 0
 136 -12 48 96 48 228 c 0xd2
136 228 m 0
 136 100 164 12 248 12 c 0
 332 12 360 100 360 228 c 0
 360 356 332 444 248 444 c 0
 164 444 136 356 136 228 c 0
EndSplineSet
MultipleSubs2: "Multiple Substitution lookup 33 subtable" o uni0308
Substitution2: "'smcp' Lowercase to Small Capitals lookup 0 subtable" odieresis.sc
EndChar

StartChar: divide
Encoding: 247 247 183
Width: 940
GlyphClass: 2
Flags: MW
HStem: -56 124<452 488> 244 40<48 892 48 892> 456 124<452 488>
VStem: 408 124<-12 24 500 536>
LayerCount: 2
Fore
SplineSet
48 244 m 1
 48 284 l 1
 892 284 l 1
 892 244 l 1
 48 244 l 1
408 6 m 0
 408 42 434 68 470 68 c 0
 506 68 532 42 532 6 c 0
 532 -30 506 -56 470 -56 c 0
 434 -56 408 -30 408 6 c 0
408 518 m 0
 408 554 434 580 470 580 c 0
 506 580 532 554 532 518 c 0
 532 482 506 456 470 456 c 0
 434 456 408 482 408 518 c 0
EndSplineSet
EndChar

StartChar: oslash
Encoding: 248 248 184
Width: 496
GlyphClass: 2
Flags: MW
HStem: -12 24<224 290 224 304> 444 24<206 272>
VStem: 48 88<208.5 292 208.5 294> 360 88<164 247.5>
AnchorPoint: "Anchor-2" 248 0 basechar 0
AnchorPoint: "Anchor-1" 248 528 basechar 0
AnchorPoint: "Anchor-0" 248 508 basechar 0
LayerCount: 2
Fore
SplineSet
136 228 m 0
 136 189 139 154 145 124 c 1
 343 366 l 1
 326 415 296 444 248 444 c 0
 164 444 136 356 136 228 c 0
48 6 m 1
 99 68 l 1
 67 110 48 167 48 228 c 0
 48 360 136 468 248 468 c 0
 298 468 344 446 379 410 c 1
 426 468 l 1
 448 450 l 1
 397 388 l 1
 429 346 448 289 448 228 c 0
 448 96 360 -12 248 -12 c 0
 198 -12 152 10 117 46 c 1
 70 -12 l 1
 48 6 l 1
153 90 m 1
 170 41 200 12 248 12 c 0
 332 12 360 100 360 228 c 0
 360 267 357 302 351 332 c 1
 153 90 l 1
EndSplineSet
EndChar

StartChar: ugrave
Encoding: 249 249 185
Width: 534
GlyphClass: 2
Flags: MW
HStem: -12 28<214 256.5> 0 24<460 502 460 502> 432 24<32 168 32 74 302 344> 508 176<137 274>
VStem: 96 72<141 410 410 418> 118 169<519 662> 366 72<38 46 46 82 82 82 202 410 410 418>
LayerCount: 2
Fore
SplineSet
118 653 m 0x14
 118 671 128 684 146 684 c 0
 164 684 177 677 195 652 c 2
 287 519 l 1
 274 508 l 1
 146 609 l 2
 130 621 118 635 118 653 c 0x14
32 432 m 1xaa
 32 456 l 1
 168 456 l 1
 168 122 l 2
 168 74 183 16 245 16 c 0xaa
 316 16 366 97 366 202 c 2
 366 410 l 2
 366 426 360 432 344 432 c 2
 302 432 l 1
 302 456 l 1
 438 456 l 1
 438 46 l 2
 438 30 444 24 460 24 c 2
 502 24 l 1
 502 0 l 1
 366 0 l 1x6a
 366 82 l 1
 362 83 l 1
 331 18 283 -12 230 -12 c 0
 123 -12 96 71 96 141 c 2
 96 410 l 2
 96 426 90 432 74 432 c 2
 32 432 l 1xaa
EndSplineSet
Substitution2: "'smcp' Lowercase to Small Capitals lookup 0 subtable" ugrave.sc
EndChar

StartChar: uacute
Encoding: 250 250 186
Width: 534
GlyphClass: 2
Flags: MW
HStem: -12 28<214 256.5> 0 24<460 502 460 502> 432 24<32 168 32 74 302 344> 508 176<250 387>
VStem: 96 72<141 410 410 418> 237 169<519 662> 366 72<38 46 46 82 82 82 202 410 410 418>
LayerCount: 2
Fore
SplineSet
237 519 m 1x14
 329 652 l 2
 347 677 360 684 378 684 c 0
 396 684 406 671 406 653 c 0
 406 635 394 621 378 609 c 2
 250 508 l 1
 237 519 l 1x14
32 432 m 1xaa
 32 456 l 1
 168 456 l 1
 168 122 l 2
 168 74 183 16 245 16 c 0xaa
 316 16 366 97 366 202 c 2
 366 410 l 2
 366 426 360 432 344 432 c 2
 302 432 l 1
 302 456 l 1
 438 456 l 1
 438 46 l 2
 438 30 444 24 460 24 c 2
 502 24 l 1
 502 0 l 1
 366 0 l 1x6a
 366 82 l 1
 362 83 l 1
 331 18 283 -12 230 -12 c 0
 123 -12 96 71 96 141 c 2
 96 410 l 2
 96 426 90 432 74 432 c 2
 32 432 l 1xaa
EndSplineSet
Substitution2: "'smcp' Lowercase to Small Capitals lookup 0 subtable" uacute.sc
EndChar

StartChar: ucircumflex
Encoding: 251 251 187
Width: 534
GlyphClass: 2
Flags: MW
HStem: -12 28<214 256.5> 0 24<460 502 460 502> 432 24<32 168 32 74 302 344> 508 164<140 282 242 384>
VStem: 96 72<141 410 410 418> 131 262<521 521> 366 72<38 46 46 82 82 82 202 410 410 418>
LayerCount: 2
Fore
SplineSet
131 521 m 1x14
 196 563 226 626 242 672 c 1
 282 672 l 1
 298 626 328 563 393 521 c 1
 384 508 l 1
 342 530 298 562 262 600 c 1
 226 562 182 530 140 508 c 1
 131 521 l 1x14
32 432 m 1xaa
 32 456 l 1
 168 456 l 1
 168 122 l 2
 168 74 183 16 245 16 c 0xaa
 316 16 366 97 366 202 c 2
 366 410 l 2
 366 426 360 432 344 432 c 2
 302 432 l 1
 302 456 l 1
 438 456 l 1
 438 46 l 2
 438 30 444 24 460 24 c 2
 502 24 l 1
 502 0 l 1
 366 0 l 1x6a
 366 82 l 1
 362 83 l 1
 331 18 283 -12 230 -12 c 0
 123 -12 96 71 96 141 c 2
 96 410 l 2
 96 426 90 432 74 432 c 2
 32 432 l 1xaa
EndSplineSet
Substitution2: "'smcp' Lowercase to Small Capitals lookup 0 subtable" ucircumflex.sc
EndChar

StartChar: udieresis
Encoding: 252 252 188
Width: 534
GlyphClass: 2
Flags: MW
HStem: -12 28<214 256.5> 0 24<460 502 460 502> 432 24<32 168 32 74 302 344> 548 96<155 181 343 369>
VStem: 96 72<141 410 410 418> 120 96<583 609> 308 96<583 609> 366 72<38 46 46 82 82 82 202 410 410 418>
LayerCount: 2
Fore
SplineSet
120 596 m 0x16
 120 622 142 644 168 644 c 0
 194 644 216 622 216 596 c 0
 216 570 194 548 168 548 c 0
 142 548 120 570 120 596 c 0x16
308 596 m 0
 308 622 330 644 356 644 c 0
 382 644 404 622 404 596 c 0
 404 570 382 548 356 548 c 0
 330 548 308 570 308 596 c 0
32 432 m 1xa9
 32 456 l 1
 168 456 l 1
 168 122 l 2
 168 74 183 16 245 16 c 0xa9
 316 16 366 97 366 202 c 2
 366 410 l 2
 366 426 360 432 344 432 c 2
 302 432 l 1
 302 456 l 1
 438 456 l 1
 438 46 l 2
 438 30 444 24 460 24 c 2
 502 24 l 1
 502 0 l 1
 366 0 l 1x69
 366 82 l 1
 362 83 l 1
 331 18 283 -12 230 -12 c 0
 123 -12 96 71 96 141 c 2
 96 410 l 2
 96 426 90 432 74 432 c 2
 32 432 l 1xa9
EndSplineSet
MultipleSubs2: "Multiple Substitution lookup 33 subtable" u uni0308
Substitution2: "'smcp' Lowercase to Small Capitals lookup 0 subtable" udieresis.sc
EndChar

StartChar: yacute
Encoding: 253 253 189
Width: 530
GlyphClass: 2
Flags: MW
HStem: -238 32<135.5 166 135.5 168> 432 24<18 51 18 244 205 212 212 244 324 348 469.5 483 483 506> 508 176<264 401>
VStem: 42 82<-194 -132.5> 251 169<519 662>
LayerCount: 2
Fore
SplineSet
251 519 m 1
 343 652 l 2
 361 677 374 684 392 684 c 0
 410 684 420 671 420 653 c 0
 420 635 408 621 392 609 c 2
 264 508 l 1
 251 519 l 1
138 -144 m 0
 138 -162 124 -178 124 -191 c 0
 124 -197 127 -206 144 -206 c 0
 188 -206 214 -164 225 -127 c 2
 252 -40 l 1
 110 373 l 2
 97 409 87 432 51 432 c 2
 18 432 l 1
 18 456 l 1
 244 456 l 1
 244 432 l 1
 212 432 l 2
 198 432 180 424 180 408 c 0
 180 402 180 391 186 375 c 2
 290 68 l 1
 373 342 l 2
 379 359 384 385 384 393 c 0
 384 415 370 432 348 432 c 2
 324 432 l 1
 324 456 l 1
 506 456 l 1
 506 432 l 1
 483 432 l 2
 456 432 428 415 414 373 c 2
 253 -139 l 2
 241 -179 202 -238 134 -238 c 0
 68 -238 42 -183 42 -150 c 0
 42 -115 67 -93 92 -93 c 0
 125 -93 138 -118 138 -144 c 0
EndSplineSet
EndChar

StartChar: thorn
Encoding: 254 254 190
Width: 500
GlyphClass: 2
Flags: MW
HStem: 424 44<307.5 325> 664 20G<142 170 170 170>
VStem: 98 72<-178 0 27 232 352 608 608 614> 364 88<289 361>
LayerCount: 2
Fore
SplineSet
452 349 m 0
 452 229 333 74 170 0 c 1
 170 -199 l 1
 36 -252 l 1
 26 -228 l 1
 78 -206 l 2
 91 -200 98 -194 98 -178 c 2
 98 608 l 2
 98 620 93 626 82 626 c 0
 78 626 73 625 66 622 c 2
 36 611 l 1
 26 635 l 1
 142 684 l 1
 170 684 l 1
 170 352 l 1
 176 350 l 1
 214 425 279 468 336 468 c 0
 389 468 452 438 452 349 c 0
170 27 m 1
 204 44 233 63 260 88 c 0
 326 149 364 241 364 334 c 0
 364 388 348 424 302 424 c 0
 242 424 170 323 170 232 c 2
 170 27 l 1
EndSplineSet
EndChar

StartChar: ydieresis
Encoding: 255 255 191
Width: 530
GlyphClass: 2
Flags: MW
HStem: -238 32<135.5 166 135.5 168> 432 24<18 51 18 244 205 212 212 244 324 348 469.5 483 483 506> 548 96<169 195 357 383>
VStem: 42 82<-194 -132.5> 134 96<583 609> 322 96<583 609>
LayerCount: 2
Fore
SplineSet
134 596 m 0
 134 622 156 644 182 644 c 0
 208 644 230 622 230 596 c 0
 230 570 208 548 182 548 c 0
 156 548 134 570 134 596 c 0
322 596 m 0
 322 622 344 644 370 644 c 0
 396 644 418 622 418 596 c 0
 418 570 396 548 370 548 c 0
 344 548 322 570 322 596 c 0
138 -144 m 0
 138 -162 124 -178 124 -191 c 0
 124 -197 127 -206 144 -206 c 0
 188 -206 214 -164 225 -127 c 2
 252 -40 l 1
 110 373 l 2
 97 409 87 432 51 432 c 2
 18 432 l 1
 18 456 l 1
 244 456 l 1
 244 432 l 1
 212 432 l 2
 198 432 180 424 180 408 c 0
 180 402 180 391 186 375 c 2
 290 68 l 1
 373 342 l 2
 379 359 384 385 384 393 c 0
 384 415 370 432 348 432 c 2
 324 432 l 1
 324 456 l 1
 506 456 l 1
 506 432 l 1
 483 432 l 2
 456 432 428 415 414 373 c 2
 253 -139 l 2
 241 -179 202 -238 134 -238 c 0
 68 -238 42 -183 42 -150 c 0
 42 -115 67 -93 92 -93 c 0
 125 -93 138 -118 138 -144 c 0
EndSplineSet
MultipleSubs2: "Multiple Substitution lookup 33 subtable" y uni0308
EndChar

StartChar: Amacron
Encoding: 256 256 192
Width: 764
GlyphClass: 2
Flags: MW
HStem: 0 32<46 83 46 83 83 108.5 259 320 432 498 498 508 686 742> 212 32<259 471 259 482 248 471> 692 20G<384 409 409 409> 822 40<260 532 260 532>
VStem: 260 272<822 862 822 862>
LayerCount: 2
Fore
SplineSet
260 822 m 1
 260 862 l 1
 532 862 l 1
 532 822 l 1
 260 822 l 1
46 0 m 1
 46 32 l 1
 83 32 l 2
 134 32 157 73 169 105 c 2
 384 712 l 1
 409 712 l 1
 626 76 l 2
 640 41 659 32 686 32 c 2
 742 32 l 1
 742 0 l 1
 432 0 l 1
 432 32 l 1
 498 32 l 2
 518 32 533 44 533 57 c 0
 533 63 532 72 529 79 c 2
 482 212 l 1
 248 212 l 1
 224 145 l 2
 217 125 210 104 210 87 c 0
 210 65 218 32 259 32 c 2
 320 32 l 1
 320 0 l 1
 46 0 l 1
259 244 m 1
 471 244 l 1
 367 549 l 1
 259 244 l 1
EndSplineSet
MultipleSubs2: "Multiple Substitution lookup 33 subtable" A macroncmb
Substitution2: "'c2sc' Capitals to Small Capitals lookup 1 subtable" amacron.sc
EndChar

StartChar: amacron
Encoding: 257 257 193
Width: 494
GlyphClass: 2
Flags: MW
HStem: -12 36<180.5 209.5> 444 24<192.5 241.5> 572 40<98 358 98 358>
VStem: 46 84<68 138.5 68 161> 78 47<381 389> 98 260<572 612 572 612> 308 72<84 84 150 245 245 245 266 326> 458 18<105.5 130>
LayerCount: 2
Fore
SplineSet
98 572 m 1x24
 98 612 l 1
 358 612 l 1
 358 572 l 1
 98 572 l 1x24
46 106 m 0xd3
 46 216 148 236 216 249 c 2
 308 266 l 1
 308 351 l 2
 308 421 268 444 215 444 c 0
 170 444 125 417 125 387 c 0
 125 375 129 364 143 362 c 0
 166 356 180 346 180 323 c 0
 180 293 158 284 136 284 c 0
 110 284 78 304 78 350 c 0xcb
 78 428 152 468 218 468 c 0
 294 468 380 432 380 326 c 2
 380 80 l 2
 380 47 389 30 411 30 c 0
 447 30 458 81 458 130 c 1
 476 130 l 1
 476 66 463 -12 396 -12 c 0
 337 -12 310 26 308 84 c 1
 303 86 l 1
 288 50 243 -12 176 -12 c 0
 120 -12 46 8 46 106 c 0xd3
130 103 m 0xd3
 130 33 169 24 192 24 c 0
 260 24 290 101 308 150 c 1
 308 245 l 1
 221 226 l 2
 156 212 130 174 130 103 c 0xd3
EndSplineSet
MultipleSubs2: "Multiple Substitution lookup 33 subtable" a macroncmb
Substitution2: "'smcp' Lowercase to Small Capitals lookup 0 subtable" amacron.sc
EndChar

StartChar: Abreve
Encoding: 258 258 194
Width: 764
GlyphClass: 2
Flags: MW
HStem: 0 32<46 83 46 83 83 108.5 259 320 432 498 498 508 686 742> 212 32<259 471 259 482 248 471> 692 20G<384 409 409 409> 762 46<359 433 359 449>
VStem: 245 28<886 916> 519 28<886 916>
LayerCount: 2
Fore
SplineSet
245 916 m 1
 273 916 l 1
 283 868 322 808 396 808 c 0
 470 808 509 868 519 916 c 1
 547 916 l 1
 547 856 502 762 396 762 c 0
 290 762 245 856 245 916 c 1
46 0 m 1
 46 32 l 1
 83 32 l 2
 134 32 157 73 169 105 c 2
 384 712 l 1
 409 712 l 1
 626 76 l 2
 640 41 659 32 686 32 c 2
 742 32 l 1
 742 0 l 1
 432 0 l 1
 432 32 l 1
 498 32 l 2
 518 32 533 44 533 57 c 0
 533 63 532 72 529 79 c 2
 482 212 l 1
 248 212 l 1
 224 145 l 2
 217 125 210 104 210 87 c 0
 210 65 218 32 259 32 c 2
 320 32 l 1
 320 0 l 1
 46 0 l 1
259 244 m 1
 471 244 l 1
 367 549 l 1
 259 244 l 1
EndSplineSet
MultipleSubs2: "Multiple Substitution lookup 33 subtable" A brevecmb
EndChar

StartChar: abreve
Encoding: 259 259 195
Width: 494
GlyphClass: 2
Flags: MW
HStem: -12 36<180.5 209.5> 444 24<192.5 241.5> 526 40<187 269 187 276>
VStem: 46 84<68 138.5 68 161> 78 47<381 389> 90 22<642 666> 308 72<84 84 150 245 245 245 266 326> 344 22<642 666> 458 18<105.5 130>
LayerCount: 2
Fore
SplineSet
90 666 m 1x25
 112 666 l 1
 118 624 146 566 228 566 c 0
 310 566 338 624 344 666 c 1
 366 666 l 1
 366 618 324 526 228 526 c 0
 132 526 90 618 90 666 c 1x25
46 106 m 0xd280
 46 216 148 236 216 249 c 2
 308 266 l 1
 308 351 l 2
 308 421 268 444 215 444 c 0
 170 444 125 417 125 387 c 0
 125 375 129 364 143 362 c 0
 166 356 180 346 180 323 c 0
 180 293 158 284 136 284 c 0
 110 284 78 304 78 350 c 0xca80
 78 428 152 468 218 468 c 0
 294 468 380 432 380 326 c 2
 380 80 l 2
 380 47 389 30 411 30 c 0
 447 30 458 81 458 130 c 1
 476 130 l 1
 476 66 463 -12 396 -12 c 0
 337 -12 310 26 308 84 c 1
 303 86 l 1
 288 50 243 -12 176 -12 c 0
 120 -12 46 8 46 106 c 0xd280
130 103 m 0xd280
 130 33 169 24 192 24 c 0
 260 24 290 101 308 150 c 1
 308 245 l 1
 221 226 l 2
 156 212 130 174 130 103 c 0xd280
EndSplineSet
MultipleSubs2: "Multiple Substitution lookup 33 subtable" a brevecmb
EndChar

StartChar: Aogonek
Encoding: 260 260 196
Width: 764
GlyphClass: 2
Flags: MW
HStem: -238 44<555 574> -187 20G<634 634> 0 32<46 83 46 83 83 108.5 259 320 432 498 498 508 686 742> 212 32<259 471 259 482 248 471> 692 20G<384 409 409 409>
VStem: 452 68<-150.5 -116>
AnchorPoint: "Anchor-1" 396 782 basechar 0
AnchorPoint: "Anchor-0" 396 762 basechar 0
LayerCount: 2
Fore
SplineSet
46 0 m 1
 46 32 l 1
 83 32 l 2
 134 32 157 73 169 105 c 2
 384 712 l 1
 409 712 l 1
 626 76 l 2
 640 41 659 32 686 32 c 2
 742 32 l 1
 742 0 l 1
 616 0 l 1
 566 -25 520 -70 520 -135 c 0
 520 -166 538 -194 572 -194 c 0
 603 -194 618 -184 634 -167 c 1
 646 -176 l 1
 632 -202 601 -238 547 -238 c 0
 488 -238 452 -202 452 -148 c 0
 452 -84 507 -37 564 -5 c 1
 562 0 l 1
 432 0 l 1
 432 32 l 1
 498 32 l 2
 518 32 533 44 533 57 c 0
 533 63 532 72 529 79 c 2
 482 212 l 1
 248 212 l 1
 224 145 l 2
 217 125 210 104 210 87 c 0
 210 65 218 32 259 32 c 2
 320 32 l 1
 320 0 l 1
 46 0 l 1
259 244 m 1
 471 244 l 1
 367 549 l 1
 259 244 l 1
EndSplineSet
Ligature2: "'ccmp' Glyph Composition/Decomposition lookup 3 subtable" afii10017 uni0328
Ligature2: "'ccmp' Glyph Composition/Decomposition lookup 3 subtable" A uni0328
EndChar

StartChar: aogonek
Encoding: 261 261 197
Width: 494
GlyphClass: 2
Flags: MW
HStem: -220 44<359 374.5> -12 36<180.5 209.5> 444 24<192.5 241.5>
VStem: 46 84<68 138.5 68 161> 78 47<381 389> 274 56<-143 -115> 308 72<84 84 150 245 245 245 266 326> 458 18<105.5 130>
AnchorPoint: "Anchor-1" 228 528 basechar 0
AnchorPoint: "Anchor-0" 228 508 basechar 0
LayerCount: 2
Fore
SplineSet
130 103 m 0xf3
 130 33 169 24 192 24 c 0
 260 24 290 101 308 150 c 1
 308 245 l 1
 221 226 l 2
 156 212 130 174 130 103 c 0xf3
46 106 m 0
 46 216 148 236 216 249 c 2
 308 266 l 1
 308 351 l 2
 308 421 268 444 215 444 c 0
 170 444 125 417 125 387 c 0
 125 375 129 364 143 362 c 0
 166 356 180 346 180 323 c 0
 180 293 158 284 136 284 c 0
 110 284 78 304 78 350 c 0
 78 428 152 468 218 468 c 0
 294 468 380 432 380 326 c 2
 380 80 l 2xeb
 380 47 389 30 411 30 c 0
 447 30 458 81 458 130 c 1
 476 130 l 1
 476 64 465 7 414 -12 c 0
 368 -30 330 -77 330 -129 c 0
 330 -157 344 -176 374 -176 c 0
 400 -176 415 -162 432 -142 c 1
 446 -152 l 1
 429 -183 396 -220 353 -220 c 0
 310 -220 274 -190 274 -142 c 0xe5
 274 -88 321 -45 372 -12 c 1
 372 -10 l 1
 330 0 310 35 308 84 c 1
 303 86 l 1
 288 50 243 -12 176 -12 c 0
 120 -12 46 8 46 106 c 0
EndSplineSet
Ligature2: "'ccmp' Glyph Composition/Decomposition lookup 3 subtable" afii10065 uni0328
Ligature2: "'ccmp' Glyph Composition/Decomposition lookup 3 subtable" a uni0328
EndChar

StartChar: Cacute
Encoding: 262 262 198
Width: 670
GlyphClass: 2
Flags: MW
HStem: -18 32<289 435.5 289 462> 698 32<283.5 389.5> 702 20G<565 590 590 590> 762 176<336 473>
VStem: 70 106<268 462> 323 169<773 916> 566 28<412 412> 570 36<259 259>
LayerCount: 2
Fore
SplineSet
323 773 m 1x14
 415 906 l 2
 433 931 446 938 464 938 c 0
 482 938 492 925 492 907 c 0
 492 889 480 875 464 863 c 2
 336 762 l 1
 323 773 l 1x14
348 730 m 0xc9
 447 730 510 645 527 645 c 0
 538 645 542 654 546 666 c 2
 565 722 l 1
 590 722 l 1
 594 412 l 1
 566 412 l 1xaa
 521 611 429 698 350 698 c 0
 217 698 176 566 176 362 c 0
 176 158 212 14 366 14 c 0
 505 14 562 139 570 259 c 1
 606 259 l 1
 602 165 558 -18 366 -18 c 0
 172 -18 70 174 70 362 c 0
 70 562 175 730 348 730 c 0xc9
EndSplineSet
EndChar

StartChar: cacute
Encoding: 263 263 199
Width: 436
GlyphClass: 2
Flags: MW
HStem: -12 24<198 288.5 198 296.5> 444 24<198.5 280> 508 176<236 373>
VStem: 48 88<164 292 164 294> 223 169<519 662> 342 52<315 389> 378 24<156 156>
LayerCount: 2
Fore
SplineSet
223 519 m 1x28
 315 652 l 2
 333 677 346 684 364 684 c 0
 382 684 392 671 392 653 c 0
 392 635 380 621 364 609 c 2
 236 508 l 1
 223 519 l 1x28
48 228 m 0xd2
 48 360 127 468 244 468 c 0
 341 468 394 397 394 337 c 0
 394 293 368 271 339 271 c 0
 312 271 292 291 292 315 c 0
 292 341 310 356 326 361 c 0
 338 365 342 371 342 379 c 0xd4
 342 399 316 444 244 444 c 0
 153 444 136 356 136 228 c 0
 136 100 152 12 244 12 c 0
 333 12 370 91 378 156 c 1
 402 156 l 1
 397 81 349 -12 244 -12 c 0
 126 -12 48 96 48 228 c 0xd2
EndSplineSet
EndChar

StartChar: Ccircumflex
Encoding: 264 264 200
Width: 670
GlyphClass: 2
Flags: MW
HStem: -18 32<289 435.5 289 462> 698 32<283.5 389.5> 702 20G<565 590 590 590> 762 158<200 368 328 496>
VStem: 70 106<268 462> 190 316<778 778> 566 28<412 412> 570 36<259 259>
LayerCount: 2
Fore
SplineSet
190 778 m 1x14
 260 818 302 870 328 920 c 1
 368 920 l 1
 394 870 436 818 506 778 c 1
 496 762 l 1
 462 774 390 820 348 858 c 1
 306 820 234 774 200 762 c 1
 190 778 l 1x14
348 730 m 0xc9
 447 730 510 645 527 645 c 0
 538 645 542 654 546 666 c 2
 565 722 l 1
 590 722 l 1
 594 412 l 1
 566 412 l 1xaa
 521 611 429 698 350 698 c 0
 217 698 176 566 176 362 c 0
 176 158 212 14 366 14 c 0
 505 14 562 139 570 259 c 1
 606 259 l 1
 602 165 558 -18 366 -18 c 0
 172 -18 70 174 70 362 c 0
 70 562 175 730 348 730 c 0xc9
EndSplineSet
EndChar

StartChar: ccircumflex
Encoding: 265 265 201
Width: 436
GlyphClass: 2
Flags: MW
HStem: -12 24<198 288.5 198 296.5> 444 24<198.5 280> 508 164<126 268 228 370>
VStem: 48 88<164 292 164 294> 117 262<521 521> 342 52<315 389> 378 24<156 156>
LayerCount: 2
Fore
SplineSet
117 521 m 1x28
 182 563 212 626 228 672 c 1
 268 672 l 1
 284 626 314 563 379 521 c 1
 370 508 l 1
 328 530 284 562 248 600 c 1
 212 562 168 530 126 508 c 1
 117 521 l 1x28
48 228 m 0xd2
 48 360 127 468 244 468 c 0
 341 468 394 397 394 337 c 0
 394 293 368 271 339 271 c 0
 312 271 292 291 292 315 c 0
 292 341 310 356 326 361 c 0
 338 365 342 371 342 379 c 0xd4
 342 399 316 444 244 444 c 0
 153 444 136 356 136 228 c 0
 136 100 152 12 244 12 c 0
 333 12 370 91 378 156 c 1
 402 156 l 1
 397 81 349 -12 244 -12 c 0
 126 -12 48 96 48 228 c 0xd2
EndSplineSet
EndChar

StartChar: Cdotaccent
Encoding: 266 266 202
Width: 670
GlyphClass: 2
Flags: MW
HStem: -18 32<289 435.5 289 462> 698 32<283.5 389.5> 702 20G<565 590 590 590> 798 104<333 363>
VStem: 70 106<268 462> 296 104<835 865> 566 28<412 412> 570 36<259 259>
LayerCount: 2
Fore
SplineSet
296 850 m 0x14
 296 880 318 902 348 902 c 0
 378 902 400 880 400 850 c 0
 400 820 378 798 348 798 c 0
 318 798 296 820 296 850 c 0x14
348 730 m 0xc9
 447 730 510 645 527 645 c 0
 538 645 542 654 546 666 c 2
 565 722 l 1
 590 722 l 1
 594 412 l 1
 566 412 l 1xaa
 521 611 429 698 350 698 c 0
 217 698 176 566 176 362 c 0
 176 158 212 14 366 14 c 0
 505 14 562 139 570 259 c 1
 606 259 l 1
 602 165 558 -18 366 -18 c 0
 172 -18 70 174 70 362 c 0
 70 562 175 730 348 730 c 0xc9
EndSplineSet
EndChar

StartChar: cdotaccent
Encoding: 267 267 203
Width: 436
GlyphClass: 2
Flags: MW
HStem: -12 24<198 288.5 198 296.5> 444 24<198.5 280> 544 104<233 263>
VStem: 48 88<164 292 164 294> 196 104<581 611> 342 52<315 389> 378 24<156 156>
LayerCount: 2
Fore
SplineSet
196 596 m 0x28
 196 626 218 648 248 648 c 0
 278 648 300 626 300 596 c 0
 300 566 278 544 248 544 c 0
 218 544 196 566 196 596 c 0x28
48 228 m 0xd2
 48 360 127 468 244 468 c 0
 341 468 394 397 394 337 c 0
 394 293 368 271 339 271 c 0
 312 271 292 291 292 315 c 0
 292 341 310 356 326 361 c 0
 338 365 342 371 342 379 c 0xd4
 342 399 316 444 244 444 c 0
 153 444 136 356 136 228 c 0
 136 100 152 12 244 12 c 0
 333 12 370 91 378 156 c 1
 402 156 l 1
 397 81 349 -12 244 -12 c 0
 126 -12 48 96 48 228 c 0xd2
EndSplineSet
EndChar

StartChar: Ccaron
Encoding: 268 268 204
Width: 670
GlyphClass: 2
Flags: MW
HStem: -18 32<289 435.5 289 462> 698 32<283.5 389.5> 702 20G<565 590 590 590> 762 158<200 368 200 328>
VStem: 70 106<268 462> 188 320<906 906> 566 28<412 412> 570 36<259 259>
LayerCount: 2
Fore
SplineSet
188 906 m 1x14
 200 920 l 1
 348 824 l 1
 496 920 l 1
 508 906 l 1
 368 762 l 1
 328 762 l 1
 188 906 l 1x14
348 730 m 0xc9
 447 730 510 645 527 645 c 0
 538 645 542 654 546 666 c 2
 565 722 l 1
 590 722 l 1
 594 412 l 1
 566 412 l 1xaa
 521 611 429 698 350 698 c 0
 217 698 176 566 176 362 c 0
 176 158 212 14 366 14 c 0
 505 14 562 139 570 259 c 1
 606 259 l 1
 602 165 558 -18 366 -18 c 0
 172 -18 70 174 70 362 c 0
 70 562 175 730 348 730 c 0xc9
EndSplineSet
EndChar

StartChar: ccaron
Encoding: 269 269 205
Width: 436
GlyphClass: 2
Flags: MW
HStem: -12 24<198 288.5 198 296.5> 444 24<198.5 280> 508 164<129 268 129 228>
VStem: 48 88<164 292 164 294> 116 264<661 661> 342 52<315 389> 378 24<156 156>
LayerCount: 2
Fore
SplineSet
116 661 m 1x28
 129 672 l 1
 248 572 l 1
 367 672 l 1
 380 661 l 1
 268 508 l 1
 228 508 l 1
 116 661 l 1x28
48 228 m 0xd2
 48 360 127 468 244 468 c 0
 341 468 394 397 394 337 c 0
 394 293 368 271 339 271 c 0
 312 271 292 291 292 315 c 0
 292 341 310 356 326 361 c 0
 338 365 342 371 342 379 c 0xd4
 342 399 316 444 244 444 c 0
 153 444 136 356 136 228 c 0
 136 100 152 12 244 12 c 0
 333 12 370 91 378 156 c 1
 402 156 l 1
 397 81 349 -12 244 -12 c 0
 126 -12 48 96 48 228 c 0xd2
EndSplineSet
EndChar

StartChar: Dcaron
Encoding: 270 270 206
Width: 780
GlyphClass: 2
Flags: MW
HStem: 0 32<62 134 62 134 134 143.5 280 424 424 428> 680 32<62 134 62 428 270.5 280 280 424> 762 158<220 388 220 348>
VStem: 161 92<59 653> 208 320<906 906> 624 106<283 441>
LayerCount: 2
Fore
SplineSet
208 906 m 1x28
 220 920 l 1
 368 824 l 1
 516 920 l 1
 528 906 l 1
 388 762 l 1
 348 762 l 1
 208 906 l 1x28
253 59 m 2xd4
 253 41 261 32 280 32 c 2
 424 32 l 2
 573 32 624 204 624 362 c 0
 624 520 573 680 424 680 c 2
 280 680 l 2
 261 680 253 672 253 653 c 2
 253 59 l 2xd4
62 0 m 1
 62 32 l 1
 134 32 l 2
 153 32 161 41 161 59 c 2
 161 653 l 2
 161 672 153 680 134 680 c 2
 62 680 l 1
 62 712 l 1
 428 712 l 2
 594 712 730 570 730 362 c 0
 730 154 594 0 428 0 c 2
 62 0 l 1
EndSplineSet
EndChar

StartChar: dcaron
Encoding: 271 271 207
Width: 576
GlyphClass: 2
Flags: MW
HStem: -12 28<201.5 251> 0 24<438 490 438 490> 440 28<201.5 252 176 266> 634 86<496 521> 688 24<250 322 250 416>
VStem: 48 88<161 295 161 296> 344 72<38 46 46 74 74 74 182 274 274 320 382 666 666 674> 536 32<610.5 611.5>
LayerCount: 2
Fore
SplineSet
536 608 m 0x11
 536 615 536 634 506 634 c 0
 482 634 464 654 464 676 c 0
 464 704 484 720 508 720 c 0
 543 720 568 687 568 644 c 0
 568 577 522 523 470 488 c 1
 460 500 l 1
 499 527 536 570 536 608 c 0x11
48 228 m 0xae
 48 364 128 468 224 468 c 0
 280 468 322 424 340 381 c 1
 344 382 l 1
 344 666 l 2
 344 682 338 688 322 688 c 2
 250 688 l 1
 250 712 l 1
 416 712 l 1
 416 46 l 2
 416 30 422 24 438 24 c 2
 490 24 l 1
 490 0 l 1
 344 0 l 1x6e
 344 74 l 1
 340 75 l 1
 316 26 278 -12 224 -12 c 0
 128 -12 48 92 48 228 c 0xae
136 228 m 0
 136 94 168 16 235 16 c 0xae
 297 16 344 90 344 182 c 2
 344 274 l 2
 344 366 297 440 235 440 c 0
 168 440 136 362 136 228 c 0
EndSplineSet
Ligature2: "'ccmp' Glyph Composition/Decomposition lookup 3 subtable" d uni030C
EndChar

StartChar: Dcroat
Encoding: 272 272 208
Width: 768
GlyphClass: 2
Flags: MW
HStem: 0 32<62 134 62 134 134 143.5 280 424 424 428> 356 36<68 161 68 161 253 368> 680 32<62 134 62 428 270.5 280 280 424>
VStem: 161 92<59 356 392 653> 624 106<283 441>
LayerCount: 2
Fore
SplineSet
253 59 m 2
 253 41 261 32 280 32 c 2
 424 32 l 2
 573 32 624 204 624 362 c 0
 624 520 573 680 424 680 c 2
 280 680 l 2
 261 680 253 672 253 653 c 2
 253 392 l 1
 368 392 l 1
 368 356 l 1
 253 356 l 1
 253 59 l 2
62 0 m 1
 62 32 l 1
 134 32 l 2
 153 32 161 41 161 59 c 2
 161 356 l 1
 68 356 l 1
 68 392 l 1
 161 392 l 1
 161 653 l 2
 161 672 153 680 134 680 c 2
 62 680 l 1
 62 712 l 1
 428 712 l 2
 594 712 730 570 730 362 c 0
 730 154 594 0 428 0 c 2
 62 0 l 1
EndSplineSet
EndChar

StartChar: dcroat
Encoding: 273 273 209
Width: 522
GlyphClass: 2
Flags: MW
HStem: -12 28<201.5 251> 0 24<438 490 438 490> 440 28<201.5 252 176 266> 556 28<160 344 160 344 416 490> 688 24<250 322 250 416>
VStem: 48 88<161 295 161 296> 344 72<38 46 46 74 74 74 182 274 274 320 382 556 584 666 666 674>
AnchorPoint: "Anchor-2" 230 0 basechar 0
LayerCount: 2
Fore
SplineSet
48 228 m 0xbe
 48 364 128 468 224 468 c 0
 280 468 322 424 340 381 c 1
 344 382 l 1
 344 556 l 1
 160 556 l 1
 160 584 l 1
 344 584 l 1
 344 666 l 2
 344 682 338 688 322 688 c 2
 250 688 l 1
 250 712 l 1
 416 712 l 1
 416 584 l 1
 490 584 l 1
 490 556 l 1
 416 556 l 1
 416 46 l 2
 416 30 422 24 438 24 c 2
 490 24 l 1
 490 0 l 1
 344 0 l 1x7e
 344 74 l 1
 340 75 l 1
 316 26 278 -12 224 -12 c 0
 128 -12 48 92 48 228 c 0xbe
136 228 m 0
 136 94 168 16 235 16 c 0xbe
 297 16 344 90 344 182 c 2
 344 274 l 2
 344 366 297 440 235 440 c 0
 168 440 136 362 136 228 c 0
EndSplineSet
EndChar

StartChar: Emacron
Encoding: 274 274 210
Width: 690
GlyphClass: 2
Flags: MW
HStem: 0 32<62 134 134 143.5 280 440 440 457.5 62 134> 352 32<253 330 253 330> 462 21G<599 599 599 624> 680 32<62 134 62 620 270.5 280 280 439> 822 40<232 504 232 504>
VStem: 161 92<59 352 384 653> 232 272<822 862 822 862> 426 26<189 218 518 547> 599 25<462 462>
LayerCount: 2
Fore
SplineSet
232 822 m 1x0a
 232 862 l 1
 504 862 l 1
 504 822 l 1
 232 822 l 1x0a
599 462 m 1xf580
 598 489 589 680 439 680 c 2
 280 680 l 2
 261 680 253 672 253 653 c 2
 253 384 l 1
 330 384 l 2
 407 384 426 489 426 547 c 1
 452 547 l 1
 452 189 l 1
 426 189 l 1
 426 247 407 352 330 352 c 2
 253 352 l 1
 253 59 l 2
 253 41 261 32 280 32 c 2
 440 32 l 2
 475 32 520 46 550 85 c 0
 596 147 607 276 607 276 c 1
 632 276 l 1
 620 0 l 1
 62 0 l 1
 62 32 l 1
 134 32 l 2
 153 32 161 41 161 59 c 2
 161 653 l 2
 161 672 153 680 134 680 c 2
 62 680 l 1
 62 712 l 1
 620 712 l 1
 624 462 l 1
 599 462 l 1xf580
EndSplineSet
MultipleSubs2: "Multiple Substitution lookup 33 subtable" E macroncmb
EndChar

StartChar: emacron
Encoding: 275 275 211
Width: 460
GlyphClass: 2
Flags: MW
HStem: -12 24<212 283.5 212 302.5> 230 24<136 330 136 385 136 330> 444 24<204 274.5> 572 40<110 370 110 370>
VStem: 48 88<169 230 254 290> 110 260<572 612 572 612> 330 86<254 296.5 240 300> 396 24<156 156>
LayerCount: 2
Fore
SplineSet
110 572 m 1x14
 110 612 l 1
 370 612 l 1
 370 572 l 1
 110 572 l 1x14
48 226 m 0xe9
 48 354 128 468 242 468 c 0
 372 468 416 345 416 248 c 0xea
 416 232 406 230 385 230 c 2
 136 230 l 1
 136 108 166 12 258 12 c 0
 309 12 380 48 396 156 c 1
 420 156 l 1
 412 62 351 -12 254 -12 c 0
 132 -12 48 74 48 226 c 0xe9
136 254 m 1
 330 254 l 1
 330 346 309 444 240 444 c 0
 168 444 136 350 136 254 c 1
EndSplineSet
MultipleSubs2: "Multiple Substitution lookup 33 subtable" e macroncmb
EndChar

StartChar: Ebreve
Encoding: 276 276 212
Width: 690
GlyphClass: 2
Flags: MW
HStem: 0 32<62 134 134 143.5 280 440 440 457.5 62 134> 352 32<253 330 253 330> 462 21G<599 599 599 624> 680 32<62 134 62 620 270.5 280 280 439> 762 46<331 405 331 421>
VStem: 161 92<59 352 384 653> 217 28<886 916> 426 26<189 218 518 547> 491 28<886 916> 599 25<462 462>
LayerCount: 2
Fore
SplineSet
217 916 m 1x0a80
 245 916 l 1
 255 868 294 808 368 808 c 0
 442 808 481 868 491 916 c 1
 519 916 l 1
 519 856 474 762 368 762 c 0
 262 762 217 856 217 916 c 1x0a80
599 462 m 1xf540
 598 489 589 680 439 680 c 2
 280 680 l 2
 261 680 253 672 253 653 c 2
 253 384 l 1
 330 384 l 2
 407 384 426 489 426 547 c 1
 452 547 l 1
 452 189 l 1
 426 189 l 1
 426 247 407 352 330 352 c 2
 253 352 l 1
 253 59 l 2
 253 41 261 32 280 32 c 2
 440 32 l 2
 475 32 520 46 550 85 c 0
 596 147 607 276 607 276 c 1
 632 276 l 1
 620 0 l 1
 62 0 l 1
 62 32 l 1
 134 32 l 2
 153 32 161 41 161 59 c 2
 161 653 l 2
 161 672 153 680 134 680 c 2
 62 680 l 1
 62 712 l 1
 620 712 l 1
 624 462 l 1
 599 462 l 1xf540
EndSplineSet
MultipleSubs2: "Multiple Substitution lookup 33 subtable" E brevecmb
EndChar

StartChar: ebreve
Encoding: 277 277 213
Width: 460
GlyphClass: 2
Flags: MW
HStem: -12 24<212 283.5 212 302.5> 230 24<136 330 136 385 136 330> 444 24<204 274.5> 526 40<199 281 199 288>
VStem: 48 88<169 230 254 290> 102 22<642 666> 330 86<254 296.5 240 300> 356 22<642 666> 396 24<156 156>
LayerCount: 2
Fore
SplineSet
102 666 m 1x15
 124 666 l 1
 130 624 158 566 240 566 c 0
 322 566 350 624 356 666 c 1
 378 666 l 1
 378 618 336 526 240 526 c 0
 144 526 102 618 102 666 c 1x15
48 226 m 0xe880
 48 354 128 468 242 468 c 0
 372 468 416 345 416 248 c 0xea
 416 232 406 230 385 230 c 2
 136 230 l 1
 136 108 166 12 258 12 c 0
 309 12 380 48 396 156 c 1
 420 156 l 1
 412 62 351 -12 254 -12 c 0
 132 -12 48 74 48 226 c 0xe880
136 254 m 1
 330 254 l 1
 330 346 309 444 240 444 c 0
 168 444 136 350 136 254 c 1
EndSplineSet
MultipleSubs2: "Multiple Substitution lookup 33 subtable" e brevecmb
EndChar

StartChar: Edotaccent
Encoding: 278 278 214
Width: 690
GlyphClass: 2
Flags: MW
HStem: 0 32<62 134 134 143.5 280 440 440 457.5 62 134> 352 32<253 330 253 330> 462 21G<599 599 599 624> 680 32<62 134 62 620 270.5 280 280 439> 798 104<353 383>
VStem: 161 92<59 352 384 653> 316 104<835 865> 426 26<189 218 518 547> 599 25<462 462>
LayerCount: 2
Fore
SplineSet
316 850 m 0
 316 880 338 902 368 902 c 0
 398 902 420 880 420 850 c 0
 420 820 398 798 368 798 c 0
 338 798 316 820 316 850 c 0
599 462 m 1
 598 489 589 680 439 680 c 2
 280 680 l 2
 261 680 253 672 253 653 c 2
 253 384 l 1
 330 384 l 2
 407 384 426 489 426 547 c 1
 452 547 l 1
 452 189 l 1
 426 189 l 1
 426 247 407 352 330 352 c 2
 253 352 l 1
 253 59 l 2
 253 41 261 32 280 32 c 2
 440 32 l 2
 475 32 520 46 550 85 c 0
 596 147 607 276 607 276 c 1
 632 276 l 1
 620 0 l 1
 62 0 l 1
 62 32 l 1
 134 32 l 2
 153 32 161 41 161 59 c 2
 161 653 l 2
 161 672 153 680 134 680 c 2
 62 680 l 1
 62 712 l 1
 620 712 l 1
 624 462 l 1
 599 462 l 1
EndSplineSet
EndChar

StartChar: edotaccent
Encoding: 279 279 215
Width: 460
GlyphClass: 2
Flags: MW
HStem: -12 24<212 283.5 212 302.5> 230 24<136 330 136 385 136 330> 444 24<204 274.5> 544 104<225 255>
VStem: 48 88<169 230 254 290> 188 104<581 611> 330 86<254 296.5 240 300> 396 24<156 156>
LayerCount: 2
Fore
SplineSet
188 596 m 0x14
 188 626 210 648 240 648 c 0
 270 648 292 626 292 596 c 0
 292 566 270 544 240 544 c 0
 210 544 188 566 188 596 c 0x14
48 226 m 0xe9
 48 354 128 468 242 468 c 0
 372 468 416 345 416 248 c 0xea
 416 232 406 230 385 230 c 2
 136 230 l 1
 136 108 166 12 258 12 c 0
 309 12 380 48 396 156 c 1
 420 156 l 1
 412 62 351 -12 254 -12 c 0
 132 -12 48 74 48 226 c 0xe9
136 254 m 1
 330 254 l 1
 330 346 309 444 240 444 c 0
 168 444 136 350 136 254 c 1
EndSplineSet
EndChar

StartChar: Eogonek
Encoding: 280 280 216
Width: 690
GlyphClass: 2
Flags: MW
HStem: -238 44<467 486> -187 20G<546 546> 0 32<62 134 134 143.5 280 440 440 457.5 62 134> 352 32<253 330 253 330> 462 21G<599 599 599 624> 680 32<62 134 62 620 270.5 280 280 439>
VStem: 161 92<59 352 384 653> 364 68<-150.5 -117.5> 426 26<189 218 518 547> 599 25<462 462>
AnchorPoint: "Anchor-1" 368 782 basechar 0
AnchorPoint: "Anchor-0" 368 762 basechar 0
LayerCount: 2
Fore
SplineSet
599 462 m 1xff40
 598 489 589 680 439 680 c 2
 280 680 l 2
 261 680 253 672 253 653 c 2
 253 384 l 1
 330 384 l 2
 407 384 426 489 426 547 c 1
 452 547 l 1
 452 189 l 1
 426 189 l 1xfec0
 426 247 407 352 330 352 c 2
 253 352 l 1
 253 59 l 2
 253 41 261 32 280 32 c 2
 440 32 l 2
 475 32 520 46 550 85 c 0
 596 147 607 276 607 276 c 1
 632 276 l 1
 620 0 l 1
 528 0 l 1
 478 -25 432 -71 432 -135 c 0
 432 -166 450 -194 484 -194 c 0
 515 -194 530 -184 546 -167 c 1
 558 -176 l 1
 544 -202 513 -238 459 -238 c 0
 400 -238 364 -202 364 -148 c 0
 364 -87 417 -36 476 -5 c 1
 474 0 l 1
 62 0 l 1
 62 32 l 1
 134 32 l 2
 153 32 161 41 161 59 c 2
 161 653 l 2
 161 672 153 680 134 680 c 2
 62 680 l 1
 62 712 l 1
 620 712 l 1
 624 462 l 1
 599 462 l 1xff40
EndSplineSet
Ligature2: "'ccmp' Glyph Composition/Decomposition lookup 3 subtable" afii10022 uni0328
Ligature2: "'ccmp' Glyph Composition/Decomposition lookup 3 subtable" E uni0328
EndChar

StartChar: eogonek
Encoding: 281 281 217
Width: 460
GlyphClass: 2
Flags: MW
HStem: -220 44<286 301.5> -12 24<212 263> 230 24<136 330 136 385 136 330> 444 24<204 274.5>
VStem: 48 88<169 230 254 290> 201 56<-143 -118> 330 86<254 296.5 240 300> 396 24<156 156>
AnchorPoint: "Anchor-1" 240 528 basechar 0
AnchorPoint: "Anchor-0" 240 508 basechar 0
LayerCount: 2
Fore
SplineSet
420 156 m 1xfd
 406 0 257 -21 257 -129 c 0
 257 -157 271 -176 301 -176 c 0
 327 -176 342 -162 359 -142 c 1
 373 -152 l 1
 356 -183 323 -220 280 -220 c 0
 237 -220 201 -190 201 -142 c 0
 201 -94 240 -45 305 -6 c 1
 303 -3 l 1
 288 -8 272 -12 254 -12 c 0
 132 -12 48 74 48 226 c 0
 48 354 128 468 242 468 c 0
 372 468 416 345 416 248 c 0xfe
 416 232 406 230 385 230 c 2
 136 230 l 1
 136 108 166 12 258 12 c 0
 309 12 380 48 396 156 c 1
 420 156 l 1xfd
136 254 m 1
 330 254 l 1
 330 346 309 444 240 444 c 0
 168 444 136 350 136 254 c 1
EndSplineSet
Ligature2: "'ccmp' Glyph Composition/Decomposition lookup 3 subtable" afii10070 uni0328
Ligature2: "'ccmp' Glyph Composition/Decomposition lookup 3 subtable" e uni0328
EndChar

StartChar: Ecaron
Encoding: 282 282 218
Width: 690
GlyphClass: 2
Flags: MW
HStem: 0 32<62 134 134 143.5 280 440 440 457.5 62 134> 352 32<253 330 253 330> 462 21G<599 599 599 624> 680 32<62 134 62 620 270.5 280 280 439> 762 158<220 388 220 348>
VStem: 161 92<59 352 384 653> 208 320<906 906> 426 26<189 218 518 547> 599 25<462 462>
LayerCount: 2
Fore
SplineSet
208 906 m 1x0a
 220 920 l 1
 368 824 l 1
 516 920 l 1
 528 906 l 1
 388 762 l 1
 348 762 l 1
 208 906 l 1x0a
599 462 m 1xf580
 598 489 589 680 439 680 c 2
 280 680 l 2
 261 680 253 672 253 653 c 2
 253 384 l 1
 330 384 l 2
 407 384 426 489 426 547 c 1
 452 547 l 1
 452 189 l 1
 426 189 l 1
 426 247 407 352 330 352 c 2
 253 352 l 1
 253 59 l 2
 253 41 261 32 280 32 c 2
 440 32 l 2
 475 32 520 46 550 85 c 0
 596 147 607 276 607 276 c 1
 632 276 l 1
 620 0 l 1
 62 0 l 1
 62 32 l 1
 134 32 l 2
 153 32 161 41 161 59 c 2
 161 653 l 2
 161 672 153 680 134 680 c 2
 62 680 l 1
 62 712 l 1
 620 712 l 1
 624 462 l 1
 599 462 l 1xf580
EndSplineSet
EndChar

StartChar: ecaron
Encoding: 283 283 219
Width: 460
GlyphClass: 2
Flags: MW
HStem: -12 24<212 283.5 212 302.5> 230 24<136 330 136 385 136 330> 444 24<204 274.5> 508 164<121 260 121 220>
VStem: 48 88<169 230 254 290> 108 264<661 661> 330 86<254 296.5 240 300> 396 24<156 156>
LayerCount: 2
Fore
SplineSet
108 661 m 1x14
 121 672 l 1
 240 572 l 1
 359 672 l 1
 372 661 l 1
 260 508 l 1
 220 508 l 1
 108 661 l 1x14
48 226 m 0xe9
 48 354 128 468 242 468 c 0
 372 468 416 345 416 248 c 0xea
 416 232 406 230 385 230 c 2
 136 230 l 1
 136 108 166 12 258 12 c 0
 309 12 380 48 396 156 c 1
 420 156 l 1
 412 62 351 -12 254 -12 c 0
 132 -12 48 74 48 226 c 0xe9
136 254 m 1
 330 254 l 1
 330 346 309 444 240 444 c 0
 168 444 136 350 136 254 c 1
EndSplineSet
EndChar

StartChar: Gcircumflex
Encoding: 284 284 220
Width: 720
GlyphClass: 2
Flags: MW
HStem: -18 32<278 386> 306 32<360 471 360 690 607.5 617 617 690> 698 32<278 389.5> 702 20G<565 590 590 590> 762 158<200 368 328 496>
VStem: 70 106<257 458 254.5 462> 190 316<778 778> 498 92<189 279 -13 288.5> 558 32<-13 78 78 89> 565 25<722 722>
LayerCount: 2
Fore
SplineSet
190 778 m 1x0a
 260 818 302 870 328 920 c 1
 368 920 l 1
 394 870 436 818 506 778 c 1
 496 762 l 1
 462 774 390 820 348 858 c 1
 306 820 234 774 200 762 c 1
 190 778 l 1x0a
348 730 m 0xe480
 447 730 510 645 527 645 c 0
 538 645 542 654 546 666 c 2
 565 722 l 1
 590 722 l 1xd440
 594 412 l 1
 566 412 l 1
 521 611 429 698 350 698 c 0
 206 698 176 560 176 356 c 0
 176 153 206 14 350 14 c 0
 426 14 498 108 498 189 c 2
 498 279 l 2
 498 298 490 306 471 306 c 2
 360 306 l 1
 360 338 l 1
 690 338 l 1
 690 306 l 1
 617 306 l 2
 598 306 590 298 590 279 c 2xe5
 590 -13 l 1
 558 -13 l 1
 558 78 l 2
 558 100 554 112 541 112 c 0
 525 112 514 95 506 82 c 0
 482 43 422 -18 350 -18 c 0
 174 -18 70 152 70 362 c 0
 70 562 175 730 348 730 c 0xe480
EndSplineSet
EndChar

StartChar: gcircumflex
Encoding: 285 285 221
Width: 540
GlyphClass: 2
Flags: MW
HStem: -238 24<230 307 230 330> -26 68<231 254 254 334 334 365> 140 24<218 279 217 296> 444 24<217 279 438 453.5> 508 164<140 282 242 384>
VStem: 52 44<-154 -97> 62 40<59 83.5> 70 80<260 348> 131 262<521 521> 346 80<260 328 252 348> 448 36<-142 -85> 474 54<416.5 417.5 380.5 433.5>
LayerCount: 2
Fore
SplineSet
131 521 m 1x0880
 196 563 226 626 242 672 c 1
 282 672 l 1
 298 626 328 563 393 521 c 1
 384 508 l 1
 342 530 298 562 262 600 c 1
 226 562 182 530 140 508 c 1
 131 521 l 1x0880
96 -120 m 0xf460
 96 -188 192 -214 268 -214 c 0
 346 -214 448 -192 448 -102 c 0
 448 -68 433 -26 365 -26 c 2
 254 -26 l 2
 184 -26 96 -45 96 -120 c 0xf460
150 304 m 0xf140
 150 216 186 164 248 164 c 0
 310 164 346 216 346 304 c 0
 346 392 310 444 248 444 c 0
 186 444 150 392 150 304 c 0xf140
166 40 m 0
 170 40 230 42 231 42 c 2
 334 42 l 2
 413 42 484 0 484 -94 c 0
 484 -190 392 -238 268 -238 c 0
 167 -238 52 -210 52 -122 c 0xf460
 52 -72 98 -31 150 -23 c 1
 150 -20 l 1xf140
 104 -10 62 11 62 54 c 0xf240
 62 113 117 141 171 150 c 1
 171 153 l 1
 126 172 70 216 70 304 c 0xf140
 70 410 157 468 248 468 c 0
 312 468 371 430 381 416 c 1
 394 453 426 468 450 468 c 0
 495 468 528 439 528 396 c 0
 528 365 512 342 486 342 c 0
 468 342 446 351 446 378 c 0
 446 412 474 405 474 428 c 0
 474 439 460 444 447 444 c 0
 422 444 401 420 398 396 c 1
 408 382 426 352 426 304 c 0
 426 200 344 140 248 140 c 0
 188 140 102 127 102 73 c 0xf250
 102 45 132 40 166 40 c 0
EndSplineSet
EndChar

StartChar: Gbreve
Encoding: 286 286 222
Width: 720
GlyphClass: 2
Flags: MW
HStem: -18 32<278 386> 306 32<360 471 360 690 607.5 617 617 690> 698 32<278 389.5> 702 20G<565 590 590 590> 762 46<311 385 311 401>
VStem: 70 106<257 458 254.5 462> 197 28<886 916> 471 28<886 916> 498 92<189 279 -13 288.5> 558 32<-13 78 78 89> 565 25<722 722>
LayerCount: 2
Fore
SplineSet
197 916 m 1x0b
 225 916 l 1
 235 868 274 808 348 808 c 0
 422 808 461 868 471 916 c 1
 499 916 l 1
 499 856 454 762 348 762 c 0
 242 762 197 856 197 916 c 1x0b
348 730 m 0xe440
 447 730 510 645 527 645 c 0
 538 645 542 654 546 666 c 2
 565 722 l 1
 590 722 l 1xd420
 594 412 l 1
 566 412 l 1
 521 611 429 698 350 698 c 0
 206 698 176 560 176 356 c 0
 176 153 206 14 350 14 c 0
 426 14 498 108 498 189 c 2
 498 279 l 2
 498 298 490 306 471 306 c 2
 360 306 l 1
 360 338 l 1
 690 338 l 1
 690 306 l 1
 617 306 l 2
 598 306 590 298 590 279 c 2xe480
 590 -13 l 1
 558 -13 l 1
 558 78 l 2
 558 100 554 112 541 112 c 0
 525 112 514 95 506 82 c 0
 482 43 422 -18 350 -18 c 0
 174 -18 70 152 70 362 c 0
 70 562 175 730 348 730 c 0xe440
EndSplineSet
EndChar

StartChar: gbreve
Encoding: 287 287 223
Width: 540
GlyphClass: 2
Flags: MW
HStem: -238 24<230 307 230 330> -26 68<231 254 254 334 334 365> 140 24<218 279 217 296> 444 24<217 279 438 453.5> 526 40<221 303 221 310>
VStem: 52 44<-154 -97> 62 40<59 83.5> 70 80<260 348> 124 22<642 666> 346 80<260 328 252 348> 378 22<642 666> 448 36<-142 -85> 474 54<416.5 417.5 380.5 433.5>
LayerCount: 2
Fore
SplineSet
124 666 m 1x08a0
 146 666 l 1
 152 624 180 566 262 566 c 0
 344 566 372 624 378 666 c 1
 400 666 l 1
 400 618 358 526 262 526 c 0
 166 526 124 618 124 666 c 1x08a0
96 -120 m 0xf450
 96 -188 192 -214 268 -214 c 0
 346 -214 448 -192 448 -102 c 0
 448 -68 433 -26 365 -26 c 2
 254 -26 l 2
 184 -26 96 -45 96 -120 c 0xf450
150 304 m 0xf140
 150 216 186 164 248 164 c 0
 310 164 346 216 346 304 c 0
 346 392 310 444 248 444 c 0
 186 444 150 392 150 304 c 0xf140
166 40 m 0
 170 40 230 42 231 42 c 2
 334 42 l 2
 413 42 484 0 484 -94 c 0
 484 -190 392 -238 268 -238 c 0
 167 -238 52 -210 52 -122 c 0xf450
 52 -72 98 -31 150 -23 c 1
 150 -20 l 1xf140
 104 -10 62 11 62 54 c 0xf240
 62 113 117 141 171 150 c 1
 171 153 l 1
 126 172 70 216 70 304 c 0xf140
 70 410 157 468 248 468 c 0
 312 468 371 430 381 416 c 1
 394 453 426 468 450 468 c 0
 495 468 528 439 528 396 c 0
 528 365 512 342 486 342 c 0
 468 342 446 351 446 378 c 0
 446 412 474 405 474 428 c 0
 474 439 460 444 447 444 c 0
 422 444 401 420 398 396 c 1
 408 382 426 352 426 304 c 0
 426 200 344 140 248 140 c 0
 188 140 102 127 102 73 c 0xf248
 102 45 132 40 166 40 c 0
EndSplineSet
EndChar

